<?xml version="1.0" encoding="UTF-8"?>
<!DOCTYPE svg PUBLIC "-//W3C//DTD SVG 1.1//EN" "http://www.w3.org/Graphics/SVG/1.1/DTD/svg11.dtd">
<!-- Creator: CorelDRAW X7 -->
<svg xmlns="http://www.w3.org/2000/svg" xml:space="preserve" width="58.6134in" height="58.3981in" version="1.1" style="shape-rendering:geometricPrecision; text-rendering:geometricPrecision; image-rendering:optimizeQuality; fill-rule:evenodd; clip-rule:evenodd"
viewBox="0 0 8496 8465"
 xmlns:xlink="http://www.w3.org/1999/xlink">
 <defs>
  <style type="text/css">
   <![CDATA[
    .fil1 {fill:#EACC5C}
    .fil3 {fill:#F2DB83}
    .fil0 {fill:#F4C51F}
    .fil2 {fill:#FEEDC4}
   ]]>
  </style>
 </defs>
 <g id="Layer_x0020_1">
  <metadata id="CorelCorpID_0Corel-Layer"/>
  <g id="_335411112">
   <path class="fil0" d="M3195 1994c-32,55 -30,45 -92,56 -41,6 -24,2 -66,24 0,38 8,30 -31,18 -22,26 56,17 -17,24l-35 5c-7,21 31,19 -30,17 -29,48 -109,103 -161,115 -25,47 -42,67 -100,78 -9,43 6,13 -24,41 -34,31 -16,7 -33,15 10,31 12,22 -20,12 8,29 10,20 -20,13 8,31 18,29 -12,20 10,31 16,26 -15,18 10,32 15,26 -17,14 9,31 11,22 -21,12 8,30 15,26 -14,18 13,33 18,27 -16,17 4,30 10,25 -18,14 15,36 24,34 -13,19 14,37 17,29 -18,15 11,29 18,24 -13,19 -15,48 -10,32 -44,69 -1,1 -23,23 -24,24 -18,17 -13,11 -28,22 9,31 17,28 -13,18l-51 63c-7,54 3,18 -25,24 12,32 22,31 -10,22 0,52 4,21 -22,26 12,37 20,29 -17,29 -33,43 -16,4 -21,54 -16,55 -21,79 -67,106 8,75 3,23 -15,33 1,30 15,63 -30,51 21,68 8,20 -24,39 -109,244 -142,287 -204,573 -45,210 -68,490 -44,727 39,388 110,601 263,919 13,28 126,230 138,239 84,53 76,73 92,127l142 166c76,93 389,388 510,433 66,3 58,19 76,55 275,104 106,102 688,264 255,71 584,86 863,51 282,-35 542,-106 754,-211 59,-29 98,-51 159,-83 63,-33 83,-45 144,-85l267 -195c19,-41 162,-173 235,-256 2,-3 5,-6 8,-9 2,-2 5,-6 8,-8l137 -170c78,-106 96,-155 156,-262 5,-9 14,-23 21,-31 20,-22 3,-4 34,-27 249,-482 362,-1234 164,-1845 -33,-29 -17,7 -44,-59 -7,-17 -7,-28 -13,-48 -17,-55 -21,-46 -26,-108 -3,-57 7,-10 -10,-48 -34,-29 -26,35 -31,-25l-9 -44c-76,-222 -319,-542 -466,-686 -86,-84 -190,-196 -312,-271 -84,-51 -263,-199 -361,-209l-52 -13 -10 -27c-40,-11 -58,-30 -104,-48 -202,-79 -154,-58 -368,-118 -316,-88 -856,-85 -1170,6 -80,23 -176,47 -252,74 -66,23 -136,59 -206,88z"/>
   <path class="fil0" d="M4235 8465c57,-22 13,13 48,-52l202 -459c68,-183 146,-343 226,-516 166,-356 75,-208 -298,-197 -275,8 -462,-21 -714,-42 11,77 333,806 405,960 44,95 80,221 131,306z"/>
   <path class="fil0" d="M4215 52l7 13c-13,48 -21,82 -53,114 -2,62 -19,98 -64,144 -68,166 -130,295 -202,464 -42,97 -196,422 -203,499 171,-4 293,-36 470,-39 124,-3 397,26 479,15l104 2 18 -49c-58,0 -41,-12 -39,-70 3,-93 -227,-500 -254,-632 -21,-9 -24,-1 -39,-17l1 -52c-34,14 -19,13 -14,-31l-104 -258c-31,-16 -31,21 -21,-41 -24,-7 -23,24 -17,-32 -24,-7 -26,28 -16,-32 -36,-9 -13,-9 -53,2z"/>
   <path class="fil0" d="M970 2656l104 104c4,3 14,11 17,15 48,59 -15,30 137,202 7,8 14,18 20,27l124 189c57,7 22,6 99,-130 45,-80 118,-280 185,-379l40 -58c2,-4 6,-7 8,-10 3,-3 8,-6 11,-9l24 -15 17 0c3,-6 5,-12 8,-16l14 -28c2,-4 5,-8 7,-11 2,-4 5,-7 7,-11l30 -49c33,-56 21,-52 73,-77l-16 -24 36 -50c1,-6 4,-6 7,-9 -20,-13 -17,-31 -17,-31 -37,10 -5,18 -65,8 -39,-7 -24,-8 -35,-23 -26,9 -59,36 -59,-17l-1155 -130c16,75 329,485 379,532z"/>
   <path class="fil0" d="M1229 5461c11,31 19,28 -13,20 8,62 3,19 -18,31 10,29 19,26 -10,21 -12,33 -5,24 -26,52 -20,25 -25,24 -46,39 -14,52 -19,44 -46,79 -12,16 -17,26 -28,38 -27,29 -14,16 -38,31 -10,44 0,21 -24,52l-46 46 -9 10c-21,63 -21,60 -70,85l5 10c-14,27 7,8 -20,34 -25,25 -11,13 -41,23 13,36 25,35 -10,25 12,31 18,27 -15,16 11,33 18,29 -14,18 11,33 18,28 -15,19 14,56 6,20 -14,33 -12,36 -22,51 -46,83l-45 51c-2,2 -6,6 -8,8 -3,2 -8,5 -10,7 -2,1 -6,5 -10,7 12,30 16,22 -17,19l-2 47c128,-10 269,-52 395,-31 10,-19 -31,-9 42,-20 50,-7 44,-3 84,5 18,-31 -9,-10 32,-19 30,-7 49,-4 79,-5l567 -63c18,-16 6,-18 46,-24 53,-8 15,-4 52,5l36 -23 -30 -65c-15,-49 -31,-58 -59,-87 -36,0 -32,10 -23,-22 -31,8 -25,13 -15,-17 -32,9 -26,14 -14,-18 -23,-10 -38,39 -18,-30 -33,9 -27,13 -15,-18 -37,12 -28,15 -13,-21 -21,-9 -20,36 -19,-28 -4,-2 -9,-5 -11,-7l-19 -15c-40,-41 -52,-98 -93,-149 -30,-38 -9,2 -33,-45l-97 -262c-13,-11 -23,37 -15,-48 -71,-39 16,-26 -84,-63 -21,42 -33,50 -65,92 -10,13 -26,38 -35,47 -25,27 -6,13 -39,27z"/>
   <path class="fil0" d="M6267 642c9,33 14,27 -18,15 11,34 16,28 -17,16 12,34 18,28 -17,17 16,30 15,20 -18,13l-158 133c-3,2 -8,4 -10,6 -105,73 -100,45 -120,104l-49 6c-25,51 -29,60 -83,86 -67,31 -18,3 -65,37 -45,32 -14,20 -65,34l-157 131c-27,18 -30,22 -61,44l-73 54c-28,22 -32,26 -54,56l31 43c2,3 7,9 10,13 50,32 212,95 279,127 48,23 86,46 136,73 40,23 97,69 137,84l58 31c3,2 6,5 9,7l186 137c3,2 7,5 9,7l50 27c0,-36 2,-56 5,-93 3,-33 0,-35 5,-84 1,-11 6,-36 6,-41 10,-65 5,-83 38,-128 -16,-201 98,-574 74,-760 -2,-32 -6,-57 -2,-92 10,-64 4,-34 21,-49l-7 -76 -52 2c-9,25 37,40 -28,20z"/>
   <path class="fil0" d="M2284 6568l-38 274c2,34 -61,792 -107,839l8 26 -8 185c69,-20 34,-8 86,-45l108 -70c58,-47 56,-64 122,-87l-16 -3c7,-60 11,-46 62,-51 2,-3 6,-12 7,-9l14 -17c2,-2 6,-6 8,-8l127 -85c37,-52 70,-82 131,-96 2,-26 -4,-24 18,-11 -15,-37 -21,-33 16,-17 -17,-37 -15,-23 23,-11 7,-12 -10,-7 27,-38 28,-22 11,-9 44,-21 30,-46 48,-54 96,-64 -9,-32 -14,-26 17,-15 -10,-33 -16,-27 17,-16 -12,-35 -16,-27 18,-14 -14,-34 -12,-19 26,-9 2,-5 6,-19 6,-21 -8,-45 16,9 -11,-26 78,-19 46,-38 122,-43 2,-5 6,-18 6,-21 1,-2 2,-9 2,-11 0,-3 0,-8 1,-12l-49 -27c-44,0 -41,14 -33,-22 -21,-1 -19,4 -41,-6 -43,-18 -25,-15 -36,-28 -44,5 -50,18 -57,-21 -50,1 -26,9 -34,-13 -68,-8 -11,3 -30,-21 -67,0 -83,-23 -139,-54l-93 -53c-37,-31 -11,3 -30,-37 -66,8 -18,6 -40,-8 -31,-20 -14,-6 -26,-37 -36,12 -34,22 -21,-14 -55,23 -45,-20 -49,-33l-18 3c-40,0 -38,12 -28,-20 -35,13 -28,17 -15,-18 -24,10 -17,14 -24,-10 -29,-6 -44,3 -41,-36l-24 -11 -26 -5c-26,5 -21,10 -16,-16 -27,4 -22,10 -17,-17 -25,7 -20,12 -19,-13 -11,21 4,2 -26,14z"/>
   <path class="fil0" d="M7331 4741c46,0 465,-191 532,-220 95,-41 183,-78 272,-115 68,-29 204,-101 266,-112l22 -21c24,-29 3,1 27,-39 -72,-31 -306,-112 -344,-168 -174,-34 -622,-296 -746,-302 -87,21 -30,10 -40,-18l-94 -23c17,88 24,22 23,88 0,55 0,72 7,130 28,202 10,610 -27,819l102 -19z"/>
   <path class="fil0" d="M1107 3769l-11 31c-82,18 -91,39 -161,68 -33,13 -152,54 -170,57 -13,20 44,21 -41,18 -78,5 -226,97 -319,119 -3,6 -6,27 -17,37 -55,8 -39,8 -91,19l-183 71 -90 73c74,4 83,3 133,51 2,2 6,7 9,11 65,12 195,83 265,112 110,47 185,75 277,116 65,9 38,6 87,25l337 147c83,27 61,40 145,55 -15,-141 -32,-263 -42,-407 -5,-77 -8,-150 -5,-228l14 -225 13 -129c1,-4 4,-6 5,-13 1,-8 4,-9 7,-14l-12 -31 -150 37z"/>
   <path class="fil0" d="M7046 5371c0,95 -3,27 -28,52l-9 29c-9,42 -11,67 -31,106 -7,13 -24,38 -24,40l-19 30c-74,142 -74,160 -196,324l-61 84c-2,-3 -7,4 -10,7 13,35 20,31 -15,19 12,32 18,27 -15,18 10,30 16,25 -14,17 8,29 13,24 -16,17 -6,29 4,12 -15,46 -12,20 -14,16 -26,29l45 24c70,-13 101,-15 159,23l1071 122 50 -13c-1,-2 -1,-9 -2,-7l-13 -24c-2,-3 -6,-6 -8,-9l-28 -42c-13,-49 -206,-305 -251,-322l-16 -54c-47,-33 -217,-269 -243,-319 -65,-23 -61,-50 -99,-100 -37,-49 -53,-44 -65,-111 -89,-32 9,-11 -86,-58l-35 72z"/>
   <path class="fil0" d="M7707 2146l-631 71 -28 15c-111,43 -295,25 -396,50 -110,27 -32,6 -67,35 118,206 111,86 180,123 -95,-16 -51,12 -65,22l5 53 162 194 107 252c15,8 20,-34 13,36 20,9 21,-30 15,31 28,9 31,-25 15,36 3,2 8,1 9,7 0,5 5,7 6,9 23,87 3,-60 3,30 21,11 13,-9 24,24 15,41 5,6 6,49 -2,73 -3,15 18,42 60,-29 59,-46 95,-101l82 -111c41,-56 19,-39 73,-65 5,-42 27,-70 52,-81 2,-45 -11,-42 27,-27 -13,-35 -20,-31 16,-16 -14,-36 -22,-33 14,-20 -15,-57 -13,-25 20,-27 5,-79 7,-31 42,-92 29,-103 33,-62 119,-184 111,-159 -6,-3 81,-96 35,-38 55,-130 121,-160l19 3 -6 -24c17,-30 32,-39 48,-56 -5,-12 -11,-33 -18,-46l-28 -5c-18,18 7,5 -31,17 -5,2 -23,5 -29,6 -20,3 -53,4 -73,6z"/>
   <path class="fil0" d="M6059 6654l-29 -3c-24,55 -129,112 -193,131 -45,64 -262,155 -356,198 -61,74 35,-27 -16,45 -37,3 -124,21 -135,31 -53,48 4,88 29,113 3,2 7,6 10,10 43,41 184,126 209,170l109 68c3,2 7,4 10,6 77,46 136,108 187,129 44,18 9,0 48,24 1,1 31,21 39,27 24,16 45,29 69,61 16,26 2,10 31,34 18,16 28,21 46,35 36,28 40,36 78,57 72,23 13,5 70,40 61,37 3,16 82,30 -2,-85 -27,-93 -10,-173 -33,-43 -63,-388 -49,-438 -46,-62 -43,-233 -54,-331 -11,-87 -18,-282 -57,-337 -92,35 -54,41 -118,73z"/>
   <path class="fil0" d="M2773 1621c34,-8 101,-45 148,-67 71,-34 109,-56 181,-74l1 -6c23,-42 3,-17 28,-47l56 1 29 -31c-50,-32 -9,1 -28,-43l-471 -352c-38,-29 -36,-35 -78,-44 -50,-12 -48,-15 -98,-70 -1,-1 -5,-5 -7,-8 -32,-8 6,18 -38,-12 -34,-22 -20,5 -30,-35 -35,14 -31,21 -18,-15 -62,-20 -131,-70 -156,-115 -19,-11 -6,-1 -31,-19 -3,-1 -8,-5 -10,-6l-18 -15c-2,-1 -6,-5 -9,-7 -44,-17 -33,-18 -67,-39l125 1114c14,87 2,111 8,189 91,-11 33,-11 114,-73 54,-42 71,-38 120,-74 92,-68 75,-102 249,-152z"/>
   <path class="fil1" d="M2153 854c-2,103 112,1065 140,1104 113,-43 225,-197 332,-214 12,-17 5,-15 29,-37 2,-2 6,-5 9,-7 55,-45 52,-12 110,-79 -174,50 -157,84 -249,152 -49,36 -66,32 -120,74 -81,62 -23,62 -114,73 -6,-78 6,-102 -8,-189l-125 -1114c34,21 23,22 67,39 3,2 7,6 9,7l18 15c2,1 7,5 10,6 25,18 12,8 31,19 25,45 94,95 156,115 -13,36 -17,29 18,15 10,40 -4,13 30,35 44,30 6,4 38,12 2,3 6,7 7,8 50,55 48,58 98,70 -24,-50 -44,-71 -105,-78 -16,-41 16,-5 -20,-31 -35,-25 1,-11 -48,-16 12,-34 16,-27 -18,-15 -13,-30 0,-11 -26,-39 -11,-12 -22,-19 -36,-30 -28,-23 -37,-34 -67,-52l-27 6c-20,-51 -11,-35 -68,-47 -26,-42 -45,-57 -98,-73l27 271z"/>
   <path class="fil2" d="M2139 7681c46,-47 109,-805 107,-839l38 -274c5,-25 25,-71 26,-14l19 13c29,-8 22,-12 17,17l20 -4 -4 20 28 -13 -2 18c36,-13 34,-24 24,11l41 36c39,-9 43,-24 24,10 31,-10 23,-14 15,18 37,-13 28,-19 28,20l18 -3c4,13 -6,56 49,33 -13,36 -15,26 21,14 12,31 -5,17 26,37 22,14 -26,16 40,8 19,40 -7,6 30,37l93 53c56,31 72,54 139,54 19,24 -38,13 30,21 8,22 -16,14 34,13 7,39 13,26 57,21 11,13 -7,10 36,28 22,10 20,5 41,6 -8,36 -11,22 33,22 0,-46 10,-38 -33,-22 -25,-28 41,5 -36,-29 -14,-6 37,-13 -41,-5l-57 -21c-2,-8 -1,-26 -11,-39l-53 5c-18,-35 7,-13 -68,-49 -77,-38 -138,-84 -194,-95 -10,-50 2,-45 -66,-45 13,-38 16,-29 -21,-14 -10,-19 40,-19 -49,-33 -2,-3 -5,-7 -7,-8l-65 -66c-25,-26 -31,-45 -76,-36l-24 -7 -32 -64 -77 3c-24,199 -44,388 -61,587 -10,115 -80,472 -57,575z"/>
   <path class="fil3" d="M708 4552c3,4 -44,-3 68,45 187,80 226,87 437,193 55,27 85,27 89,-31l-27 -840 -31 0 -14 225c-3,78 0,151 5,228 10,144 27,266 42,407 -84,-15 -62,-28 -145,-55l-337 -147c-49,-19 -22,-16 -87,-25z"/>
   <path class="fil2" d="M7075 5255c-65,34 -54,22 -71,103 -18,87 -40,67 -45,155 -16,11 -17,0 -36,39 -15,32 -11,35 -16,67 -26,9 -24,-23 -19,33l-18 30c-30,-8 -22,-11 -11,20 -19,9 -22,-41 -27,35 -15,12 -18,-18 -30,57 -73,49 -49,39 -70,96 -29,82 -49,34 -67,126l82 -104c10,-17 22,-34 31,-50 41,-66 23,-4 24,-68 33,-27 32,-1 30,-57 31,13 32,26 22,-6l5 -29c33,11 24,13 11,-20 21,-8 22,25 18,-30l19 -33c38,-33 46,-51 52,-106l50 -61 9 -29c6,-58 -4,-49 28,-52l20 -99 9 -17c27,-7 29,4 12,-15 14,30 -2,7 18,32 0,0 23,22 24,23 16,16 23,22 39,48l-1 14 25 5c20,67 16,53 62,100 42,43 40,55 77,106 26,50 196,286 243,319l16 54 60 64c35,32 3,8 40,32 -17,-71 -52,-133 -116,-150l-1 -91c-88,-21 -23,26 -114,-102 -39,-53 -47,-97 -97,-144 -33,-31 -62,-15 -45,-94 -1,-1 -2,0 -2,1l-42 5c-27,-61 -7,-78 -81,-100 -4,-85 -30,-118 -105,-122 -12,-33 -5,-21 -12,15z"/>
   <path class="fil1" d="M6128 6571c5,31 9,22 -23,11l-46 72c64,-32 26,-38 118,-73 39,55 46,250 57,337 11,98 8,269 54,331 -14,50 16,395 49,438 -17,80 8,88 10,173 -79,-14 -21,7 -82,-30 -57,-35 2,-17 -70,-40 30,47 118,108 172,122l-5 -111c-2,-75 -6,-87 -25,-114 17,-69 3,-161 -7,-236 -3,-26 -11,-75 -16,-107 -8,-55 -3,-56 -26,-95 40,-144 -60,-310 -26,-458 -29,-42 -24,-46 -30,-103 -20,-194 -9,-152 -104,-117z"/>
   <path class="fil1" d="M7331 4741l-102 19c37,-209 55,-617 27,-819 -7,-58 -7,-75 -7,-130 1,-66 -6,0 -23,-88l94 23c10,28 -47,39 40,18 -14,-29 21,-27 -40,-18 -1,-1 19,-52 -120,-50 -10,89 42,401 43,546 1,199 -40,374 -46,552 38,0 32,6 73,-7 0,0 32,-16 33,-17 27,-20 8,-6 28,-29z"/>
   <path class="fil2" d="M7333 2948c-54,26 -32,9 -73,65l-82 111c-36,55 -35,72 -95,101 -21,-27 -20,31 -18,-42 -9,-11 -14,-9 -23,-32 -17,-47 -4,-8 -7,-41 -11,-9 -23,26 -18,-46 -19,-11 -20,36 -15,-36 -26,-6 -38,40 -15,-31 -25,-9 -34,41 -13,-36l-20 -15c-12,-14 -13,-15 -21,-29 -8,-13 -24,-47 -33,-63 -2,-4 -8,-17 -10,-21l-53 -96c-29,-42 -117,-174 -132,-222 -38,-31 -38,-51 -70,-90 -11,-14 -21,-26 -37,-45 -39,-47 3,-17 -54,-47 19,56 74,126 104,157 53,53 9,-9 40,65 33,78 23,5 77,98 18,32 41,79 69,123 13,20 12,21 27,50 2,4 4,8 6,11 2,4 9,16 11,20l205 413c83,-32 61,-46 138,-152 43,-59 98,-124 112,-170z"/>
   <path class="fil1" d="M1372 3193l-124 -189c-6,-9 -13,-19 -20,-27 -152,-172 -89,-143 -137,-202 -3,-4 -13,-12 -17,-15l-104 -104c53,112 331,454 348,496 4,3 10,2 12,8 2,6 10,6 12,8 4,3 29,23 30,25l1 38c186,-28 6,9 105,-100 12,-84 74,-192 115,-269l146 -270 -24 15c-3,3 -8,6 -11,9 -2,3 -6,6 -8,10l-40 58c-67,99 -140,299 -185,379 -77,136 -42,137 -99,130z"/>
   <path class="fil1" d="M6544 2333c57,30 15,0 54,47 16,19 26,31 37,45 32,39 32,59 70,90 15,48 103,180 132,222l53 96c2,4 8,17 10,21 9,16 25,50 33,63 8,14 9,15 21,29l20 15c-21,77 -12,27 13,36 -23,71 -11,25 15,31 -5,72 -4,25 15,36 -5,72 7,37 18,46 3,33 -10,-6 7,41 9,23 14,21 23,32 -1,-43 9,-8 -6,-49 -11,-33 -3,-13 -24,-24 0,-90 20,57 -3,-30 -1,-2 -6,-4 -6,-9 -1,-6 -6,-5 -9,-7 16,-61 13,-27 -15,-36 6,-61 5,-22 -15,-31 7,-70 2,-28 -13,-36l-107 -252 -162 -194 -5 -53c14,-10 -30,-38 65,-22 -69,-37 -62,83 -180,-123 35,-29 -43,-8 67,-35 101,-25 285,-7 396,-50l28 -15c-102,1 -163,19 -260,31 -78,9 -181,24 -266,21l-6 64z"/>
   <path class="fil2" d="M7840 2117c-29,-7 -17,-14 -63,-7 -98,15 -55,21 -70,36 20,-2 53,-3 73,-6 6,-1 24,-4 29,-6 38,-12 13,1 31,-17l28 5 53 4c-17,61 -45,75 -83,98l6 24 -19 -3 -321 440c-35,61 -37,13 -42,92 -33,2 -35,-30 -20,27 -36,-13 -28,-16 -14,20 -36,-15 -29,-19 -16,16 -38,-15 -25,-18 -27,27 46,0 43,13 27,-27 36,14 30,19 16,-16 39,15 30,18 14,-20 22,-7 25,34 20,-27 74,-39 61,-65 103,-125 74,-104 43,-22 116,-156l74 -108c44,-72 77,-46 89,-140 32,-12 46,-24 65,-45 24,-28 16,2 23,-36 13,-72 -5,-35 -11,-41 -13,-20 27,-15 -34,-26 -42,-7 -31,3 -47,17z"/>
   <path class="fil2" d="M799 6032c-34,-15 -20,-13 -10,25 -31,-8 -26,-14 -15,16 -32,-10 -25,-14 -14,18 -34,-10 -27,-15 -15,19 -19,3 -17,-33 -14,33 -141,45 6,51 -135,106l16 50c-36,-13 -29,-17 -17,19l-51 71c69,-2 170,-14 231,-20l174 -16c35,-10 38,-19 39,-19 40,12 20,16 76,7 46,-7 46,-19 50,-22 41,8 9,14 64,2 37,-9 30,-11 47,-26 -30,1 -49,-2 -79,5 -41,9 -14,-12 -32,19 -40,-8 -34,-12 -84,-5 -73,11 -32,1 -42,20 -126,-21 -267,21 -395,31l2 -47c33,3 29,11 17,-19 4,-2 8,-6 10,-7 2,-2 7,-5 10,-7 2,-2 6,-6 8,-8l45 -51c24,-32 34,-47 46,-83 20,-13 28,23 14,-33 33,9 26,14 15,-19 32,11 25,15 14,-18 33,11 27,15 15,-16 35,10 23,11 10,-25 30,-10 16,2 41,-23 27,-26 6,-7 20,-34 -52,21 -42,8 -61,57z"/>
   <path class="fil2" d="M6362 7801l5 111c-54,-14 -142,-75 -172,-122 -38,-21 -42,-29 -78,-57 -18,-14 -28,-19 -46,-35 -29,-24 -15,-8 -31,-34l-148 -102c-2,-2 -5,-7 -8,-10 -51,-21 -110,-83 -187,-129 -3,-2 -7,-4 -10,-6l-109 -68 186 165c83,38 146,89 201,144l306 213c76,47 5,46 84,74 48,-40 29,-71 60,-122 -20,-8 -33,-11 -53,-22z"/>
   <path class="fil1" d="M1368 5295c100,37 13,24 84,63 -8,85 2,37 15,48l97 262c24,47 3,7 33,45 41,51 53,108 93,149l19 15c2,2 7,5 11,7 -1,64 -2,19 19,28 -15,36 -24,33 13,21 -12,31 -18,27 15,18 -20,69 -5,20 18,30 -12,32 -18,27 14,18 -10,30 -16,25 15,17 -9,32 -13,22 23,22 -2,-34 8,-30 -23,-22 8,-31 15,-27 -15,-17 10,-33 17,-29 -14,-18 4,-56 9,-28 -18,-30 9,-32 16,-29 -15,-18 12,-36 22,-34 -13,-21 14,-54 15,-26 -19,-28 -8,-97 -202,-337 -226,-483l-27 5c2,-40 8,-25 -15,-48 -5,-59 -10,-63 -49,-101 -46,20 -12,-6 -35,38z"/>
   <path class="fil3" d="M2954 2121c-65,-12 -22,-6 -30,17 -46,9 -134,68 -161,115 -59,11 -16,-8 -58,23 -64,45 -29,21 -42,55 -59,19 -46,7 -57,56 -31,-11 -28,-19 -20,12 -32,-10 -30,-19 -20,13 -30,-10 -21,-12 -12,20 -30,-8 -24,-13 -15,18 -30,-8 -26,-15 -17,14 -33,-10 -31,-20 -21,12 -34,-11 -27,-15 -14,18 -27,-9 -20,-12 -16,17 -36,-10 -36,-20 -18,14 -34,-13 -25,-15 -13,19 -34,-12 -31,-20 -18,15 -35,-18 -24,-18 -13,19 -57,19 -17,-8 -57,41 -24,29 -29,34 -39,74 -32,-8 -25,-13 -13,18 -36,10 -12,-12 -34,15 -17,20 -12,18 -17,48 -33,5 -31,-23 -25,24 -32,-11 -20,-11 -10,22 -25,7 -22,-31 -22,26 -33,-10 -20,-12 -17,29 37,0 29,8 17,-29 26,-5 22,26 22,-26 32,9 22,10 10,-22 28,-6 18,30 25,-24l51 -63c30,10 22,13 13,-18 15,-11 10,-5 28,-22 1,-1 23,-23 24,-24 34,-37 29,-21 44,-69 31,5 24,10 13,-19 35,14 32,22 18,-15 37,15 28,17 13,-19 28,11 22,16 18,-14 34,10 29,16 16,-17 29,8 22,12 14,-18 32,10 30,19 21,-12 32,12 27,18 17,-14 31,8 25,13 15,-18 30,9 20,11 12,-20 30,7 28,16 20,-13 32,10 30,19 20,-12 17,-8 -1,16 33,-15 30,-28 15,2 24,-41 58,-11 75,-31 100,-78 52,-12 132,-67 161,-115 61,2 23,4 30,-17l35 -5c73,-7 -5,2 17,-24 39,12 31,20 31,-18 -41,-1 -40,-15 -31,18 -52,7 12,-19 -26,5 -27,16 -13,7 -26,24z"/>
   <path class="fil2" d="M1229 5461c-32,-11 -23,-13 -13,20 -26,3 -20,-23 -18,31 -26,-8 -16,-9 -10,21l-65 18 -7 73 -44 6c-24,88 -55,64 -68,142 -49,30 -62,34 -70,98l46 -46c24,-31 14,-8 24,-52 24,-15 11,-2 38,-31 11,-12 16,-22 28,-38 27,-35 32,-27 46,-79 21,-15 26,-14 46,-39 21,-28 14,-19 26,-52 29,5 20,8 10,-21 21,-12 26,31 18,-31 32,8 24,11 13,-20 33,-14 14,0 39,-27 9,-9 25,-34 35,-47 32,-42 44,-50 65,-92 23,-44 -11,-18 35,-38 39,38 44,42 49,101 23,23 17,8 15,48l27 -5c-16,-89 -16,-135 -91,-171 -69,24 -152,176 -174,231z"/>
   <path class="fil1" d="M3207 7115c-76,5 -44,24 -122,43 27,35 3,-19 11,26 0,2 -4,16 -6,21 -38,-10 -40,-25 -26,9 -34,-13 -30,-21 -18,14 -33,-11 -27,-17 -17,16 -31,-11 -26,-17 -17,15 -48,10 -66,18 -96,64 -33,12 -16,-1 -44,21 -37,31 -20,26 -27,38 -38,-12 -40,-26 -23,11 -37,-16 -31,-20 -16,17 -22,-13 -16,-15 -18,11 -61,14 -94,44 -131,96l-127 85c-2,2 -6,6 -8,8l-14 17c-1,-3 -5,6 -7,9 -51,5 -55,-9 -62,51 47,-18 14,1 42,-20 28,-22 6,-5 20,-31 60,-8 39,-14 93,-51 5,-3 39,-24 39,-24 30,-29 10,-4 24,-44 60,-6 105,-46 131,-96 34,9 38,21 18,-11 36,13 30,18 16,-17 35,13 33,24 23,-11 27,-4 13,13 48,-15 49,-38 7,-1 23,-44l46 -2c14,-17 18,-18 30,-33 19,-22 8,-8 20,-29 32,10 28,17 17,-15 33,11 28,17 17,-16 33,10 30,18 18,-14 35,12 33,24 26,-9 35,-7 42,-13 73,-38 18,-13 5,1 27,-23 20,-22 6,-9 17,-29 64,-10 18,29 31,-3 2,-5 10,1 14,-1 -2,-73 8,-20 -36,-40 -1,4 -1,9 -1,12 0,2 -1,9 -2,11 0,3 -4,16 -6,21z"/>
   <path class="fil1" d="M6959 5513c-6,55 -14,73 -52,106l-19 33c4,55 3,22 -18,30 13,33 22,31 -11,20l-5 29c10,32 9,19 -22,6 2,56 3,30 -30,57 -1,64 17,2 -24,68 -9,16 -21,33 -31,50l-82 104 3 27c-35,-11 -27,-15 -15,19 -32,-12 -24,-15 -15,18 -29,-9 -22,-13 -14,17 -30,-7 -24,-12 -16,17 -26,13 -5,-6 -31,16 -42,34 -30,55 -32,92l67 -9c10,7 7,10 34,16 5,1 23,3 30,4 27,2 68,2 95,3 -58,-38 -89,-36 -159,-23l-45 -24c12,-13 14,-9 26,-29 19,-34 9,-17 15,-46 29,7 24,12 16,-17 30,8 24,13 14,-17 33,9 27,14 15,-18 35,12 28,16 15,-19 3,-3 8,-10 10,-7l61 -84c122,-164 122,-182 196,-324l19 -30c0,-2 17,-27 24,-40 20,-39 22,-64 31,-106l-50 61z"/>
   <path class="fil3" d="M5866 6138c56,-20 15,6 64,-40l186 -202c3,-3 14,-12 18,-16 31,-26 -6,12 28,-21 2,-2 5,-6 7,-8 3,-2 5,-6 7,-8l135 -188c1,-3 4,-7 6,-10 49,-82 112,-156 148,-270 -31,23 -14,5 -34,27 -7,8 -16,22 -21,31 -60,107 -78,156 -156,262l-137 170c-3,2 -6,6 -8,8 -3,3 -6,6 -8,9 -73,83 -216,215 -235,256z"/>
   <path class="fil2" d="M2147 7707c-39,36 -45,60 -49,114 -3,42 4,83 12,126 61,-18 165,-95 203,-124l37 -30c91,-81 73,-31 105,-103 -66,23 -64,40 -122,87l-108 70c-52,37 -17,25 -86,45l8 -185z"/>
   <path class="fil1" d="M1190 3732c-38,4 7,-14 -43,9 -50,23 -28,17 -40,28 -69,5 -121,40 -175,65 -76,36 -141,48 -167,91 -61,-9 -28,-14 -41,18 85,3 28,2 41,-18 18,-3 137,-44 170,-57 70,-29 79,-50 161,-68l11 -31 150 -37 12 31c-3,5 -6,6 -7,14 -1,7 -4,9 -5,13l-13 129 31 0 2 -104 -8 -52 16 4 -11 -53 -56 2c7,37 12,26 -28,16z"/>
   <path class="fil2" d="M6128 6571c-34,-9 -35,-21 -23,11 -60,20 -58,17 -75,69 -74,18 -53,23 -103,58 -58,41 -90,20 -90,73 64,-19 169,-76 193,-131l29 3 46 -72c32,11 28,20 23,-11 95,-35 84,-77 104,117 6,57 1,61 30,103 3,-45 0,-138 -3,-153 -8,-58 -15,-35 -9,-121 -47,-2 -32,-10 -70,11 -44,25 -29,67 -43,35 -1,-3 -6,5 -9,8z"/>
   <path class="fil1" d="M5935 868c-16,21 -7,12 -26,31 -4,3 -15,13 -19,16 -26,26 -12,10 -30,37 -62,8 -10,-14 -62,30 -68,58 -129,88 -151,127 -75,22 -62,43 -133,82l-17 27c-28,53 8,5 -25,36l-43 30c31,-22 34,-26 61,-44l157 -131c51,-14 20,-2 65,-34 47,-34 -2,-6 65,-37 54,-26 58,-35 83,-86l49 -6c20,-59 15,-31 120,-104 2,-2 7,-4 10,-6l158 -133c-89,24 -176,141 -262,165z"/>
   <path class="fil3" d="M5895 1734c20,41 1,15 31,43l225 163c77,50 81,-33 85,-102 6,-107 28,-125 25,-241 -33,45 -28,63 -38,128 0,5 -5,30 -6,41 -5,49 -2,51 -5,84 -3,37 -5,57 -5,93l-50 -27c-2,-2 -6,-5 -9,-7l-186 -137c-3,-2 -6,-5 -9,-7l-58 -31z"/>
   <path class="fil2" d="M2153 854l-27 -271c53,16 72,31 98,73 57,12 48,-4 68,47l27 -6c-35,-66 -142,-88 -181,-152 -65,78 -36,44 -40,150 -3,95 -7,115 55,159z"/>
   <path class="fil2" d="M2773 1621c-58,67 -55,34 -110,79 -3,2 -7,5 -9,7 -24,22 -17,20 -29,37l477 -264c-72,18 -110,40 -181,74 -47,22 -114,59 -148,67z"/>
   <path class="fil2" d="M5514 1191c71,-39 58,-60 133,-82 22,-39 83,-69 151,-127 52,-44 0,-22 62,-30 18,-27 4,-11 30,-37 4,-3 15,-13 19,-16 19,-19 10,-10 26,-31 -92,23 -74,43 -160,111l-216 152c-41,29 -26,19 -45,60z"/>
   <path class="fil3" d="M8401 4294c114,-22 78,-30 95,-52 -37,-35 -368,-169 -390,-176 38,56 272,137 344,168 -24,40 -3,10 -27,39l-22 21z"/>
   <path class="fil1" d="M7066 5272l-20 99c-32,3 -22,-6 -28,52 25,-25 28,43 28,-52l35 -72c95,47 -3,26 86,58 12,67 28,62 65,111 38,50 34,77 99,100 -37,-51 -35,-63 -77,-106 -46,-47 -42,-33 -62,-100l-25 -5 1 -14c-54,-31 -43,-30 -70,-78l-32 7z"/>
   <path class="fil3" d="M6297 601l-2 21c-58,-2 -26,-7 -28,20 -33,-10 -30,-17 -18,15 -34,-11 -29,-18 -17,16 -35,-13 -29,-18 -17,17 -27,-11 -21,-16 -18,13 33,7 34,17 18,-13 35,11 29,17 17,-17 33,12 28,18 17,-16 32,12 27,18 18,-15 65,20 19,5 28,-20l52 -2 7 76c-17,15 -11,-15 -21,49 -4,35 0,60 2,92 24,-17 26,25 20,-32l-1 -109c20,-38 27,-63 13,-114l-70 19z"/>
   <path class="fil2" d="M6297 601l70 -19c14,51 7,76 -13,114l1 109c15,-25 -1,32 18,-35 94,-332 -50,-212 -76,-169z"/>
   <path class="fil1" d="M5369 7179c-3,-4 -7,-8 -10,-10 -25,-25 -82,-65 -29,-113 11,-10 98,-28 135,-31 51,-72 -45,29 16,-45 -114,51 -184,53 -230,110 37,62 56,65 118,89z"/>
   <path class="fil1" d="M4771 1215l-18 49 -104 -2c121,84 146,4 147,3 -4,-110 4,-21 -25,-50 3,-61 -1,-49 -39,-70 -2,58 -19,70 39,70z"/>
   <path class="fil1" d="M1805 2271c11,15 -4,16 35,23 60,10 28,2 65,-8 0,0 -3,18 17,31 -3,3 -6,3 -7,9l-36 50 39 -3 44 -98 -57 11c-25,-21 47,-9 -48,-21 -67,-9 -3,-3 -52,6l6 -25 -65 8c0,53 33,26 59,17z"/>
   <path class="fil2" d="M1905 2286l57 -11 -44 98 65 -24 3 -81 -82 -20c-50,-10 -48,-9 -93,-2l-6 25c49,-9 -15,-15 52,-6 95,12 23,0 48,21z"/>
   <path class="fil3" d="M166 4324c-3,-4 -7,-9 -9,-11 -50,-48 -59,-47 -133,-51l90 -73c-129,29 -98,38 -114,83l111 34c47,19 -6,2 55,18z"/>
   <path class="fil1" d="M2087 3035c-27,2 -31,-35 -15,33 -62,33 13,-53 -20,11 -14,28 -14,-32 -10,40 -28,2 -18,-32 -24,39 32,-19 45,29 24,-39 45,12 31,-21 30,-51 18,-10 23,42 15,-33 46,-27 51,-51 67,-106 -29,15 -27,-1 -52,39 -18,30 -12,32 -15,67z"/>
   <path class="fil1" d="M7504 2685l321 -440c-66,30 -86,122 -121,160 -87,93 30,-63 -81,96 -86,122 -90,81 -119,184z"/>
   <path class="fil2" d="M5315 1357c-28,-7 -24,-13 -17,14 -52,-3 -27,-15 -39,23 82,-9 19,4 39,-23 28,9 22,14 17,-14l41 -19 73 -54 43 -30c33,-31 -3,17 25,-36 -71,23 -41,20 -99,60 -17,13 -31,19 -49,34 -36,30 -22,19 -34,45z"/>
   <path class="fil3" d="M4169 179c-16,14 -8,-1 -26,26 -6,9 -11,21 -16,31 -20,47 -15,37 -22,87 45,-46 62,-82 64,-144 32,-32 40,-66 53,-114 -19,13 -25,2 -44,46 -13,30 -9,38 -9,68z"/>
   <path class="fil2" d="M1372 3193c-1,-2 -26,-22 -30,-25 -2,-2 -10,-2 -12,-8 -2,-6 -8,-5 -12,-8 11,44 14,53 43,80 42,39 21,29 92,23l25 -124c-99,109 81,72 -105,100l-1 -38z"/>
   <path class="fil2" d="M3187 1428l-53 50 74 -21c96,-33 50,-6 72,-79l-66 -25 35 63 -62 12z"/>
   <path class="fil2" d="M1756 2592l119 -128c20,-35 14,-17 20,-64 -52,25 -40,21 -73,77l-30 49c-2,4 -5,7 -7,11 -2,3 -5,7 -7,11l-14 28c-3,4 -5,10 -8,16z"/>
   <path class="fil1" d="M1890 6213c-37,-9 1,-13 -52,-5 -40,6 -28,8 -46,24 30,0 34,2 62,-2 36,-6 18,3 36,-17l58 -1c9,-36 26,43 4,-40 -10,-40 -38,-40 -56,-47l30 65 -36 23z"/>
   <path class="fil1" d="M6629 3530l-57 -185c-14,-24 -12,-16 -26,-30 5,62 9,53 26,108 6,20 6,31 13,48 27,66 11,30 44,59z"/>
   <path class="fil3" d="M1218 3716c-35,-11 -28,-20 -28,16 40,10 35,21 28,-16l56 -2 11 53 -16 -4 8 52c18,-16 26,22 8,-48 42,-41 21,-94 -30,-78 -79,24 -12,-5 -37,27z"/>
   <path class="fil3" d="M2284 6568l-38 274 38 -274c30,-12 15,7 26,-14 -1,25 -6,20 19,13 -5,27 -10,21 17,17 -5,26 -10,21 16,16l26 5 24 11c-3,39 12,30 41,36 7,24 0,20 24,10 -13,35 -20,31 15,18 -10,32 -12,20 28,20 0,-39 9,-33 -28,-20 8,-32 16,-28 -15,-18 19,-34 15,-19 -24,-10l-41 -36c10,-35 12,-24 -24,-11l2 -18 -28 13 4 -20 -20 4c5,-29 12,-25 -17,-17l-19 -13c-1,-57 -21,-11 -26,14z"/>
   <path class="fil1" d="M3187 1428l-56 -1c-25,30 -5,5 -28,47l31 4 53 -50 62 -12 -35 -63 -26 1c19,44 -22,11 28,43l-29 31z"/>
   <path class="fil3" d="M4215 52c40,-11 17,-11 53,-2 -10,60 -8,25 16,32 -6,56 -7,25 17,32 -10,62 -10,25 21,41 -2,-81 4,-31 -21,-41 12,-68 5,-24 -17,-32 11,-68 5,-24 -16,-32 -5,-61 13,-28 -33,-50l-20 52z"/>
   <path class="fil3" d="M7842 6358c19,12 1,8 34,16 13,3 32,-1 46,-2 -5,-65 -25,-77 -81,-109l28 42c2,3 6,6 8,9l13 24c1,-2 1,5 2,7l-50 13z"/>
   <path class="fil1" d="M5315 1357c5,28 11,23 -17,14 -20,27 43,14 -39,23 -8,47 38,46 84,56 -3,-4 -8,-10 -10,-13l-31 -43c22,-30 26,-34 54,-56l-41 19z"/>
   <path class="fil3" d="M4440 444l-1 52c15,16 18,8 39,17 -6,-69 9,-58 -38,-69 9,-37 19,-31 -14,-31 -5,44 -20,45 14,31z"/>
   <path class="fil3" d="M297 4118c52,-11 36,-11 91,-19 11,-10 14,-31 17,-37 -41,6 -40,-1 -78,28l-30 28z"/>
   <path class="fil2" d="M855 5965c49,-25 49,-22 70,-85 -60,18 -29,-14 -45,36 -35,24 -10,-17 -25,49z"/>
   <path class="fil3" d="M7838 2224c38,-23 66,-37 83,-98l-53 -4c7,13 13,34 18,46 -16,17 -31,26 -48,56z"/>
   <path class="fil3" d="M2991 6397c-18,-36 -10,-52 -76,-55 24,55 5,36 76,55z"/>
   <path class="fil1" d="M3103 2050c62,-11 60,-1 92,-56 -27,8 -38,7 -57,19 -65,40 -4,-4 -35,37z"/>
   <path class="fil3" d="M2263 5743c-16,-54 -8,-74 -92,-127l92 127z"/>
   <path class="fil1" d="M6040 7664c-24,-32 -45,-45 -69,-61 -8,-6 -38,-26 -39,-27 -39,-24 -4,-6 -48,-24 3,3 6,8 8,10l148 102z"/>
   <path class="fil3" d="M6536 3267c0,-56 7,-12 -8,-35 -21,-33 -2,-14 -32,-34l9 44c5,60 -3,-4 31,25z"/>
   <path class="fil3" d="M7075 5255l-9 17 32 -7c27,48 16,47 70,78 -16,-26 -23,-32 -39,-48 -1,-1 -24,-23 -24,-23 -20,-25 -4,-2 -18,-32 17,19 15,8 -12,15z"/>
   <path class="fil1" d="M5357 2032c0,-32 8,-25 -22,-25l-40 -15 10 27 52 13z"/>
  </g>
 </g>
</svg>
