<?xml version="1.0" encoding="UTF-8"?>
<!DOCTYPE svg PUBLIC "-//W3C//DTD SVG 1.1//EN" "http://www.w3.org/Graphics/SVG/1.1/DTD/svg11.dtd">
<!-- Creator: CorelDRAW X7 -->
<svg xmlns="http://www.w3.org/2000/svg" xml:space="preserve" width="22.2639in" height="15.2772in" version="1.1" style="shape-rendering:geometricPrecision; text-rendering:geometricPrecision; image-rendering:optimizeQuality; fill-rule:evenodd; clip-rule:evenodd"
viewBox="0 0 3394 2329"
 xmlns:xlink="http://www.w3.org/1999/xlink">
 <defs>
  <style type="text/css">
   <![CDATA[
    .fil0 {fill:#1D2D42}
    .fil2 {fill:#6695B2}
    .fil5 {fill:#81ABC3}
    .fil3 {fill:#9CBBCF}
    .fil4 {fill:#B2D2E3}
    .fil6 {fill:#D6E8EF}
    .fil1 {fill:#F3F4F4}
   ]]>
  </style>
 </defs>
 <g id="Layer_x0020_1">
  <metadata id="CorelCorpID_0Corel-Layer"/>
  <g id="_326131800">
   <path class="fil0" d="M1605 1481l-5 0 0 5 -5 0 0 15 -5 0 0 92 5 0 0 21 5 0 0 15 5 0 0 5 5 0 0 10 5 0 0 6 5 0 0 10 5 0 0 5 5 0 0 5 6 0 0 10 5 0 0 56 5 0 0 16 -5 0 0 -11 -5 0 0 -10 -6 0 0 -10 -5 0 0 -10 -5 0 0 -10 -5 0 0 -5 -5 0 0 -11 -5 0 0 -10 -5 0 0 -5 -5 0 0 -5 -5 0 0 -5 -6 0 0 -10 -5 0 0 -6 -5 0 0 -5 -5 0 0 -5 -5 0 0 -5 -10 0 0 -5 -5 0 0 -5 -5 0 0 -5 -11 0 0 -5 -10 0 0 -5 -5 0 0 -5 -15 0 0 -6 -16 0 0 -5 -41 0 0 5 -5 0 0 46 5 0 0 21 6 0 0 15 5 0 0 15 5 0 0 11 5 0 0 10 5 0 0 10 5 0 0 5 5 0 0 10 5 0 0 5 5 0 0 11 6 0 0 5 5 0 0 5 5 0 0 5 5 0 0 5 5 0 0 5 5 0 0 5 10 0 0 5 5 0 0 6 11 0 0 5 10 0 0 5 10 0 0 5 15 0 0 5 16 0 0 5 25 0 0 5 11 0 0 5 5 0 0 5 5 0 0 133 5 0 0 153 -5 0 0 -5 -5 0 0 -10 -5 0 0 -10 -6 0 0 -5 -5 0 0 -5 -5 0 0 -11 -5 0 0 -5 -5 0 0 -5 -10 0 0 -5 -5 0 0 -5 -11 0 0 -5 -10 0 0 -5 -61 0 0 5 -10 0 0 5 -5 0 0 5 -6 0 0 5 -5 0 0 5 -5 0 0 21 5 0 0 5 5 0 0 5 6 0 0 5 5 0 0 5 5 0 0 5 5 0 0 5 5 0 0 6 5 0 0 5 5 0 0 5 -10 0 0 -5 -5 0 0 -5 -10 0 0 -6 -11 0 0 -5 -10 0 0 -5 -5 0 0 -5 -10 0 0 -5 -5 0 0 -5 -10 0 0 -5 -6 0 0 -5 -5 0 0 -5 -5 0 0 -6 -10 0 0 -5 -5 0 0 -5 -5 0 0 -5 -5 0 0 -5 -5 0 0 -5 -6 0 0 -5 -5 0 0 -10 -5 0 0 -6 -5 0 0 -5 -5 0 0 -5 -5 0 0 -5 -5 0 0 -10 -5 0 0 -5 -5 0 0 -10 -6 0 0 -5 -5 0 0 -11 -5 0 0 -5 -5 0 0 -10 -5 0 0 -10 -5 0 0 -10 -5 0 0 -16 -5 0 0 -10 -5 0 0 -15 -6 0 0 -11 -5 0 0 -20 -5 0 0 -31 -5 0 0 -117 5 0 0 -31 5 0 0 -20 5 0 0 -15 6 0 0 -16 5 0 0 -15 5 0 0 -10 5 0 0 -16 5 0 0 -10 5 0 0 -10 5 0 0 -5 5 0 0 -10 5 0 0 -11 6 0 0 -5 5 0 0 -10 5 0 0 -5 5 0 0 -5 5 0 0 -5 5 0 0 -5 5 0 0 -5 5 0 0 -11 5 0 0 -5 6 0 0 -5 10 0 0 -5 5 0 0 -5 5 0 0 -5 5 0 0 -5 10 0 0 -5 5 0 0 -5 6 0 0 -6 10 0 0 -5 5 0 0 -5 10 0 0 -5 10 0 0 -5 11 0 0 -5 5 0 0 -5 15 0 0 -5 10 0 0 -5 10 0 0 -6 16 0 0 -5 15 0 0 -5 26 0 0 -5 20 0 0 -5 26 0 0 -5 87 0 0 5 35 0 0 5 26 0 0 5 25 0 0 5 11 0 0 5 15 0 0 6 10 0 0 5 10 0 0 5 11 0 0 5 10 0 0 5 5 0 0 5 10 0 0 5 5 0 0 5 11 0 0 5 5 0 0 6 10 0 0 5 5 0 0 5 5 0 0 5 5 0 0 5 10 0 0 5 6 0 0 5 5 0 0 5 5 0 0 5 5 0 0 5 5 0 0 6 5 0 0 5 5 0 0 5 5 0 0 5 5 0 0 5 6 0 0 10 5 0 0 5 5 0 0 5 5 0 0 11 5 0 0 10 5 0 0 5 5 0 0 10 5 0 0 10 5 0 0 11 6 0 0 10 5 0 0 15 5 0 0 15 5 0 0 11 5 0 0 20 5 0 0 31 5 0 0 25 5 0 0 82 -5 0 0 36 -5 0 0 30 -5 0 0 11 -5 0 0 20 -5 0 0 15 -5 0 0 11 -5 0 0 10 -6 0 0 10 -5 0 0 10 -5 0 0 10 -5 0 0 6 -5 0 0 10 -5 0 0 5 -5 0 0 10 -5 0 0 5 -5 0 0 5 -6 0 0 10 -5 0 0 6 -5 0 0 5 -5 0 0 5 -5 0 0 5 -5 0 0 5 -5 0 0 5 -5 0 0 5 -5 0 0 5 -6 0 0 5 -5 0 0 6 -5 0 0 5 -5 0 0 5 -10 0 0 5 -5 0 0 5 -5 0 0 5 -11 0 0 5 -5 0 0 5 -10 0 0 5 -10 0 0 6 -10 0 0 5 -11 0 0 5 -10 0 0 5 -10 0 0 5 -15 0 0 5 -11 0 0 -5 6 0 0 -10 5 0 0 -21 -5 0 0 -10 -11 0 0 -5 -15 0 0 -5 -26 0 0 5 -25 0 0 5 -5 0 0 5 -10 0 0 5 -11 0 0 5 -5 0 0 6 -5 0 0 5 -5 0 0 5 -5 0 0 5 -5 0 0 5 -10 0 0 -5 -6 0 0 -82 6 0 0 -153 5 0 0 -5 5 0 0 -10 5 0 0 -11 5 0 0 -5 5 0 0 -5 5 0 0 -5 5 0 0 -5 11 0 0 -5 10 0 0 -5 10 0 0 -5 10 0 0 -5 10 0 0 -6 11 0 0 -5 10 0 0 -5 5 0 0 -5 10 0 0 -5 5 0 0 -5 5 0 0 -5 6 0 0 -5 5 0 0 -5 5 0 0 -6 5 0 0 -5 5 0 0 -10 5 0 0 -10 5 0 0 -10 5 0 0 -11 5 0 0 -10 6 0 0 -15 5 0 0 -66 -31 0 0 5 -26 0 0 5 -15 0 0 5 -10 0 0 5 -10 0 0 5 -5 0 0 5 -11 0 0 5 -5 0 0 5 -5 0 0 6 -5 0 0 5 -5 0 0 5 -5 0 0 10 -5 0 0 5 -5 0 0 5 -6 0 0 10 -5 0 0 11 -5 0 0 10 -5 0 0 10 -5 0 0 15 -5 0 0 11 -5 0 0 15 -5 0 0 10 -5 0 0 15 -6 0 0 -86 -5 0 0 -77 5 0 0 -10 6 0 0 -10 5 0 0 -11 5 0 0 -71 -5 0 0 -21 -5 0 0 -15 -6 0 0 -10 -5 0 0 -10 -5 0 0 -5 -5 0 0 -6 -5 0 0 -5 -5 0 0 -5 -5 0 0 -5 -5 0 0 -5 -11 0 0 -5 -10 0 0 -5 -15 0 0 10zm-31 746l5 0 0 10 5 0 0 5 6 0 0 5 10 0 0 5 5 0 0 5 15 0 0 5 21 0 0 6 81 0 0 -6 21 0 0 -5 15 0 0 -5 10 0 0 -5 11 0 0 -5 5 0 0 -5 10 0 0 -5 5 0 0 -5 10 0 0 -5 11 0 0 -6 15 0 0 -5 15 0 0 -5 10 0 0 -5 16 0 0 -5 10 0 0 -5 10 0 0 -5 10 0 0 -5 11 0 0 -5 5 0 0 -6 10 0 0 -5 10 0 0 -5 5 0 0 -5 11 0 0 -5 5 0 0 -5 5 0 0 -5 10 0 0 -5 5 0 0 -5 5 0 0 -5 5 0 0 -6 5 0 0 -5 6 0 0 -5 10 0 0 -5 5 0 0 -10 5 0 0 -5 5 0 0 -5 5 0 0 -5 5 0 0 -6 5 0 0 -5 6 0 0 -5 5 0 0 -10 5 0 0 -5 5 0 0 -5 5 0 0 -10 5 0 0 -6 5 0 0 -10 5 0 0 -5 5 0 0 -10 6 0 0 -10 5 0 0 -10 5 0 0 -11 5 0 0 -10 5 0 0 -15 5 0 0 -16 5 0 0 -10 5 0 0 -25 5 0 0 -16 6 0 0 -25 5 0 0 -143 -5 0 0 -31 -6 0 0 -20 -5 0 0 -21 -5 0 0 -15 -5 0 0 -15 -5 0 0 -10 -5 0 0 -16 -5 0 0 -10 -5 0 0 -10 -5 0 0 -10 -6 0 0 -11 -5 0 0 -5 -5 0 0 -10 -5 0 0 -10 -5 0 0 -5 -5 0 0 -5 -5 0 0 -11 -5 0 0 -5 -5 0 0 -5 -6 0 0 -10 -5 0 0 -5 -5 0 0 -5 -5 0 0 -10 5 0 0 -11 5 0 0 -25 -5 0 0 -10 -5 0 0 -6 -10 0 0 -5 -31 0 0 5 -5 0 0 6 -10 0 0 -6 -10 0 0 -5 -5 0 0 -5 -11 0 0 -5 -10 0 0 -5 -5 0 0 -5 -10 0 0 -5 -5 0 0 -5 -11 0 0 -5 -10 0 0 -6 -10 0 0 -5 -15 0 0 -5 -11 0 0 -5 -10 0 0 -5 -20 0 0 -5 -16 0 0 -5 -20 0 0 -5 -31 0 0 -5 -15 0 0 -5 -5 0 0 -11 -5 0 0 -10 -5 0 0 -10 -5 0 0 -5 -11 0 0 -5 -10 0 0 -5 -36 0 0 5 -15 0 0 5 -5 0 0 5 -5 0 0 5 -5 0 0 10 -5 0 0 10 -6 0 0 11 -30 0 0 5 -21 0 0 5 -15 0 0 5 -20 0 0 5 -16 0 0 5 -10 0 0 5 -10 0 0 5 -16 0 0 5 -10 0 0 6 -10 0 0 5 -10 0 0 5 -5 0 0 5 -11 0 0 5 -10 0 0 5 -5 0 0 5 -10 0 0 5 -5 0 0 5 -10 0 0 6 -11 0 0 -6 -10 0 0 -5 -31 0 0 5 -5 0 0 6 -5 0 0 10 -5 0 0 30 5 0 0 11 -5 0 0 10 -5 0 0 5 -5 0 0 5 -5 0 0 10 -5 0 0 5 -5 0 0 5 -6 0 0 11 -5 0 0 5 -5 0 0 10 -5 0 0 10 -5 0 0 5 -5 0 0 11 -5 0 0 10 -5 0 0 10 -5 0 0 15 -6 0 0 11 -5 0 0 10 -5 0 0 15 -5 0 0 20 -5 0 0 16 -5 0 0 30 -5 0 0 36 -5 0 0 113 5 0 0 25 5 0 0 20 5 0 0 16 5 0 0 20 5 0 0 10 5 0 0 16 5 0 0 10 6 0 0 15 5 0 0 11 5 0 0 10 5 0 0 5 5 0 0 10 5 0 0 10 5 0 0 5 5 0 0 11 5 0 0 5 6 0 0 10 5 0 0 5 5 0 0 5 5 0 0 5 5 0 0 5 5 0 0 5 5 0 0 11 5 0 0 5 5 0 0 5 6 0 0 5 5 0 0 5 5 0 0 5 5 0 0 5 5 0 0 5 5 0 0 6 10 0 0 5 5 0 0 5 6 0 0 5 5 0 0 5 5 0 0 5 10 0 0 5 5 0 0 5 10 0 0 5 5 0 0 5 11 0 0 6 10 0 0 5 10 0 0 5 10 0 0 5 11 0 0 5 10 0 0 5 10 0 0 5 15 0 0 5 16 0 0 5 10 0 0 6 15 0 0 5z"/>
   <polygon class="fil1" points="2520,5 2499,5 2499,10 2489,10 2489,15 2474,15 2474,20 2464,20 2464,26 2458,26 2458,31 2448,31 2448,36 2438,36 2438,41 2433,41 2433,46 2428,46 2428,51 2423,51 2423,56 2418,56 2418,61 2407,61 2407,66 2402,66 2402,77 2397,77 2397,82 2392,82 2392,87 2387,87 2387,92 2382,92 2382,102 2377,102 2377,107 2372,107 2372,117 2366,117 2366,128 2361,128 2361,138 2356,138 2356,148 2351,148 2351,169 2346,169 2346,179 2341,179 2341,214 2336,214 2336,250 2341,250 2341,281 2346,281 2346,291 2351,291 2351,312 2356,312 2356,322 2361,322 2361,332 2366,332 2366,342 2372,342 2372,347 2377,347 2377,357 2382,357 2382,363 2387,363 2387,368 2392,368 2392,378 2341,378 2341,383 2331,383 2331,388 2315,388 2315,393 2310,393 2310,398 2300,398 2300,403 2295,403 2295,409 2290,409 2290,414 2285,414 2285,419 2280,419 2280,424 2274,424 2274,434 2269,434 2269,444 2264,444 2264,449 2259,449 2259,439 2249,439 2249,434 2244,434 2244,429 2234,429 2234,424 2218,424 2218,419 2172,419 2172,424 2157,424 2157,429 2152,429 2152,434 2142,434 2142,439 2136,439 2136,444 2126,444 2126,455 2121,455 2121,460 2116,460 2116,470 2111,470 2111,480 2106,480 2106,511 2780,511 2780,506 2786,506 2786,500 2791,500 2791,470 2786,470 2786,465 2780,465 2780,455 2775,455 2775,449 2770,449 2770,444 2760,444 2760,439 2755,439 2755,434 2745,434 2745,429 2734,429 2734,424 2724,424 2724,419 2714,419 2714,414 2699,414 2699,403 2704,403 2704,398 2709,398 2709,388 2714,388 2714,383 2719,383 2719,373 2724,373 2724,363 2729,363 2729,347 2734,347 2734,337 2740,337 2740,322 2745,322 2745,301 2750,301 2750,260 3184,260 3184,255 3194,255 3194,250 3200,250 3200,225 3194,225 3194,214 3189,214 3189,204 3184,204 3184,199 3179,199 3179,194 3174,194 3174,184 3169,184 3169,179 3164,179 3164,174 3159,174 3159,169 3154,169 3154,163 3148,163 3148,158 3143,158 3143,153 3138,153 3138,148 3133,148 3133,143 3128,143 3128,138 3118,138 3118,133 3113,133 3113,128 3108,128 3108,123 3102,123 3102,117 3097,117 3097,112 3087,112 3087,107 3082,107 3082,102 3077,102 3077,97 3067,97 3067,92 3056,92 3056,87 3046,87 3046,82 3041,82 3041,77 3031,77 3031,71 3016,71 3016,66 2995,66 2995,61 2980,61 2980,56 2954,56 2954,51 2898,51 2898,56 2878,56 2878,61 2862,61 2862,66 2852,66 2852,71 2842,71 2842,77 2832,77 2832,82 2826,82 2826,87 2821,87 2821,92 2816,92 2816,97 2806,97 2806,102 2801,102 2801,107 2796,107 2796,112 2791,112 2791,117 2786,117 2786,123 2780,123 2780,133 2775,133 2775,138 2765,138 2765,128 2760,128 2760,117 2755,117 2755,112 2750,112 2750,102 2745,102 2745,97 2740,97 2740,87 2734,87 2734,82 2729,82 2729,77 2724,77 2724,71 2719,71 2719,66 2714,66 2714,61 2709,61 2709,56 2704,56 2704,51 2694,51 2694,46 2688,46 2688,41 2683,41 2683,36 2673,36 2673,31 2663,31 2663,26 2658,26 2658,20 2648,20 2648,15 2632,15 2632,10 2622,10 2622,5 2602,5 2602,0 2520,0 "/>
   <polygon class="fil1" points="1498,490 1487,490 1487,495 1472,495 1472,500 1462,500 1462,506 1452,506 1452,511 1441,511 1441,516 1431,516 1431,521 1421,521 1421,526 1416,526 1416,531 1406,531 1406,536 1395,536 1395,541 1390,541 1390,546 1380,546 1380,552 1370,552 1370,557 1365,557 1365,562 1354,562 1354,567 1349,567 1349,572 1339,572 1339,577 1334,577 1334,582 1324,582 1324,587 1319,587 1319,592 1308,592 1308,598 1303,598 1303,603 1298,603 1298,608 1288,608 1288,613 1283,613 1283,618 1273,618 1273,623 1268,623 1268,628 1262,628 1262,633 1252,633 1252,638 1247,638 1247,643 1237,643 1237,649 1232,649 1232,654 1227,654 1227,659 1216,659 1216,664 1211,664 1211,669 1206,669 1206,674 1196,674 1196,679 1191,679 1191,684 1181,684 1181,689 1176,689 1176,695 1170,695 1170,700 1165,700 1165,705 1155,705 1155,710 1150,710 1150,715 1145,715 1145,720 1140,720 1140,725 1135,725 1135,730 1124,730 1124,735 1119,735 1119,741 1114,741 1114,746 1104,746 1104,751 1099,751 1099,756 1094,756 1094,761 1089,761 1089,766 1084,766 1084,771 1073,771 1073,776 1068,776 1068,781 1063,781 1063,786 1058,786 1058,792 1048,792 1048,797 1043,797 1043,802 1038,802 1038,807 1032,807 1032,812 1027,812 1027,817 1017,817 1017,822 1012,822 1012,827 1007,827 1007,832 1002,832 1002,838 997,838 997,843 986,843 986,848 981,848 981,853 976,853 976,858 971,858 971,863 961,863 961,868 956,868 956,873 951,873 951,878 946,878 946,884 940,884 940,889 930,889 930,894 925,894 925,899 920,899 920,904 915,904 915,909 905,909 905,914 900,914 900,919 894,919 894,924 889,924 889,929 884,929 884,935 874,935 874,940 869,940 869,945 864,945 864,950 859,950 859,955 854,955 854,960 843,960 843,970 848,970 848,975 981,975 981,970 1022,970 1022,965 1089,965 1089,960 1150,960 1150,955 1170,955 1170,950 1216,950 1216,945 1237,945 1237,940 1257,940 1257,935 1283,935 1283,929 1303,929 1303,924 1314,924 1314,919 1329,919 1329,914 1344,914 1344,909 1365,909 1365,904 1375,904 1375,899 1390,899 1390,894 1400,894 1400,889 1416,889 1416,884 1426,884 1426,878 1436,878 1436,873 1452,873 1452,868 1462,868 1462,863 1472,863 1472,858 1477,858 1477,853 1498,853 1498,848 1508,848 1508,843 1518,843 1518,838 1533,838 1533,832 1544,832 1544,827 1600,827 1600,832 1615,832 1615,838 1620,838 1620,843 1630,843 1630,848 1636,848 1636,853 1641,853 1641,858 1646,858 1646,863 1651,863 1651,868 1656,868 1656,873 1661,873 1661,878 1666,878 1666,884 1671,884 1671,894 1676,894 1676,899 1682,899 1682,904 1687,904 1687,914 1692,914 1692,919 1697,919 1697,924 1702,924 1702,935 1707,935 1707,940 1712,940 1712,945 1717,945 1717,955 1722,955 1722,960 1728,960 1728,965 1733,965 1733,970 1738,970 1738,981 1743,981 1743,986 1748,986 1748,996 1753,996 1753,1001 1758,1001 1758,1006 1763,1006 1763,1016 1768,1016 1768,1021 1774,1021 1774,1027 1779,1027 1779,1037 1784,1037 1784,1042 1789,1042 1789,1047 1794,1047 1794,1057 1799,1057 1799,1062 1804,1062 1804,1072 1809,1072 1809,1078 1814,1078 1814,1083 1820,1083 1820,1093 1825,1093 1825,1098 1830,1098 1830,1103 1835,1103 1835,1113 1840,1113 1840,1118 1845,1118 1845,1124 1850,1124 1850,1134 1855,1134 1855,1139 1860,1139 1860,1144 1866,1144 1866,1154 1871,1154 1871,1159 1876,1159 1876,1164 1881,1164 1881,1175 1886,1175 1886,1180 1891,1180 1891,1185 1896,1185 1896,1195 1901,1195 1901,1200 1906,1200 1906,1205 1912,1205 1912,1215 1917,1215 1917,1221 1922,1221 1922,1226 1927,1226 1927,1231 1932,1231 1932,1241 1937,1241 1937,1246 1942,1246 1942,1256 1947,1256 1947,1261 1952,1261 1952,1267 1958,1267 1958,1272 1963,1272 1963,1282 1968,1282 1968,1287 1973,1287 1973,1292 1978,1292 1978,1302 1983,1302 1983,1307 1988,1307 1988,1313 1993,1313 1993,1323 1998,1323 1998,1328 2004,1328 2004,1333 2009,1333 2009,1343 2014,1343 2014,1348 2019,1348 2019,1353 2024,1353 2024,1358 2034,1358 2034,1348 2039,1348 2039,1358 2055,1358 2055,1364 2060,1364 2060,1358 2065,1358 2065,1353 2060,1353 2060,1343 2065,1343 2065,1328 2060,1328 2060,1318 2055,1318 2055,1313 2050,1313 2050,1302 2044,1302 2044,1292 2039,1292 2039,1282 2034,1282 2034,1272 2029,1272 2029,1261 2024,1261 2024,1251 2019,1251 2019,1241 2014,1241 2014,1231 2009,1231 2009,1226 2004,1226 2004,1215 1998,1215 1998,1205 1993,1205 1993,1195 1988,1195 1988,1185 1983,1185 1983,1175 1978,1175 1978,1164 1973,1164 1973,1159 1968,1159 1968,1149 1963,1149 1963,1139 1958,1139 1958,1129 1952,1129 1952,1118 1947,1118 1947,1108 1942,1108 1942,1098 1937,1098 1937,1093 1932,1093 1932,1083 1927,1083 1927,1072 1922,1072 1922,1062 1917,1062 1917,1052 1912,1052 1912,1042 1906,1042 1906,1032 1901,1032 1901,1027 1896,1027 1896,1016 1891,1016 1891,1006 1886,1006 1886,996 1881,996 1881,986 1876,986 1876,975 1871,975 1871,965 1866,965 1866,960 1860,960 1860,950 1855,950 1855,940 1850,940 1850,929 1845,929 1845,919 1840,919 1840,909 1835,909 1835,904 1830,904 1830,894 1825,894 1825,884 1820,884 1820,873 1814,873 1814,863 1809,863 1809,853 1804,853 1804,843 1799,843 1799,832 1794,832 1794,827 1789,827 1789,817 1784,817 1784,807 1779,807 1779,797 1774,797 1774,786 1768,786 1768,781 1763,781 1763,771 1758,771 1758,761 1753,761 1753,751 1748,751 1748,741 1743,741 1743,735 1738,735 1738,725 1733,725 1733,715 1728,715 1728,705 1722,705 1722,695 1717,695 1717,689 1712,689 1712,679 1707,679 1707,669 1702,669 1702,659 1697,659 1697,654 1692,654 1692,643 1687,643 1687,633 1682,633 1682,628 1676,628 1676,618 1671,618 1671,608 1666,608 1666,603 1661,603 1661,592 1656,592 1656,587 1651,587 1651,577 1646,577 1646,572 1641,572 1641,562 1636,562 1636,557 1630,557 1630,552 1625,552 1625,541 1620,541 1620,536 1615,536 1615,531 1610,531 1610,526 1605,526 1605,521 1600,521 1600,516 1595,516 1595,511 1590,511 1590,506 1579,506 1579,500 1574,500 1574,495 1564,495 1564,490 1544,490 1544,485 1498,485 "/>
   <polygon class="fil2" points="2985,2222 2985,2247 2980,2247 2980,2252 2970,2252 2970,2257 2954,2257 2954,2262 2872,2262 2872,2257 2862,2257 2862,2252 2857,2252 2857,2247 2847,2247 2847,2232 2586,2232 2586,2227 1814,2227 1814,2232 1804,2232 1804,2227 1799,2227 1799,2232 1794,2232 1794,2237 1784,2237 1784,2242 1779,2242 1779,2247 1768,2247 1768,2252 1758,2252 1758,2257 1743,2257 1743,2262 1722,2262 1722,2268 1641,2268 1641,2262 1620,2262 1620,2257 1605,2257 1605,2252 1600,2252 1600,2247 1590,2247 1590,2242 1584,2242 1584,2237 1579,2237 1579,2227 1574,2227 1574,2232 1569,2232 1569,2227 828,2227 828,2222 823,2222 823,2242 818,2242 818,2252 808,2252 808,2257 716,2257 716,2252 705,2252 705,2247 695,2247 695,2237 690,2237 690,2222 685,2222 685,2232 532,2232 532,2237 388,2237 388,2242 240,2242 240,2247 179,2247 179,2252 77,2252 77,2257 46,2257 46,2262 15,2262 15,2268 0,2268 0,2273 5,2273 5,2278 20,2278 20,2283 46,2283 46,2288 97,2288 97,2293 169,2293 169,2298 240,2298 240,2303 404,2303 404,2308 501,2308 501,2313 695,2313 695,2319 915,2319 915,2324 1216,2324 1216,2329 2096,2329 2096,2324 2453,2324 2453,2319 2683,2319 2683,2313 2878,2313 2878,2308 3005,2308 3005,2303 3174,2303 3174,2298 3235,2298 3235,2293 3302,2293 3302,2288 3348,2288 3348,2283 3378,2283 3378,2278 3394,2278 3394,2273 3384,2273 3384,2268 3363,2268 3363,2262 3312,2262 3312,2257 3302,2257 3302,2252 3205,2252 3205,2247 3108,2247 3108,2242 3000,2242 3000,2232 2995,2232 2995,2242 2990,2242 2990,2222 "/>
   <polygon class="fil0" points="486,1256 486,1261 480,1261 480,1267 475,1267 475,1272 470,1272 470,1282 465,1282 465,1307 460,1307 460,1328 455,1328 455,1343 450,1343 450,1364 445,1364 445,1379 440,1379 440,1399 434,1399 434,1415 429,1415 429,1430 424,1430 424,1450 419,1450 419,1466 414,1466 414,1476 409,1476 409,1491 404,1491 404,1507 399,1507 399,1522 394,1522 394,1532 388,1532 388,1547 383,1547 383,1558 378,1558 378,1568 373,1568 373,1583 368,1583 368,1593 363,1593 363,1604 358,1604 358,1614 353,1614 353,1624 348,1624 348,1634 342,1634 342,1644 337,1644 337,1655 332,1655 332,1665 327,1665 327,1675 322,1675 322,1680 317,1680 317,1685 307,1685 307,1690 271,1690 271,1696 250,1696 250,1701 235,1701 235,1706 230,1706 230,1711 225,1711 225,1716 220,1716 220,1721 215,1721 215,1726 210,1726 210,1731 204,1731 204,1747 199,1747 199,1772 204,1772 204,1787 210,1787 210,1798 215,1798 215,1803 220,1803 220,1808 225,1808 225,1813 230,1813 230,1818 240,1818 240,1823 256,1823 256,1828 286,1828 286,1823 302,1823 302,1818 307,1818 307,1813 317,1813 317,1808 322,1808 322,1803 327,1803 327,1793 332,1793 332,1787 368,1787 368,1793 378,1793 378,1798 388,1798 388,1803 399,1803 399,1808 414,1808 414,1813 429,1813 429,1818 445,1818 445,1823 460,1823 460,1828 480,1828 480,1833 501,1833 501,1839 542,1839 542,1844 578,1844 578,1849 710,1849 710,2196 705,2196 705,2201 700,2201 700,2206 695,2206 695,2211 690,2211 690,2237 695,2237 695,2247 705,2247 705,2252 716,2252 716,2257 808,2257 808,2252 818,2252 818,2242 823,2242 823,2216 818,2216 818,2211 813,2211 813,2206 808,2206 808,2201 802,2201 802,2196 797,2196 797,1828 808,1828 808,1823 823,1823 823,1818 833,1818 833,1813 843,1813 843,1808 854,1808 854,1803 864,1803 864,1798 874,1798 874,1793 879,1793 879,1787 889,1787 889,1782 894,1782 894,1777 905,1777 905,1772 910,1772 910,1767 915,1767 915,1762 920,1762 920,1757 925,1757 925,1752 930,1752 930,1747 935,1747 935,1741 940,1741 940,1731 946,1731 946,1726 951,1726 951,1711 956,1711 956,1670 951,1670 951,1665 946,1665 946,1660 935,1660 935,1655 905,1655 905,1660 900,1660 900,1665 894,1665 894,1670 889,1670 889,1675 884,1675 884,1685 879,1685 879,1690 874,1690 874,1696 869,1696 869,1701 864,1701 864,1706 859,1706 859,1711 854,1711 854,1716 848,1716 848,1721 838,1721 838,1726 833,1726 833,1731 823,1731 823,1736 808,1736 808,1741 797,1741 797,1292 802,1292 802,1246 797,1246 797,1231 792,1231 792,1226 787,1226 787,1221 782,1221 782,1215 772,1215 772,1210 736,1210 736,1215 731,1215 731,1221 726,1221 726,1226 721,1226 721,1231 716,1231 716,1323 710,1323 710,1762 705,1762 705,1767 695,1767 695,1772 578,1772 578,1767 532,1767 532,1762 511,1762 511,1757 486,1757 486,1752 470,1752 470,1747 455,1747 455,1741 445,1741 445,1736 429,1736 429,1731 419,1731 419,1726 409,1726 409,1721 399,1721 399,1716 394,1716 394,1711 399,1711 399,1701 404,1701 404,1690 409,1690 409,1680 414,1680 414,1670 419,1670 419,1660 424,1660 424,1650 429,1650 429,1634 434,1634 434,1624 440,1624 440,1614 445,1614 445,1599 450,1599 450,1588 455,1588 455,1573 460,1573 460,1563 465,1563 465,1547 470,1547 470,1537 475,1537 475,1522 480,1522 480,1507 486,1507 486,1496 491,1496 491,1481 496,1481 496,1466 501,1466 501,1450 506,1450 506,1435 511,1435 511,1420 516,1420 516,1399 521,1399 521,1379 526,1379 526,1364 532,1364 532,1348 537,1348 537,1333 542,1333 542,1313 547,1313 547,1277 542,1277 542,1272 537,1272 537,1267 532,1267 532,1261 526,1261 526,1256 516,1256 516,1251 491,1251 491,1256 "/>
   <polygon class="fil0" points="2688,1338 2688,1323 2694,1323 2694,1307 2699,1307 2699,1267 2694,1267 2694,1261 2688,1261 2688,1256 2683,1256 2683,1251 2673,1251 2673,1246 2648,1246 2648,1251 2637,1251 2637,1256 2632,1256 2632,1261 2627,1261 2627,1267 2622,1267 2622,1282 2617,1282 2617,1292 2612,1292 2612,1307 2607,1307 2607,1323 2602,1323 2602,1333 2596,1333 2596,1348 2591,1348 2591,1364 2586,1364 2586,1374 2581,1374 2581,1389 2576,1389 2576,1399 2571,1399 2571,1415 2566,1415 2566,1425 2561,1425 2561,1440 2556,1440 2556,1450 2550,1450 2550,1466 2545,1466 2545,1476 2540,1476 2540,1486 2535,1486 2535,1496 2530,1496 2530,1512 2525,1512 2525,1522 2520,1522 2520,1532 2515,1532 2515,1542 2510,1542 2510,1558 2504,1558 2504,1568 2499,1568 2499,1578 2494,1578 2494,1588 2489,1588 2489,1599 2484,1599 2484,1609 2479,1609 2479,1614 2474,1614 2474,1624 2469,1624 2469,1634 2464,1634 2464,1644 2458,1644 2458,1655 2453,1655 2453,1660 2448,1660 2448,1670 2443,1670 2443,1675 2438,1675 2438,1685 2428,1685 2428,1690 2423,1690 2423,1696 2412,1696 2412,1701 2387,1701 2387,1706 2372,1706 2372,1711 2361,1711 2361,1716 2356,1716 2356,1721 2351,1721 2351,1726 2346,1726 2346,1736 2341,1736 2341,1747 2336,1747 2336,1787 2341,1787 2341,1798 2346,1798 2346,1808 2351,1808 2351,1813 2356,1813 2356,1818 2366,1818 2366,1823 2377,1823 2377,1828 2428,1828 2428,1823 2438,1823 2438,1818 2443,1818 2443,1813 2448,1813 2448,1808 2453,1808 2453,1803 2458,1803 2458,1798 2464,1798 2464,1793 2474,1793 2474,1787 2494,1787 2494,1793 2504,1793 2504,1798 2515,1798 2515,1803 2525,1803 2525,1808 2540,1808 2540,1813 2550,1813 2550,1818 2566,1818 2566,1823 2581,1823 2581,1828 2602,1828 2602,1833 2627,1833 2627,1839 2648,1839 2648,1844 2678,1844 2678,1849 2729,1849 2729,1854 2832,1854 2832,1849 2878,1849 2878,1854 2883,1854 2883,2130 2878,2130 2878,2201 2872,2201 2872,2206 2867,2206 2867,2211 2862,2211 2862,2216 2857,2216 2857,2227 2852,2227 2852,2247 2857,2247 2857,2252 2862,2252 2862,2257 2872,2257 2872,2262 2954,2262 2954,2257 2970,2257 2970,2252 2980,2252 2980,2247 2985,2247 2985,2216 2980,2216 2980,2206 2970,2206 2970,2196 2964,2196 2964,1828 2975,1828 2975,1823 2990,1823 2990,1818 3005,1818 3005,1813 3016,1813 3016,1808 3026,1808 3026,1803 3041,1803 3041,1798 3046,1798 3046,1793 3056,1793 3056,1787 3067,1787 3067,1782 3072,1782 3072,1777 3082,1777 3082,1772 3087,1772 3087,1767 3092,1767 3092,1762 3097,1762 3097,1757 3102,1757 3102,1752 3108,1752 3108,1741 3113,1741 3113,1731 3118,1731 3118,1696 3113,1696 3113,1685 3108,1685 3108,1680 3102,1680 3102,1675 3062,1675 3062,1680 3056,1680 3056,1685 3051,1685 3051,1690 3046,1690 3046,1696 3041,1696 3041,1701 3036,1701 3036,1706 3031,1706 3031,1711 3026,1711 3026,1716 3021,1716 3021,1721 3010,1721 3010,1726 3000,1726 3000,1731 2995,1731 2995,1736 2980,1736 2980,1741 2964,1741 2964,1307 2970,1307 2970,1267 2964,1267 2964,1251 2959,1251 2959,1246 2954,1246 2954,1241 2949,1241 2949,1236 2939,1236 2939,1231 2913,1231 2913,1236 2898,1236 2898,1241 2893,1241 2893,1246 2888,1246 2888,1256 2883,1256 2883,1762 2878,1762 2878,1767 2867,1767 2867,1772 2847,1772 2847,1777 2704,1777 2704,1772 2678,1772 2678,1767 2648,1767 2648,1762 2632,1762 2632,1757 2612,1757 2612,1752 2596,1752 2596,1747 2581,1747 2581,1741 2571,1741 2571,1736 2556,1736 2556,1731 2545,1731 2545,1726 2535,1726 2535,1721 2525,1721 2525,1716 2515,1716 2515,1711 2510,1711 2510,1706 2515,1706 2515,1696 2520,1696 2520,1690 2525,1690 2525,1680 2530,1680 2530,1670 2535,1670 2535,1665 2540,1665 2540,1655 2545,1655 2545,1644 2550,1644 2550,1634 2556,1634 2556,1629 2561,1629 2561,1619 2566,1619 2566,1609 2571,1609 2571,1599 2576,1599 2576,1588 2581,1588 2581,1578 2586,1578 2586,1563 2591,1563 2591,1553 2596,1553 2596,1542 2602,1542 2602,1532 2607,1532 2607,1522 2612,1522 2612,1507 2617,1507 2617,1496 2622,1496 2622,1481 2627,1481 2627,1471 2632,1471 2632,1456 2637,1456 2637,1445 2642,1445 2642,1435 2648,1435 2648,1425 2653,1425 2653,1404 2658,1404 2658,1394 2663,1394 2663,1384 2668,1384 2668,1374 2673,1374 2673,1358 2678,1358 2678,1348 2683,1348 2683,1338 "/>
   <polygon class="fil3" points="2520,1180 2520,1175 2525,1175 2525,1170 2550,1170 2550,1164 2571,1164 2571,1170 2586,1170 2586,1175 2596,1175 2596,1180 2602,1180 2602,1185 2612,1185 2612,1190 2617,1190 2617,1195 2622,1195 2622,1200 2627,1200 2627,1205 2632,1205 2632,1210 2637,1210 2637,1215 2642,1215 2642,1221 2648,1221 2648,1226 2653,1226 2653,1231 2658,1231 2658,1236 2663,1236 2663,1241 2668,1241 2668,1246 2673,1246 2673,1251 2683,1251 2683,1256 2688,1256 2688,1261 2694,1261 2694,1267 2699,1267 2699,1292 2704,1292 2704,1282 2709,1282 2709,1292 2714,1292 2714,1297 2719,1297 2719,1302 2724,1302 2724,1307 2729,1307 2729,1313 2734,1313 2734,1323 2740,1323 2740,1328 2745,1328 2745,1333 2750,1333 2750,1338 2755,1338 2755,1343 2760,1343 2760,1348 2765,1348 2765,1353 2770,1353 2770,1364 2775,1364 2775,1369 2780,1369 2780,1374 2786,1374 2786,1379 2791,1379 2791,1384 2796,1384 2796,1389 2801,1389 2801,1399 2806,1399 2806,1404 2811,1404 2811,1410 2816,1410 2816,1415 2821,1415 2821,1420 2826,1420 2826,1425 2832,1425 2832,1435 2837,1435 2837,1440 2842,1440 2842,1445 2847,1445 2847,1450 2852,1450 2852,1456 2857,1456 2857,1466 2862,1466 2862,1471 2867,1471 2867,1476 2872,1476 2872,1481 2878,1481 2878,1486 2883,1486 2883,1379 2878,1379 2878,1374 2872,1374 2872,1369 2867,1369 2867,1358 2862,1358 2862,1353 2857,1353 2857,1348 2852,1348 2852,1343 2847,1343 2847,1338 2842,1338 2842,1328 2837,1328 2837,1323 2832,1323 2832,1318 2826,1318 2826,1313 2821,1313 2821,1307 2816,1307 2816,1302 2811,1302 2811,1297 2806,1297 2806,1292 2801,1292 2801,1282 2796,1282 2796,1277 2791,1277 2791,1272 2786,1272 2786,1267 2780,1267 2780,1261 2775,1261 2775,1256 2770,1256 2770,1251 2765,1251 2765,1246 2760,1246 2760,1236 2755,1236 2755,1231 2750,1231 2750,1226 2745,1226 2745,1221 2740,1221 2740,1215 2734,1215 2734,1210 2729,1210 2729,1205 2724,1205 2724,1200 2719,1200 2719,1195 2714,1195 2714,1185 2704,1185 2704,1180 2699,1180 2699,1170 2694,1170 2694,1164 2688,1164 2688,1159 2683,1159 2683,1154 2678,1154 2678,1149 2673,1149 2673,1144 2668,1144 2668,1139 2663,1139 2663,1134 2658,1134 2658,1129 2653,1129 2653,1124 2648,1124 2648,1118 2637,1118 2637,1113 2632,1113 2632,1108 2622,1108 2622,1103 2617,1103 2617,1098 2596,1098 2596,1093 2545,1093 2545,1098 2530,1098 2530,1103 2515,1103 2515,1108 2504,1108 2504,1113 2494,1113 2494,1118 2484,1118 2484,1124 2474,1124 2474,1129 2464,1129 2464,1134 2453,1134 2453,1139 2448,1139 2448,1144 2438,1144 2438,1149 2428,1149 2428,1154 2418,1154 2418,1159 2412,1159 2412,1164 2402,1164 2402,1170 2392,1170 2392,1175 2382,1175 2382,1180 2377,1180 2377,1185 2366,1185 2366,1190 2356,1190 2356,1195 2351,1195 2351,1200 2341,1200 2341,1205 2331,1205 2331,1210 2326,1210 2326,1215 2315,1215 2315,1221 2310,1221 2310,1226 2300,1226 2300,1231 2290,1231 2290,1236 2285,1236 2285,1241 2274,1241 2274,1246 2264,1246 2264,1251 2254,1251 2254,1256 2249,1256 2249,1261 2239,1261 2239,1267 2228,1267 2228,1272 2223,1272 2223,1277 2213,1277 2213,1282 2203,1282 2203,1287 2193,1287 2193,1292 2182,1292 2182,1297 2177,1297 2177,1302 2193,1302 2193,1297 2203,1297 2203,1292 2213,1292 2213,1287 2223,1287 2223,1282 2234,1282 2234,1277 2254,1277 2254,1272 2269,1272 2269,1267 2274,1267 2274,1261 2290,1261 2290,1256 2300,1256 2300,1251 2315,1251 2315,1246 2326,1246 2326,1241 2341,1241 2341,1236 2351,1236 2351,1231 2366,1231 2366,1226 2377,1226 2377,1221 2392,1221 2392,1215 2402,1215 2402,1210 2418,1210 2418,1205 2438,1205 2438,1200 2448,1200 2448,1195 2464,1195 2464,1190 2479,1190 2479,1185 2489,1185 2489,1180 "/>
   <polygon class="fil3" points="537,751 537,746 455,746 455,741 465,741 465,735 475,735 475,730 486,730 486,725 496,725 496,720 511,720 511,715 521,715 521,710 537,710 537,705 552,705 552,700 562,700 562,695 588,695 588,689 659,689 659,695 664,695 664,700 680,700 680,705 695,705 695,710 700,710 700,715 710,715 710,720 721,720 721,725 726,725 726,730 736,730 736,735 741,735 741,741 751,741 751,746 756,746 756,751 762,751 762,756 767,756 767,761 777,761 777,766 782,766 782,771 787,771 787,776 792,776 792,781 797,781 797,786 802,786 802,792 813,792 813,797 818,797 818,802 823,802 823,807 828,807 828,817 823,817 823,822 838,822 838,827 848,827 848,832 859,832 859,838 864,838 864,843 879,843 879,848 894,848 894,843 900,843 900,838 910,838 910,832 915,832 915,822 910,822 910,817 905,817 905,812 900,812 900,807 894,807 894,802 889,802 889,797 884,797 884,792 879,792 879,786 874,786 874,781 869,781 869,776 864,776 864,771 859,771 859,766 854,766 854,761 848,761 848,756 843,756 843,751 838,751 838,746 833,746 833,741 828,741 828,735 818,735 818,730 813,730 813,725 808,725 808,720 797,720 797,715 792,715 792,710 787,710 787,705 777,705 777,700 772,700 772,695 762,695 762,689 756,689 756,684 746,684 746,679 741,679 741,674 731,674 731,669 721,669 721,664 710,664 710,659 700,659 700,654 685,654 685,649 675,649 675,643 654,643 654,638 588,638 588,643 567,643 567,649 552,649 552,654 542,654 542,659 532,659 532,664 521,664 521,669 511,669 511,674 501,674 501,679 491,679 491,684 480,684 480,689 475,689 475,695 465,695 465,700 455,700 455,705 445,705 445,710 440,710 440,715 429,715 429,720 424,720 424,725 414,725 414,730 404,730 404,735 399,735 399,741 394,741 394,746 383,746 383,751 373,751 373,756 368,756 368,761 363,761 363,766 353,766 353,771 348,771 348,776 337,776 337,781 332,781 332,786 322,786 322,792 317,792 317,797 312,797 312,802 302,802 302,807 296,807 296,812 291,812 291,817 281,817 281,822 276,822 276,827 271,827 271,832 261,832 261,838 256,838 256,843 250,843 250,848 240,848 240,853 235,853 235,858 230,858 230,863 225,863 225,868 215,868 215,873 210,873 210,878 204,878 204,884 199,884 199,889 194,889 194,894 189,894 189,899 179,899 179,904 174,904 174,909 169,909 169,914 164,914 164,919 158,919 158,924 148,924 148,929 143,929 143,935 138,935 138,940 133,940 133,945 128,945 128,950 123,950 123,955 112,955 112,960 107,960 107,965 102,965 102,970 97,970 97,975 92,975 92,981 87,981 87,986 82,986 82,991 77,991 77,996 72,996 72,1001 66,1001 66,1006 61,1006 61,1011 56,1011 56,1016 51,1016 51,1021 46,1021 46,1027 41,1027 41,1032 36,1032 36,1037 31,1037 31,1042 26,1042 26,1047 36,1047 36,1042 41,1042 41,1037 46,1037 46,1032 51,1032 51,1027 56,1027 56,1021 61,1021 61,1016 72,1016 72,1011 77,1011 77,1006 82,1006 82,1001 87,1001 87,996 97,996 97,991 102,991 102,986 107,986 107,981 112,981 112,975 118,975 118,970 128,970 128,965 133,965 133,960 138,960 138,955 143,955 143,950 153,950 153,945 158,945 158,940 164,940 164,935 169,935 169,929 179,929 179,924 184,924 184,919 189,919 189,914 194,914 194,909 204,909 204,904 210,904 210,899 215,899 215,894 220,894 220,889 230,889 230,884 235,884 235,878 245,878 245,873 250,873 250,868 256,868 256,863 266,863 266,858 271,858 271,853 281,853 281,848 286,848 286,843 296,843 296,838 302,838 302,832 307,832 307,827 317,827 317,822 322,822 322,817 332,817 332,812 337,812 337,807 348,807 348,802 358,802 358,797 363,797 363,792 373,792 373,786 378,786 378,781 388,781 388,776 394,776 394,771 404,771 404,766 414,766 414,761 424,761 424,756 434,756 434,751 "/>
   <polygon class="fil1" points="1682,2043 1682,2058 1676,2058 1676,2140 1682,2140 1682,2145 1692,2145 1692,2140 1697,2140 1697,2135 1702,2135 1702,2130 1707,2130 1707,2125 1712,2125 1712,2119 1717,2119 1717,2114 1728,2114 1728,2109 1738,2109 1738,2104 1743,2104 1743,2099 1768,2099 1768,2094 1779,2094 1779,2089 1784,2089 1784,2084 1794,2084 1794,2079 1804,2079 1804,2073 1809,2073 1809,2068 1814,2068 1814,2063 1820,2063 1820,2058 1825,2058 1825,2053 1830,2053 1830,2048 1835,2048 1835,2038 1840,2038 1840,2027 1845,2027 1845,2012 1850,2012 1850,2002 1855,2002 1855,1987 1860,1987 1860,1961 1866,1961 1866,1910 1820,1910 1820,1915 1794,1915 1794,1920 1779,1920 1779,1925 1774,1925 1774,1930 1763,1930 1763,1936 1758,1936 1758,1941 1753,1941 1753,1946 1743,1946 1743,1951 1738,1951 1738,1956 1733,1956 1733,1966 1728,1966 1728,1971 1722,1971 1722,1976 1717,1976 1717,1982 1712,1982 1712,1992 1707,1992 1707,2002 1702,2002 1702,2012 1697,2012 1697,2022 1692,2022 1692,2033 1687,2033 1687,2043 "/>
   <polygon class="fil1" points="1559,2043 1574,2043 1574,2048 1584,2048 1584,2053 1595,2053 1595,2058 1600,2058 1600,2063 1610,2063 1610,2068 1615,2068 1615,2073 1620,2073 1620,2084 1625,2084 1625,2089 1630,2089 1630,2094 1636,2094 1636,2104 1641,2104 1641,2109 1646,2109 1646,2027 1641,2027 1641,2007 1636,2007 1636,1992 1630,1992 1630,1971 1625,1971 1625,1961 1620,1961 1620,1956 1615,1956 1615,1946 1610,1946 1610,1936 1605,1936 1605,1930 1600,1930 1600,1925 1595,1925 1595,1915 1590,1915 1590,1910 1584,1910 1584,1905 1579,1905 1579,1900 1574,1900 1574,1895 1564,1895 1564,1890 1559,1890 1559,1884 1549,1884 1549,1879 1538,1879 1538,1874 1523,1874 1523,1869 1513,1869 1513,1864 1477,1864 1477,1941 1482,1941 1482,1956 1487,1956 1487,1966 1492,1966 1492,1976 1498,1976 1498,1987 1503,1987 1503,1992 1508,1992 1508,1997 1513,1997 1513,2002 1518,2002 1518,2007 1523,2007 1523,2012 1528,2012 1528,2017 1533,2017 1533,2022 1544,2022 1544,2027 1549,2027 1549,2033 1559,2033 "/>
   <polygon class="fil1" points="537,751 552,751 552,756 588,756 588,761 613,761 613,766 639,766 639,771 664,771 664,776 690,776 690,781 710,781 710,786 721,786 721,792 746,792 746,797 762,797 762,802 777,802 777,807 792,807 792,812 808,812 808,817 828,817 828,807 823,807 823,802 818,802 818,797 813,797 813,792 802,792 802,786 797,786 797,781 792,781 792,776 787,776 787,771 782,771 782,766 777,766 777,761 767,761 767,756 762,756 762,751 756,751 756,746 751,746 751,741 741,741 741,735 736,735 736,730 726,730 726,725 721,725 721,720 710,720 710,715 700,715 700,710 695,710 695,705 680,705 680,700 664,700 664,695 659,695 659,689 588,689 588,695 562,695 562,700 552,700 552,705 537,705 537,710 521,710 521,715 511,715 511,720 496,720 496,725 486,725 486,730 475,730 475,735 465,735 465,741 455,741 455,746 537,746 "/>
   <polygon class="fil1" points="363,1946 358,1946 358,1966 353,1966 353,1997 358,1997 358,2012 363,2012 363,2027 368,2027 368,2038 373,2038 373,2043 378,2043 378,2048 383,2048 383,2058 388,2058 388,2063 394,2063 394,2068 404,2068 404,2073 414,2073 414,2079 424,2079 424,2084 434,2084 434,2089 450,2089 450,2063 445,2063 445,2033 440,2033 440,2022 434,2022 434,2012 429,2012 429,2002 424,2002 424,1992 419,1992 419,1987 414,1987 414,1976 409,1976 409,1971 404,1971 404,1966 399,1966 399,1961 394,1961 394,1956 388,1956 388,1951 383,1951 383,1946 378,1946 378,1941 373,1941 373,1936 363,1936 "/>
   <polygon class="fil1" points="2320,1976 2315,1976 2315,2027 2320,2027 2320,2043 2326,2043 2326,2053 2331,2053 2331,2063 2336,2063 2336,2073 2341,2073 2341,2079 2346,2079 2346,2084 2351,2084 2351,2089 2361,2089 2361,2094 2366,2094 2366,2099 2377,2099 2377,2104 2392,2104 2392,2109 2407,2109 2407,2068 2402,2068 2402,2048 2397,2048 2397,2038 2392,2038 2392,2027 2387,2027 2387,2022 2382,2022 2382,2012 2377,2012 2377,2007 2372,2007 2372,2002 2366,2002 2366,1997 2361,1997 2361,1992 2356,1992 2356,1987 2351,1987 2351,1982 2341,1982 2341,1976 2336,1976 2336,1971 2331,1971 2331,1966 2320,1966 "/>
   <polygon class="fil1" points="1339,1185 1334,1185 1334,1210 1339,1210 1339,1231 1344,1231 1344,1246 1349,1246 1349,1251 1354,1251 1354,1261 1360,1261 1360,1267 1365,1267 1365,1272 1370,1272 1370,1277 1375,1277 1375,1282 1380,1282 1380,1287 1385,1287 1385,1292 1395,1292 1395,1297 1411,1297 1411,1292 1416,1292 1416,1246 1411,1246 1411,1226 1406,1226 1406,1221 1400,1221 1400,1210 1395,1210 1395,1205 1390,1205 1390,1200 1385,1200 1385,1195 1380,1195 1380,1190 1375,1190 1375,1185 1370,1185 1370,1180 1365,1180 1365,1175 1360,1175 1360,1170 1349,1170 1349,1164 1339,1164 "/>
   <polygon class="fil4" points="3108,1752 3102,1752 3102,1757 3097,1757 3097,1762 3092,1762 3092,1772 3097,1772 3097,1777 3102,1777 3102,1782 3108,1782 3108,1787 3113,1787 3113,1793 3118,1793 3118,1798 3123,1798 3123,1803 3128,1803 3128,1808 3133,1808 3133,1813 3138,1813 3138,1818 3143,1818 3143,1823 3148,1823 3148,1828 3154,1828 3154,1833 3159,1833 3159,1844 3164,1844 3164,1849 3169,1849 3169,1854 3174,1854 3174,1859 3179,1859 3179,1864 3184,1864 3184,1869 3189,1869 3189,1874 3194,1874 3194,1879 3200,1879 3200,1884 3205,1884 3205,1890 3210,1890 3210,1895 3215,1895 3215,1900 3220,1900 3220,1905 3225,1905 3225,1910 3230,1910 3230,1915 3235,1915 3235,1920 3240,1920 3240,1925 3246,1925 3246,1930 3251,1930 3251,1936 3256,1936 3256,1941 3261,1941 3261,1946 3266,1946 3266,1951 3271,1951 3271,1956 3276,1956 3276,1961 3281,1961 3281,1971 3292,1971 3292,1961 3286,1961 3286,1956 3281,1956 3281,1951 3276,1951 3276,1946 3271,1946 3271,1941 3266,1941 3266,1930 3261,1930 3261,1925 3256,1925 3256,1920 3251,1920 3251,1915 3246,1915 3246,1910 3240,1910 3240,1900 3235,1900 3235,1890 3230,1890 3230,1884 3225,1884 3225,1879 3220,1879 3220,1874 3215,1874 3215,1864 3210,1864 3210,1859 3205,1859 3205,1854 3200,1854 3200,1849 3194,1849 3194,1844 3189,1844 3189,1833 3184,1833 3184,1828 3179,1828 3179,1823 3174,1823 3174,1813 3169,1813 3169,1808 3164,1808 3164,1803 3159,1803 3159,1798 3154,1798 3154,1787 3148,1787 3148,1782 3143,1782 3143,1777 3138,1777 3138,1772 3133,1772 3133,1767 3128,1767 3128,1762 3123,1762 3123,1752 3118,1752 3118,1741 3108,1741 "/>
   <polygon class="fil5" points="2970,1624 2970,1741 2980,1741 2980,1736 2995,1736 2995,1731 3000,1731 3000,1726 3010,1726 3010,1721 3021,1721 3021,1716 3026,1716 3026,1711 3031,1711 3031,1706 3036,1706 3036,1701 3041,1701 3041,1690 3036,1690 3036,1685 3031,1685 3031,1680 3026,1680 3026,1675 3021,1675 3021,1670 3016,1670 3016,1665 3010,1665 3010,1660 3005,1660 3005,1655 3000,1655 3000,1650 2995,1650 2995,1644 2990,1644 2990,1639 2985,1639 2985,1634 2980,1634 2980,1629 2975,1629 2975,1624 "/>
   <polygon class="fil1" points="2520,1180 2530,1180 2530,1185 2540,1185 2540,1190 2556,1190 2556,1195 2566,1195 2566,1200 2576,1200 2576,1205 2581,1205 2581,1210 2591,1210 2591,1215 2596,1215 2596,1221 2602,1221 2602,1226 2612,1226 2612,1231 2617,1231 2617,1236 2622,1236 2622,1241 2627,1241 2627,1246 2632,1246 2632,1251 2648,1251 2648,1246 2668,1246 2668,1241 2663,1241 2663,1236 2658,1236 2658,1231 2653,1231 2653,1226 2648,1226 2648,1221 2642,1221 2642,1215 2637,1215 2637,1210 2632,1210 2632,1205 2627,1205 2627,1200 2622,1200 2622,1195 2617,1195 2617,1190 2612,1190 2612,1185 2602,1185 2602,1180 2596,1180 2596,1175 2586,1175 2586,1170 2571,1170 2571,1164 2550,1164 2550,1170 2525,1170 2525,1175 2520,1175 "/>
   <polygon class="fil6" points="2029,1358 2029,1364 2034,1364 2034,1369 2039,1369 2039,1374 2044,1374 2044,1379 2050,1379 2050,1384 2055,1384 2055,1389 2060,1389 2060,1394 2065,1394 2065,1399 2070,1399 2070,1404 2080,1404 2080,1410 2085,1410 2085,1415 2090,1415 2090,1420 2096,1420 2096,1425 2101,1425 2101,1430 2106,1430 2106,1435 2111,1435 2111,1440 2116,1440 2116,1445 2121,1445 2121,1450 2126,1450 2126,1440 2121,1440 2121,1435 2116,1435 2116,1425 2111,1425 2111,1415 2106,1415 2106,1404 2101,1404 2101,1394 2096,1394 2096,1384 2090,1384 2090,1374 2085,1374 2085,1364 2080,1364 2080,1353 2075,1353 2075,1348 2070,1348 2070,1338 2065,1338 2065,1343 2060,1343 2060,1353 2065,1353 2065,1358 2060,1358 2060,1364 2055,1364 2055,1358 2039,1358 2039,1348 2034,1348 2034,1358 "/>
   <polygon class="fil6" points="3041,1696 3046,1696 3046,1690 3051,1690 3051,1680 3046,1680 3046,1675 3041,1675 3041,1670 3036,1670 3036,1665 3031,1665 3031,1660 3026,1660 3026,1650 3021,1650 3021,1644 3016,1644 3016,1639 3010,1639 3010,1634 3005,1634 3005,1629 3000,1629 3000,1624 2995,1624 2995,1614 2990,1614 2990,1609 2985,1609 2985,1604 2980,1604 2980,1599 2975,1599 2975,1491 2970,1491 2970,1624 2975,1624 2975,1629 2980,1629 2980,1634 2985,1634 2985,1639 2990,1639 2990,1644 2995,1644 2995,1650 3000,1650 3000,1655 3005,1655 3005,1660 3010,1660 3010,1665 3016,1665 3016,1670 3021,1670 3021,1675 3026,1675 3026,1680 3031,1680 3031,1685 3036,1685 3036,1690 3041,1690 "/>
  </g>
 </g>
</svg>
