<?xml version="1.0" encoding="UTF-8"?>
<!DOCTYPE svg PUBLIC "-//W3C//DTD SVG 1.1//EN" "http://www.w3.org/Graphics/SVG/1.1/DTD/svg11.dtd">
<!-- Creator: CorelDRAW X7 -->
<svg xmlns="http://www.w3.org/2000/svg" xml:space="preserve" width="17.8344in" height="22.575in" version="1.1" style="shape-rendering:geometricPrecision; text-rendering:geometricPrecision; image-rendering:optimizeQuality; fill-rule:evenodd; clip-rule:evenodd"
viewBox="0 0 3557 4502"
 xmlns:xlink="http://www.w3.org/1999/xlink">
 <defs>
  <style type="text/css">
   <![CDATA[
    .fil4 {fill:#010719}
    .fil0 {fill:#26283D}
    .fil7 {fill:#4F6072}
    .fil5 {fill:#5A899D}
    .fil6 {fill:#7AA5B6}
    .fil3 {fill:#9DBEC9}
    .fil2 {fill:#C5DCE6}
    .fil1 {fill:#FDFDFD}
   ]]>
  </style>
 </defs>
 <g id="Layer_x0020_1">
  <metadata id="CorelCorpID_0Corel-Layer"/>
  <g id="_328364664">
   <path class="fil0" d="M1713 4408l-4 1 -10 23 14 -24zm285 -162l9 0 0 -32 7 -113 0 -26 2 -280 -4 -44 -2 -61 -2 -24 0 -260 2 -15 26 -204 3 -12 9 -83 4 -22 4 -34 3 -22c-6,-30 3,-83 3,-117 0,-37 -5,-76 -4,-110l-4 -14 -6 -64 -6 -11 -2 -14 5 -2c14,-17 9,-14 6,-40 -2,-19 -3,-27 -2,-47l-6 -17 -3 -18 -4 -10 -8 -50 -3 -12 -3 -22 -4 -7 -1 -20 -5 -13c-2,-73 -15,-122 -5,-202l7 -26 -1 -34 6 -20 2 -136 34 3 27 4 43 2 24 3 94 1c38,-22 36,15 150,-33 -16,7 -3,3 -6,10l10 -8 0 -3c0,-1 -6,5 7,-12 8,-11 1,-10 7,-7 10,0 7,2 8,-10 -22,-15 6,8 -3,-2 -7,-9 1,-1 1,-1l6 0 2 -9c-7,-5 -3,7 -2,-9 0,-3 2,-11 3,-20 1,-20 -5,-19 5,-34l0 -14 -6 0 -2 12c-4,-25 -5,-15 3,-29l-1 -7 -5 0c0,1 -4,22 -4,-4 0,-14 -1,-4 4,-12l0 -10 -8 0 -1 8c-4,-28 -2,-12 2,-17l2 -11 -8 0c0,1 3,25 -8,-8 -7,-20 -7,-14 2,-15l1 -10 -8 0c-1,1 -1,23 -6,-9 -4,-26 -3,-5 3,-15l-1 -5 -6 0c-6,3 -8,-7 1,-11l3 -9 -9 0c-1,0 -1,21 -8,-7 -3,-15 -2,-7 2,-13l3 -11 -7 0c-8,10 3,11 -5,1 -8,-10 0,-5 3,-6l0 -9 -7 0 -3 6c-4,-25 -2,-7 5,-12l2 -9 -8 0c-12,15 -15,-1 -1,-5l2 -10 -8 0 -8 9c4,-12 0,-10 0,-17 0,-12 -2,-7 2,-13l1 -8 -6 0c-5,3 1,18 -11,-13 -6,-14 -11,-15 -1,-19l2 -9 -8 0 -6 4 7 -12 3 -5 -7 2c-3,-3 -5,-2 -12,-15 -1,-1 -4,-9 -5,-12 -4,-9 -5,-15 -5,-20 -4,14 -7,11 7,11 3,-16 8,-14 -7,-11l-3 -8c-11,8 4,4 -6,1 -32,-9 -32,-12 -24,-15l-6 -14 3 -12 -8 -9 0 -17 -6 -11 -1 -28 -4 -9 -24 -93 -5 -5 2 -8 -5 -8 -6 -8c-10,-1 0,2 -12,-2 -2,-1 -4,-3 -6,-5l-10 -5 -1 -1 -10 -6 -1 0 -9 -8 -4 2 -11 -6c-2,0 -8,0 -11,-1 -2,-1 -9,-4 -10,-6l-13 -6 -4 3 -24 -5 -2 13c-7,-18 -3,-16 -14,-28 -11,-12 -13,-9 -30,-19l-1 -1 -2 -25 -9 13 10 -51 -4 -6 -7 9c0,-9 -1,-13 -1,-14 -1,-21 -5,9 1,-6l-8 -7c-2,-1 -8,-8 -17,-13 -15,-10 -25,-5 -13,-9l-8 -7c-5,9 8,6 -5,2 -15,-4 -4,-2 1,-5l-9 -4c-7,3 -39,9 -43,0l-9 8 5 1 -13 -2c-84,-94 -115,-14 -163,-11 -107,9 -68,-45 -141,66 11,10 6,-1 -13,12l-13 12c-3,3 -5,5 -9,8 12,-15 5,-7 10,-19 -4,2 -7,5 -10,8 -1,1 0,19 -5,7 -1,-1 -2,2 -3,4 5,9 5,-3 1,10 -5,14 -1,9 -4,1 -13,-2 -9,-4 -8,10 6,4 11,-12 2,11l0 -8c-12,1 -8,-15 -8,11 5,6 13,10 0,22l3 6 2 0 5 -6 2 11 38 2 -28 2 24 12c-9,11 -33,184 -36,215 -7,66 30,131 96,137l-9 75c-15,10 -17,5 -39,3l18 -1 -18 -6c-16,7 -33,3 -53,1l32 0 -34 -6c-11,9 -341,9 -359,-3 7,-6 -15,-3 3,-1l8 4 1 -13c-13,-3 0,0 2,-17 14,-6 3,-2 8,4 8,0 6,2 6,-7 -11,-18 5,0 -6,-12 -8,-8 -7,-4 -7,-2 7,-7 9,2 20,-6 10,-8 11,-10 8,-22l15 3 6 -4c-2,-5 -3,-1 0,-10 0,0 5,-11 5,-11 7,-10 5,-13 9,-7l4 -7 8 -8c-12,0 -10,-3 -8,8l19 -29 -4 14 11 -16 5 -9 4 -7 9 -8c-13,0 -11,-3 -9,8 1,-2 5,-7 7,-10 8,-8 4,-5 9,-4l6 -5c-1,-4 -2,-2 0,-9 0,-1 3,-5 3,-6 12,-18 2,-6 8,-4l6 -5c0,-1 0,-2 0,-3 -5,-17 1,-9 -8,-17l14 5c20,-50 48,-32 88,-55 21,-12 54,-51 71,-70l12 -12 8 -9 0 -17 -6 0 -12 0 -1 2 -9 0 -2 7 -18 6c-15,-19 -11,-24 3,-43l4 -3 10 2 10 -7 3 2 9 -8 1 0 15 -18 -5 -26 -35 -1 -9 3 -9 5 -28 5 -10 -5 -13 -1 -10 -4 -23 1 -20 8 0 2 -7 5 -16 24 -8 4 -33 42 -17 18 -25 28 0 7c-11,29 -5,12 -22,18 -22,8 -6,-12 -22,17 -5,-5 -11,8 -2,-11l-13 12c9,5 10,2 1,5 2,10 4,9 -5,6 1,11 5,11 -5,8 -4,7 -63,76 -65,77l-3 -5c19,-13 20,-19 30,-39l-39 44 0 4c2,9 4,8 -4,6l-49 59 -1 -5 8 -14 -15 21 -5 6 -9 5c13,3 12,7 9,-5 10,2 8,4 5,-6 0,2 0,4 -1,8 -3,13 -1,4 -2,5 -20,19 27,-14 -6,2 -8,4 0,-2 -10,6 -5,4 -27,43 -30,42l4 -21 -17 19c13,8 12,3 0,6 -7,11 -15,35 -20,24l-8 7c8,10 6,-4 1,9 -5,13 0,8 -5,2l-8 10c1,1 2,1 3,1 0,0 -1,0 -1,0 0,0 -2,-2 -3,-3l-6 6c12,10 8,3 1,8l-10 59c0,-1 0,-1 0,-1 -6,19 -12,-4 -12,34l3 23c-1,1 -1,3 -1,4l-3 6 -1 9 6 0 7 11c0,-9 3,-7 -7,-7l8 13 4 0c1,0 2,0 2,0l9 12 13 11c15,-8 -4,-5 11,-1 18,5 2,4 2,4l0 7 8 1c8,-10 2,-5 23,2 12,4 17,5 30,9l-12 1 14 6c15,-10 119,13 111,16l0 7 9 1c14,-8 4,-7 29,-3l-10 1 13 7c13,-8 13,-5 33,-2l-11 1 0 7 15 0c7,-6 0,-4 14,-4l35 9 0 7 12 0c13,-8 95,4 112,18 5,13 -2,148 4,187 9,69 11,118 7,186 -4,59 -39,338 -25,367 -3,3 10,7 -10,3l4 9 12 0c3,-6 -5,-5 5,-3l0 62 -1 -32 -20 311 0 61 2 122 2 51 9 181 2 26 15 149 3 17 4 33 3 14 38 298 1 14 11 76 1 16 16 134 3 15 6 63 -3 12 13 10 10 0 4 -1c2,28 2,13 -6,18l-5 5 -5 5 -8 1 -2 6 -17 5 -7 6 -2 0 -3 6 -8 3 -6 3 -5 4 -2 3 -21 5 -4 3 -8 4 -3 4 -12 1 -3 4 -26 8 -3 4c-30,13 -64,21 -43,60 26,16 304,27 362,1 1,-40 -2,-57 -11,-95 -5,-20 -13,-46 0,-64 16,-22 6,-8 11,-5l12 -199 1 -257 -7 -347 5 -25 6 -80 6 -18 2 -26 2 -15 23 -124 16 428 3 24 2 40 4 18 12 100 1 18 3 15 2 22 6 16 -2 32 6 19 0 22 6 24 3 23 2 18 3 30 5 17 -1 13 -1 33 8 41 1 55 3 32 3 43 18 13 4 -2 9 19c-9,9 -50,30 -64,35l8 -11 -7 -2 -6 7 -4 6c13,6 14,-4 -13,16 -15,11 -74,36 -52,66 37,25 240,35 279,21 10,-36 -2,-90 -5,-131 -2,-35 9,-27 14,-48 2,-7 1,-81 3,-51zm-272 157c9,0 7,2 4,-7 -10,0 -8,-2 -4,7zm19 -9c11,1 8,3 7,-8 -14,-1 -12,-5 -7,8zm56 -44l0 6c9,1 7,3 7,-6l-7 0zm39 -16l-7 -1 0 9c17,17 -17,-10 10,1 -1,-1 0,-3 0,-3 -2,11 -2,-4 -3,-6zm-168 -16c-10,1 -7,-1 -7,10l7 -10zm-5 41l6 16 -6 -16zm5 129c-11,-2 -7,-4 -10,7l10 -7zm-354 -10l12 12 -12 -12zm381 -28l5 8 9 8 -9 -8 -5 -8zm324 -2908l6 0 1 -3c-10,-13 -10,-21 -2,-36l6 -15 -9 5c10,-12 3,-1 12,-11 7,-7 2,-3 3,-5l15 9 4 -7c-1,-4 -6,3 0,-6 10,-13 3,-1 5,0l7 -3c-12,-14 -7,-5 0,-9l1 -20 3 10 9 0 -1 -15 2 -5c9,16 5,7 8,17l5 6 7 11 1 4 5 -1 9 13 17 4 2 7c11,5 29,14 11,21l49 188 6 32 3 8 0 14 7 4 5 23c-4,7 12,9 -10,4l-8 -3 -19 -8 -9 -3 -14 -3 -4 -4 -9 -2 -8 -4 -15 -1 -5 -2 -14 -3 -5 -7 -13 2 -27 -15 -13 1 -8 -4 -16 -1 -4 -8 -14 1 -7 -1 -19 -4 -7 -7 -13 1 -9 -4 -17 -3 -11 -3 -26 -3 -13 -3 -25 -4c-1,-10 -2,-22 -3,-31 -1,-26 -8,-23 7,-30 11,-9 21,-7 34,0l8 -4 -8 -5c25,-4 28,-10 39,-34l-3 5 5 5 6 -13 -5 -2 20 0 -11 0 12 7c11,-14 30,-17 42,-11l17 -17 -14 11 -5 -6c23,-15 16,-5 20,-30l4 6zm45 -222c2,-1 5,-1 5,-3 1,-4 6,-2 8,-1l2 11c10,-3 8,-5 7,4l15 18 2 27 -7 5 -4 -2c-10,0 -8,2 -7,-8l-18 -17 0 -6 -3 -28zm18 -44c-1,-12 1,-24 11,-7l-11 7z"/>
   <path class="fil1" d="M1076 1024l0 6 7 10 -1 2 8 11c8,3 3,1 15,13 6,6 11,10 16,16 86,29 387,52 447,-23 47,-57 42,-385 -7,-442 -64,-74 -348,-75 -429,-29 -98,56 -72,335 -56,436z"/>
   <path class="fil1" d="M771 2307c12,150 260,133 365,116 150,-24 120,-245 110,-366 -6,-71 -57,-115 -127,-118 -312,-14 -377,-16 -348,368z"/>
   <path class="fil1" d="M2056 3036l-4 34 12 19c144,-1 342,28 454,-67 10,-12 17,-12 28,-23 10,-9 13,-17 25,-28 116,-161 73,-521 73,-722 -1,-264 0,-529 -1,-794 0,-208 49,-504 -199,-595 -80,-29 -655,-25 -767,-16l-1 50c200,31 692,-63 829,68 107,101 84,231 84,365l0 1348c-1,441 -238,326 -533,361z"/>
   <path class="fil1" d="M772 2827c20,155 217,125 329,123 176,-2 154,-173 138,-308 -20,-167 -206,-127 -331,-124 -161,3 -150,190 -136,309z"/>
   <path class="fil1" d="M675 2944l7 3 3 5 10 10 28 40 23 15 9 15 11 -2 3 6 15 5 3 7 3 8 22 5 8 5 11 -1 3 6 32 6 9 6 489 7 12 1 0 -61c-86,13 -251,4 -345,3 -111,0 -180,7 -267,-73 -123,-113 -83,-433 -83,-594 0,-226 -1,-452 -1,-677 1,-112 -22,-583 33,-647l-2 -1 8 -10 2 -13 8 -6c4,-10 -1,-4 4,-10l7 -8 40 -40 18 -12 -2 0 19 -11 2 2 9 -8 2 0 11 -6 18 -4 11 -7 9 -1 9 -6 27 2 67 -8 -1 -54c-177,10 -328,78 -349,276 -18,175 -3,441 -2,624 0,106 -8,1013 6,1094 8,48 32,73 41,109z"/>
   <path class="fil1" d="M920 1718l1 -3 5 -9 0 -11c-1,-10 -3,-7 6,-7l0 -4 6 -6 0 -7 5 -7 6 -6 1 2 8 -10 -3 -8 7 -3 8 -7c1,-11 -3,-5 4,-12 3,-6 1,-6 6,-11 8,-8 2,-2 10,-7l17 -19 12 -17c5,-5 1,-3 8,-9 9,-8 2,-2 11,-5l9 -5 5 -6 15 -21 34 -41c9,-17 2,-7 12,-9l39 -44 26 -27c1,-3 8,-14 9,-15 12,-14 4,-5 12,-10l13 -12 22 -17 8 5c9,1 7,3 5,-6 -21,-122 -90,-113 -192,-113 -84,0 -196,-19 -255,51 -42,49 -29,211 -29,279 0,108 40,152 149,157z"/>
   <path class="fil1" d="M1937 198l5 -9 -1 -9 5 -6 2 -6c0,-9 -2,-7 6,-7l5 -6 0 -6 8 -6c7,-19 14,-22 27,-28l6 -9 7 1c3,-4 0,-2 8,-8 11,-8 -9,2 8,-3l7 -6 6 2 11 -7 6 1 15 -7 82 4c83,33 133,114 115,206 -17,82 -132,171 -190,126l-28 -5 -11 -8 -1 2 -11 -8 -1 2 -9 -7 -8 -4c-18,-7 -21,-11 -32,-26 -1,-2 -12,-16 -12,-17 -7,-12 -4,-5 -6,-17l-10 -5 0 -7 -5 -6 3 -11 -7 -10c-10,-36 -7,-54 0,-90zm270 276l16 -2 16 -15 30 36 10 11 25 24 23 22 24 24 71 72c9,0 84,65 96,-25l6 -6 -216 -221c31,-87 89,-196 -1,-293l2 -12c-11,6 -7,6 -5,-6 -11,-5 -1,1 -12,-6 -18,-13 9,8 -6,-5 -5,-4 -9,-10 -14,-14l-1 -2 -8 -10c-18,-3 -9,-2 -12,-8l-1 0 -10 -8 -13 -3 -7 -7 -6 1c-170,-65 -365,25 -371,221 -6,199 186,311 364,232z"/>
   <path class="fil1" d="M3239 4388l21 1 60 -197 8 -41c4,-39 14,-81 19,-122 6,-47 1,-97 7,-141l-9 -45 0 -49c-43,-44 -6,-122 -28,-179 -17,-43 -76,-101 -125,-104 -28,88 8,168 83,204 31,15 26,-5 42,72 22,109 16,284 -12,391 -11,-56 -9,-107 -51,-154 -27,-29 -78,-82 -123,-72 -31,97 74,243 172,238l-64 198z"/>
   <path class="fil1" d="M3337 4155l-7 32c108,-1 228,-94 227,-203 -103,0 -191,77 -220,171z"/>
   <path class="fil2" d="M2007 4246c0,18 0,31 -8,45l3 18 -7 8 -7 0 -1 39 8 27 -1 19c17,24 12,29 8,59l-2 -53c153,0 1414,16 1446,-1 -36,-26 -151,10 -186,-18l-21 -1c-36,24 -530,8 -615,9 -206,3 -417,-5 -622,4 0,-44 -12,-54 2,-92 9,-26 12,-71 3,-95l0 32z"/>
   <path class="fil1" d="M3357 3789l-2 54 1 36 20 5c44,-22 77,-36 100,-82 20,-38 49,-111 13,-147 -66,-7 -112,116 -132,134z"/>
   <path class="fil3" d="M2251 1457c9,2 7,-10 8,9l-3 12c8,3 9,-8 9,13l9 0 8 -3 -2 8 12 10 3 8c15,-3 10,-5 7,11l2 -5c14,2 11,-2 7,12l-1 9 5 7 1 1c12,1 10,-3 8,10l-3 5c12,-2 10,-4 7,8l-2 9 5 1 1 7 1 1c13,0 10,-3 7,11l-2 9 6 3 -1 8 2 3 4 7 1 4c13,-1 11,-4 7,7l-2 10 2 -4c13,0 11,-3 7,9l-2 9c10,-1 9,-4 5,6l0 9 1 -4c13,0 11,-3 8,9l-3 11 6 2 0 7 1 2c13,1 11,-3 8,9l-3 9 0 4 5 7 1 5 6 3 -1 8 1 5c11,-1 9,-3 5,8l-1 10 8 14c13,0 10,-3 6,9l-2 11 1 1c12,-1 10,-3 6,8l0 10 -1 7 6 9 1 7 0 6 5 11 0 14 1 9c9,14 13,24 -1,32l0 14c1,10 4,9 -5,9l-1 -1 -2 9 -4 3c-1,12 2,10 -8,10l0 6 -14 16 -10 8c5,14 8,13 -6,9l-7 -3 -6 6 -7 -1 -9 5 -12 1c0,9 10,8 -8,5l-17 1 -72 0 -94 -1 -24 -3 -43 -2 -27 -4 -34 -3 -2 136c-1,18 4,10 -6,20l1 34c0,17 1,15 -7,26 -10,80 3,129 5,202l5 13 1 20c8,-3 7,-12 4,7l3 22 3 12 8 50c7,1 7,-13 4,10l3 18c6,7 10,-6 6,17 -1,20 0,28 2,47 3,26 8,23 -6,40l-5 2 2 14 6 11 6 64 4 14c-1,34 4,73 4,110 0,34 -9,87 -3,117l7 16c29,-155 -13,-329 -12,-332 0,-6 10,-30 10,-48 -1,-35 -14,-87 -20,-121 -48,-297 -35,-200 -10,-509l129 10c111,8 295,23 280,-140 -7,-76 -55,-190 -85,-265 -17,-40 -43,-121 -76,-137 -1,0 -2,-1 -2,-2l-15 -20c-9,-21 -4,-46 -14,-26l0 17z"/>
   <path class="fil2" d="M1357 4415l6 0 26 -8 3 -4 12 -1 3 -4 8 -4 4 -3 21 -5c-26,-11 -31,9 -71,13 -32,3 -62,1 -93,0 -197,-4 -1245,-8 -1276,9 57,12 266,4 337,4 150,-1 991,-8 1020,3z"/>
   <path class="fil3" d="M1405 2294l0 -103 -4 -21c-2,-30 -7,-60 -9,-90 -1,-35 3,-70 2,-103l5 -25 0 -5c-11,0 -9,3 -9,-7l-16 -2 -11 2c-14,1 -7,3 -5,-7l-17 1 -12 -6 -41 -6 -12 0 -10 -6 -14 1 -14 -2c-12,3 -11,7 -9,-5l-2 0 -15 0 -11 -5 -11 -1 -13 -7 -19 2 -9 -1 -12 -5 -20 2c-21,1 -9,2 -12,-8l-15 0 -12 3c-13,-3 -2,1 -6,-9l-11 0 -11 0c-11,2 -9,5 -9,-5l-3 -1 -14 -6 -17 0 -9 -4 -7 -2 -7 -1 -1 -5 -8 -1c-1,0 -4,0 -4,-1 -1,0 -4,-1 -4,-1 -34,-18 8,22 -5,-8l-13 -11 -5 -3 -10 -9 -8 -13c-10,3 -11,6 -6,-4l1 -9c-11,-2 -9,7 -8,-8l5 -61c-19,12 -6,-4 -13,19 -14,48 27,84 31,90 15,21 -5,6 11,16 48,27 84,30 137,41l306 56c-24,78 3,212 5,261 1,28 -8,60 10,83z"/>
   <path class="fil4" d="M1177 1897l10 -1c-25,-4 -15,-5 -29,3l19 -2zm24 8l11 -2 11 -1c-20,-3 -20,-6 -33,2l11 1zm28 5l9 0 14 7 14 -1 10 -1 -35 -9c-14,0 -7,-2 -14,4l2 0zm100 18l12 6 17 -1 5 1 11 4 16 2 10 0 -1 7 0 5 -5 25c1,33 -3,68 -2,103 2,30 7,60 9,90l4 21 0 103 0 20 -4 22 -7 97 -5 31 -7 119 -4 29 -2 71c20,4 7,0 10,-3 -14,-29 21,-308 25,-367 4,-68 2,-117 -7,-186 -6,-39 1,-174 -4,-187 -17,-14 -99,-26 -112,-18l41 6zm64 770l3 21 1 32 0 -62c-10,-2 -2,-3 -5,3l1 6z"/>
   <path class="fil4" d="M944 1672c7,-5 11,2 -1,-8l1 8 -6 -1 0 7 -6 6 0 4 -6 7 0 11c1,11 4,9 -5,9l-1 3 -2 10 -5 61 8 8 3 -6c0,-1 0,-3 1,-4l-3 -23c0,-38 6,-15 12,-34 0,0 0,0 0,1l10 -59zm-18 138c10,0 7,-2 7,7l-7 -11 0 4zm18 22l5 3 -9 -12c0,0 -1,0 -2,0l6 9zm31 17c0,0 16,1 -2,-4 -15,-4 4,-7 -11,1 10,6 7,2 13,3zm9 9l7 5 7 2 9 4 17 0 12 -1c-13,-4 -18,-5 -30,-9 -21,-7 -15,-12 -23,-2l1 1zm57 18l9 -1 11 6 11 0 6 2 12 4 15 0 12 8 20 -2 12 -2c8,-3 -96,-26 -111,-16l3 1zm-91 -216l-1 -2c1,1 3,3 3,3 0,0 1,0 1,0 -1,0 -2,0 -3,-1zm12 -21l-7 3 3 8c5,6 0,11 5,-2 5,-13 7,1 -1,-9zm28 -31c12,-3 13,2 0,-6l0 6 -16 12c-7,7 -3,1 -4,12 5,11 13,-13 20,-24zm62 -67c3,10 5,8 -5,6 3,12 4,8 -9,5l-19 14 -12 17 -4 21c3,1 25,-38 30,-42 10,-8 2,-2 10,-6 33,-16 -14,17 6,-2 1,-1 -1,8 2,-5 1,-4 1,-6 1,-8zm57 -61c8,2 6,3 4,-6l0 -4 0 4c-9,-2 -7,-3 -4,6l-8 -1 -34 41 -8 14 1 5 49 -59zm81 -87c10,3 6,3 5,-8 9,3 7,4 5,-6 9,-3 8,0 -1,-5l1 5c-10,-1 -7,-3 -5,6 -10,0 -7,-2 -5,8l-12 6 -26 27c-10,20 -11,26 -30,39l3 5c2,-1 61,-70 65,-77zm68 -55c-5,4 -10,6 -11,6 2,9 4,7 -5,6l-8 -5 -22 17c-9,19 -3,6 2,11 16,-29 0,-9 22,-17 17,-6 11,11 22,-18z"/>
   <path class="fil4" d="M1772 4373l-6 0 -5 6 -6 -1 -3 8c1,11 4,9 -7,8l-9 -6 -6 8c3,9 5,7 -4,7l-8 -3 -5 8 -14 24 0 18 5 8 9 8 -1 1 9 4 41 6 22 6 33 2 27 3 131 0 9 -3 4 -1 5 -6 1 -76 1 -19 -8 -27 1 -39 7 0c0,-10 -2,-7 7,-8l-3 -18 -1 -45c-2,-30 -1,44 -3,51 -5,21 -16,13 -14,48 3,41 15,95 5,131 -39,14 -242,4 -279,-21 -22,-30 37,-55 52,-66 27,-20 26,-10 13,-16z"/>
   <path class="fil2" d="M1801 4350l7 0 5 -6 5 -1 8 -4 -9 -10c-5,19 -19,9 -16,21zm39 -16l-4 -15 -4 2 -12 -2 -6 -11 -3 -43 -3 -32 -1 -55 -8 -41 1 -33c-13,27 6,167 6,208l14 7c5,11 -1,7 13,14l7 1zm-45 -243l1 -17 -3 -30 -2 -18 -3 -23c-7,3 3,85 6,100l1 -12zm-13 -112l0 -22c-9,2 -2,30 0,42l0 -20zm-6 -41l2 -32 -6 -16 -2 -22 -3 -15 -1 -18c-5,14 7,98 11,116l-1 -13zm6 422l7 2c-3,-10 -4,-7 8,-6 -6,-5 -3,-9 -10,-1 -16,1 -7,-4 -5,5zm-27 18l6 1c-2,-10 -5,-9 5,-6l6 0 4 -6c-4,-7 3,-12 -16,-1 -23,13 -9,6 -5,12zm-19 10l9 6c-5,-13 -7,-9 7,-8 -12,-10 -1,-10 -12,-3 -21,4 -7,0 -4,5zm-18 12l8 3c-4,-9 -6,-7 4,-7 -8,-11 -2,-13 -9,-3 -16,4 -7,-3 -3,7zm-9 9l4 -1c-7,-5 4,-20 -15,4l11 -3z"/>
   <path class="fil4" d="M1334 1461l6 -15 -14 -5c9,8 3,0 8,17 0,1 0,2 0,3zm-17 24l11 -19c-6,-2 4,-14 -8,4 0,1 -3,5 -3,6 -2,7 -1,5 0,9zm-22 19c-2,-11 -4,-8 9,-8 11,2 3,3 7,-6 -5,-1 -1,-4 -9,4 -2,3 -6,8 -7,10zm-9 16c11,1 4,2 5,-9l-5 9zm-26 31c-2,-11 -4,-8 8,-8 12,1 4,2 7,-7l4 -14 -19 29zm-18 35l14 -28c-4,-6 -2,-3 -9,7 0,0 -5,11 -5,11 -3,9 -2,5 0,10zm-36 43c-2,-8 -3,-6 6,-5l12 -17 6 -5 6 -12 -15 -3c3,12 2,14 -8,22 -11,8 -13,-1 -20,6 0,-2 -1,-6 7,2 11,12 -5,-6 6,12zm-16 20c13,-6 4,0 10,-13 -5,-6 6,-10 -8,-4 -2,17 -15,14 -2,17zm347 13l-304 -3 -44 3 -8 -4c-18,-2 4,-5 -3,1 18,12 348,12 359,3zm55 5l-21 1 -32 0c20,2 37,6 53,-1zm39 4l-21 2 -18 1c22,2 24,7 39,-3z"/>
   <path class="fil4" d="M1317 4479l1 -1 12 12 16 5c61,0 274,16 316,0 3,-11 -1,-9 10,-7 24,-6 13,-45 13,-70l-6 -11 -3 -13 -2 -11 -1 -8 -6 -16 -2 -31c0,-11 -3,-9 7,-10 10,7 9,10 7,-2 -5,-3 5,-17 -11,5 -13,18 -5,44 0,64 9,38 12,55 11,95 -58,26 -336,15 -362,-1z"/>
   <path class="fil4" d="M2320 1572l1 -8 -7 12 6 -4zm18 41l0 -3 2 -9c-10,0 -6,2 -7,-11l-1 -1 -5 -7 -1 -1c-10,4 -5,5 1,19 12,31 6,16 11,13zm11 29l1 -7 -1 -4 -4 -7 -2 -3c-4,6 -2,1 -2,13 0,7 4,5 0,17l8 -9zm7 15l1 -9 -2 4c-14,4 -11,20 1,5zm4 15l2 -6c-7,5 -9,-13 -5,12l3 -6zm9 14l-1 -9 -1 4c-3,1 -11,-4 -3,6 8,10 -3,9 5,-1zm10 31l1 -9 -1 -2 -6 -7 0 -2c-4,6 -5,-2 -2,13 7,28 7,7 8,7zm5 20l1 -7 0 -4c-9,4 -7,14 -1,11zm10 29l3 -8 -1 -5 -5 -8 0 -3c-6,10 -7,-11 -3,15 5,32 5,10 6,9zm13 33l2 -9 -8 -14c-9,1 -9,-5 -2,15 11,33 8,9 8,8zm5 20l2 -8 -1 -1c-4,5 -6,-11 -2,17l1 -8zm8 26l-1 -9 1 -7c-5,8 -4,-2 -4,12 0,26 4,5 4,4zm5 24l1 -11 0 -6c-8,14 -7,4 -3,29l2 -12zm0 77l1 1 5 -9 0 -14 1 -32 -1 -9c-10,15 -4,14 -5,34 -1,9 -3,17 -3,20 -1,16 -5,4 2,9zm-6 12l-2 -3c0,0 -8,-8 -1,1 9,10 -19,-13 3,2zm-22 29l14 -13 0 -6c-6,-3 1,-4 -7,7 -13,17 -7,11 -7,12zm-154 34l72 0 17 -6 8 0 12 -1 9 -5 7 1 6 -6 7 3c-1,-10 -3,-8 6,-9 3,-7 -10,-3 6,-10 -114,48 -112,11 -150,33z"/>
   <path class="fil3" d="M1258 1331l25 -28c3,-6 1,-4 6,-10 2,-2 5,0 7,-5 0,-2 2,-2 4,-3l33 -42 8 -4 16 -24 7 -5 0 -2c10,-8 -12,-8 20,-8l23 -1c11,-2 8,-5 10,4l13 1 10 5 28 -5c1,-10 -1,-7 9,-5l9 -3c20,-12 21,-17 35,1l5 26c0,24 2,10 -7,15l16 -2c1,0 6,1 8,1l-6 -14 -3 -6 0 -22c0,-26 -4,-10 8,-11l-2 -3c-1,-14 -5,-12 8,-10l-5 -8c-2,-11 -3,-7 8,-3 1,-2 2,-5 3,-4 5,12 4,-6 5,-7 3,-3 6,-6 10,-8 6,-9 -11,-6 9,-12 -41,13 -33,22 -57,64 -29,-14 -50,9 -87,6 -35,-2 -52,-18 -80,13 -10,12 -17,19 -24,29 -10,16 -8,15 -25,27l-19 16c-1,1 -2,3 -3,4l-25 43zm252 -90c-1,11 -8,8 11,4l-10 -4 -1 0zm-12 6c20,21 -17,-2 3,3 13,4 1,0 0,-1l-3 -2zm-20 5l18 7 -8 -5 -10 -2z"/>
   <path class="fil3" d="M1883 1695l13 3 26 3c12,-3 10,-6 11,3l17 3c12,-5 10,-8 9,4l13 -1c15,1 6,-1 7,7l19 4 7 1 14 -1c13,2 6,-1 4,8l16 1c11,-4 10,-7 8,4l13 -1c8,-13 3,-5 -14,-10 -41,-11 -142,-39 -179,-35l-4 -42 31 -4c-48,0 -31,-8 -34,-10l2 -2c-15,7 -8,4 -7,30 1,9 2,21 3,31l25 4z"/>
   <path class="fil1" d="M1242 1586l-6 4 -6 12 -6 5 -12 17 -6 5c0,9 2,7 -6,7 -6,13 3,7 -10,13l-1 13 44 -3 16 -77 -7 4z"/>
   <path class="fil5" d="M2150 83l-82 -4c2,7 70,13 82,4zm-97 3l-6 -1c4,6 -15,9 17,3l-11 -2zm-23 4c5,9 -11,9 12,7l-6 -5 -6 -2zm-23 17l-7 -1c1,2 2,4 3,5 0,1 2,1 2,0 0,0 1,-3 2,-4 29,-6 19,-5 16,-11 -17,5 3,-5 -8,3 -8,6 -5,4 -8,8zm-40 36c6,8 0,1 14,-13 15,-16 19,-9 13,-15 -13,6 -20,9 -27,28zm-8 12l-5 6c2,10 4,7 -6,7l-2 6c9,17 11,-9 13,-19 1,-1 4,-3 4,-2 0,1 0,-2 0,-2 0,0 -3,-1 -4,-2l0 6zm-17 34c1,11 4,9 -5,9 -7,36 -10,54 0,90 19,1 -1,3 2,-52 1,-9 3,-20 4,-30 0,-2 2,-12 2,-14 -1,-11 1,-1 -4,-12l1 9zm-1 120c9,-9 5,13 8,-18l-5 7 -3 11zm5 13c9,-10 14,13 5,-14l-5 7 0 7z"/>
   <path class="fil3" d="M2087 1748l13 -2c14,-1 7,-3 5,7l14 3 5 2 15 1c11,-4 9,-7 8,4l9 2c9,-6 7,-6 4,4l14 3c12,-4 12,-8 9,3l19 8 8 3c22,5 6,3 10,-4l-5 -23c-8,2 -5,8 -7,-4l0 -14c-9,0 -7,2 -3,-8l-6 -32c-5,7 -17,-3 -1,38 6,16 9,25 12,42 -27,-18 -28,-17 -61,-27 -8,-3 -24,-8 -32,-10 -28,-8 -16,-13 -30,4z"/>
   <path class="fil3" d="M2104 1226c13,-1 9,-4 13,6 1,2 8,5 10,6 3,1 9,1 11,1 10,-2 6,-3 11,6l4 -2c10,-4 6,-4 9,8l1 0c10,-2 7,-4 10,6l1 1c11,-2 8,-5 10,5 2,2 4,4 6,5 12,4 2,1 12,2 11,-2 9,-4 6,8l5 8 -2 8c9,-3 7,-5 5,5l24 93c11,-2 7,-3 4,9l1 28c16,-18 9,-14 4,-41 -4,-19 -4,-18 -10,-36 -23,-68 -15,-88 -112,-123 -38,-14 -26,-2 -27,0l4 -3z"/>
   <path class="fil5" d="M980 895c-13,16 -2,11 -30,12 -14,0 -24,-2 -37,-4l-27 -2c-2,10 1,8 -9,6l-9 1c-3,10 0,7 -11,7l-18 4c-2,10 1,7 -11,6l-2 0c-3,11 1,9 -9,8l-2 -2c-12,14 16,6 -19,11l2 0c-11,11 8,4 -18,12l-40 40c1,10 3,8 -7,8 -5,6 0,0 -4,10l-8 6 -2 13 -8 10 2 1 2 0c48,-63 29,-60 102,-104 76,-45 90,-21 163,-36 7,-17 15,-51 -1,-61l1 54z"/>
   <path class="fil5" d="M2223 472l-16 2c11,5 1,4 15,3 1,0 11,-4 14,-4 38,29 -12,-14 23,40 -15,-18 -6,-13 0,-22l87 90c-8,7 -5,-6 10,4l66 61 -71 -72 -24 -24 -23 -22 -25 -24 -10 -11c-13,-6 -6,-6 -19,-1 12,-23 4,2 -9,-31l-18 11z"/>
   <path class="fil3" d="M2030 1537l0 2 -1 3 -6 6 2 8c14,25 16,-50 16,-51l-11 32zm-29 41c7,11 -1,14 14,-3 16,-18 12,-5 3,-14l-17 17zm-9 6c3,10 -6,8 10,6l-7 -4 -3 -2zm-16 5l-17 0 -12 -7 -4 2 -6 13c13,1 23,3 35,1 33,-3 14,-6 14,-6l-10 -3z"/>
   <path class="fil4" d="M2030 1539l0 -2 -2 -34c-8,15 -8,23 2,36zm-12 22c0,-8 -2,-6 7,-5l-2 -8 0 -6 -4 -6c-4,25 3,15 -20,30l5 6 14 -11zm-59 28l17 0 10 -5 6 0 3 2c0,-9 -2,-6 6,-8 -12,-6 -31,-3 -42,11zm-16 -5l4 -2 11 0 -20 0 5 2zm-39 42c23,-10 27,-13 28,-34l3 -5c-11,24 -14,30 -39,34l8 5zm-42 4l-2 2 36 -2c-13,-7 -23,-9 -34,0z"/>
   <path class="fil3" d="M2084 1451l2 6 7 -9c-3,-10 1,-1 -8,-17l-2 5 1 15zm22 18l5 -1 -5 1 -1 -4c-14,-1 -11,2 -7,-11l-6 7c6,24 -4,2 14,8zm31 16l-17 -4 -15 -4c4,3 12,9 16,10 15,4 2,6 16,-2zm13 28c18,-7 0,-16 -11,-21l0 3c8,20 3,10 11,18zm-73 -51l3 10c5,-26 4,-5 -4,-11l1 1zm-13 11l-5 6 -4 7c-1,1 -2,2 -3,5l-11 9c23,-8 6,5 26,-14 18,-18 8,-11 4,-16l-7 3z"/>
   <path class="fil6" d="M2071 1354l18 17c-1,10 -3,8 7,8 0,-12 4,-11 -7,-8 7,-4 3,5 7,-8 1,-6 1,-19 1,-24 2,19 2,4 8,10l-15 -18 -3 8 -4 -12c-19,16 -6,15 5,41 -13,-22 2,-6 -17,-14z"/>
   <path class="fil2" d="M1438 4381l9 -2 6 -3 8 -3 3 -6 2 0c0,-10 -2,-7 7,-6l17 -5 2 -6 8 -1c-4,-9 -5,-7 5,-5l5 -5c8,-5 8,10 6,-18l-4 1 -10 0c-27,-6 -7,-1 -13,-10l3 -12 -5 16c10,12 4,4 12,10 11,10 -2,-5 6,6 -6,5 -20,16 -31,22l-36 27z"/>
   <path class="fil3" d="M2071 1348l0 6c19,8 4,-8 17,14 -11,-26 -24,-25 -5,-41l4 12 3 -8c1,-9 3,-7 -7,-4l-2 -11c-2,-1 -7,-3 -8,1 0,2 -3,2 -5,3l3 28zm25 31l4 2 7 -5 -2 -27c-6,-6 -6,9 -8,-10 0,5 0,18 -1,24 -4,13 0,4 -7,8 11,-3 7,-4 7,8z"/>
   <path class="fil5" d="M2006 387c7,-6 15,14 0,-4 -21,-26 -40,-24 -44,-66l-6 10c2,12 -1,5 6,17 0,1 11,15 12,17 11,15 14,19 32,26zm17 11l1 -2c21,-2 -8,-6 -10,-5 13,-5 9,-7 9,7zm13 4l-1 -3 0 5 1 -2zm39 13c18,-5 1,-3 -9,-5 -33,-9 -15,-8 -19,0l28 5z"/>
   <path class="fil3" d="M2518 3022c5,11 12,-6 3,14l23 2c0,-2 -1,-7 -1,-8 -5,-27 -4,13 -2,-6l19 -28c-7,15 -20,25 -34,27 13,-27 15,4 45,-52 -12,11 -15,19 -25,28 -11,11 -18,11 -28,23z"/>
   <path class="fil3" d="M1489 1292c-12,-6 7,-11 -22,-2 6,-22 6,-14 7,-35 -14,19 -18,24 -3,43l18 -6zm11 -7c-9,-10 7,-12 -15,-7l6 7 9 0zm13 -8l-12 0 12 0zm6 23l3 -15c0,0 1,-1 2,-2l-5 0 0 17zm-20 21c8,-2 33,-3 12,-12l-12 12z"/>
   <path class="fil4" d="M1569 1141c-5,12 2,4 -10,19 4,-3 6,-5 9,-8l13 -12c19,-13 24,-2 13,-12l-25 13zm-26 22l5 8c3,8 -1,13 4,-1 4,-13 4,-1 -1,-10l-8 3zm-1 21l0 8c9,-23 4,-7 -2,-11l2 3zm-8 33c13,-12 5,-16 0,-22l0 22zm12 11c3,8 -9,10 10,4l28 -2 -38 -2 -2 -11 -5 6c-4,10 -4,6 7,5z"/>
   <path class="fil6" d="M3345 3794l0 49 10 0 2 -54c-4,-1 -7,15 -10,-6l-2 11z"/>
   <path class="fil4" d="M1958 1066l-43 0c4,9 36,3 43,0zm13 7l-4 -3c-5,3 -16,1 -1,5 13,4 0,7 5,-2zm38 29l-9 -14 -13 -9 -8 1c-12,4 -2,-1 13,9 9,5 15,12 17,13zm15 18l-7 -11c-6,15 -2,-15 -1,6 0,1 1,5 1,14l7 -9zm3 44l1 -38 -10 51 9 -13zm-121 -90l-8 -1 13 2 -5 -1z"/>
   <path class="fil5" d="M2272 58l3 -10c-4,-2 0,-1 -4,8l1 2c5,4 9,10 14,14 15,13 -12,-8 6,5 11,7 1,1 12,6 -2,12 -6,12 5,6l-2 12c2,-2 6,-7 5,-5 0,0 1,-4 1,-4 0,-1 -3,-2 -4,-3 5,-11 6,-9 -5,-6 2,-13 4,-7 -12,-19 -10,-6 -7,-4 -20,-6zm-21 -20l-1 0 1 0c3,6 -6,5 12,8l-12 -8zm-24 -11l13 3c0,0 16,1 -3,-5 -11,-4 -2,-5 -10,2zm-13 -6l6 -1 6 -3c-24,-6 -2,-3 -12,4z"/>
   <path class="fil4" d="M1833 4342l-7 -3 -8 4 -5 1 -5 6c0,9 2,7 -7,6l-4 0c0,9 2,7 -8,6l-8 11c14,-5 55,-26 64,-35l-9 -19 4 15c1,2 1,17 3,6 0,0 -1,2 0,3 -27,-11 7,16 -10,-1z"/>
   <path class="fil4" d="M2292 1506l-12 -10 -6 -5 -9 0 -3 1c-8,3 -8,6 24,15 10,3 -5,7 6,-1zm25 55l-1 -12 -1 -1 -5 -7 1 -9c-10,0 -6,2 -7,-12l-2 5c-14,0 -11,3 -7,-11 0,5 1,11 5,20 1,3 4,11 5,12 7,13 9,12 12,15z"/>
   <path class="fil5" d="M1121 1082c-5,-6 -10,-10 -16,-16 -12,-12 -7,-10 -15,-13 -10,-3 -7,0 -8,-11l1 -2c-11,-2 -9,1 -7,-10l0 -6c-16,10 20,45 32,52 -7,4 11,15 -11,1 18,14 3,3 15,7 15,6 1,3 24,9 -22,-4 -6,-5 -15,-11z"/>
   <path class="fil5" d="M1691 4117c-1,-4 4,-107 4,-123l-3 -134 -1 257z"/>
   <path class="fil4" d="M2076 1224c-10,-22 -12,-23 -31,-31l-5 -5 -11 1 1 1c17,10 19,7 30,19 11,12 7,10 14,28l2 -13z"/>
   <polygon class="fil2" points="3354,3888 3376,3884 3356,3879 3355,3843 3345,3843 "/>
   <polygon class="fil2" points="3320,4192 3330,4187 3337,4155 3328,4151 "/>
   <path class="fil4" d="M2071 1461c-7,4 -12,-5 0,9l0 -9 6 1 -1 -1 -1 -10 -3 -10 -1 20zm-12 18l5 -6c-2,-1 5,-13 -5,0 -6,9 -1,2 0,6zm-25 9c16,3 4,5 21,-2l-15 -9c-1,2 4,-2 -3,5 -9,10 -2,-1 -12,11l9 -5z"/>
   <path class="fil5" d="M1999 4291c8,-14 8,-27 8,-45l-9 0 1 45z"/>
   <path class="fil5" d="M1178 1399l12 -6c-2,-10 -5,-8 5,-8 -2,-9 -5,-7 5,-6l-1 -5c-8,5 0,-4 -12,10 -1,1 -8,12 -9,15z"/>
   <path class="fil2" d="M1393 2698l-1 -6 -12 0c4,10 -16,11 13,6z"/>
   <path class="fil2" d="M2086 1276l11 -7c-10,-17 -12,-5 -11,7z"/>
   <path class="fil6" d="M974 1620l16 -12 0 -6c-8,5 -2,-1 -10,7 -5,5 -3,5 -6,11z"/>
   <path class="fil6" d="M1101 1479l8 1c-3,-9 -5,-8 4,-6l0 -4c-10,2 -3,-8 -12,9z"/>
   <polygon class="fil7" points="1513,1283 1513,1277 1501,1277 1501,1283 "/>
   <path class="fil5" d="M1399 1947l1 -7 -10 0c0,10 -2,7 9,7z"/>
   <polygon class="fil7" points="1820,4319 1832,4321 1814,4308 "/>
   <path class="fil7" d="M1797 4356c-12,-1 -11,-4 -8,6 10,1 8,3 8,-6z"/>
   <path class="fil3" d="M1954 161c-8,0 -6,-2 -6,7 10,0 8,3 6,-7z"/>
   <polygon class="fil7" points="1795,4091 1801,4091 1796,4074 "/>
   <polygon class="fil7" points="1090,1887 1078,1883 1078,1890 "/>
   <polygon class="fil7" points="2332,2020 2332,2015 2315,2021 "/>
   <polygon class="fil5" points="1149,1898 1149,1891 1137,1893 "/>
   <path class="fil7" d="M1676 4394c5,-12 9,-11 -2,-11l2 11z"/>
   <polygon class="fil5" points="1212,1910 1212,1903 1201,1905 "/>
   <path class="fil6" d="M1019 1566l19 -14c-9,3 -2,-3 -11,5 -7,6 -3,4 -8,9z"/>
   <polygon class="fil7" points="1252,1917 1238,1910 1238,1915 "/>
   <polygon class="fil5" points="2425,1869 2431,1869 2426,1858 "/>
   <polygon class="fil7" points="1986,1592 1986,1584 1976,1589 "/>
   <polygon class="fil5" points="1276,1922 1276,1915 1266,1916 "/>
   <polygon class="fil7" points="1374,1938 1363,1934 1363,1940 "/>
   <polygon class="fil7" points="1061,1881 1050,1875 1050,1881 "/>
   <polygon class="fil7" points="2280,1496 2282,1488 2274,1491 "/>
   <path class="fil3" d="M1942 189l-5 9c9,0 6,2 5,-9z"/>
   <path class="fil7" d="M926 1706l-5 9c9,0 6,2 5,-9z"/>
   <path class="fil5" d="M2431 1938l-5 9c9,0 6,1 5,-9z"/>
   <path class="fil3" d="M932 1688c-9,0 -7,-3 -6,7l6 -7z"/>
   <path class="fil7" d="M1685 4418c0,-20 3,-4 -6,-11l6 11z"/>
   <path class="fil7" d="M1505 4344c-10,-2 -9,-4 -5,5l5 -5z"/>
   <polygon class="fil7" points="2420,1845 2425,1845 2419,1836 "/>
   <path class="fil5" d="M1766 4373c-10,-3 -7,-4 -5,6l5 -6z"/>
   <path class="fil7" d="M1212 1624c-9,-1 -8,-3 -6,5l6 -5z"/>
   <polygon class="fil6" points="944,1672 943,1664 938,1671 "/>
   <polygon class="fil7" points="2390,1737 2385,1730 2384,1737 "/>
   <polygon class="fil7" points="2396,1753 2397,1745 2391,1745 "/>
   <polygon class="fil7" points="2379,1706 2379,1699 2373,1699 "/>
   <polygon class="fil7" points="2029,1542 2023,1542 2023,1548 "/>
   <polygon class="fil7" points="2332,1589 2331,1582 2327,1582 "/>
   <polygon class="fil7" points="1447,4379 1438,4381 1442,4383 "/>
   <polygon class="fil7" points="991,1863 984,1858 984,1862 "/>
   <polygon class="fil5" points="1363,4415 1357,4415 1360,4419 "/>
   <polygon class="fil5" points="1230,1602 1224,1607 "/>
   <polygon class="fil7" points="2349,1631 2345,1624 "/>
   <polygon class="fil3" points="962,1639 955,1642 "/>
   <polygon class="fil5" points="938,1678 932,1684 "/>
   <polygon class="fil5" points="2082,2015 2055,2011 "/>
   <polygon class="fil7" points="1685,3513 1690,3488 "/>
   <polygon class="fil7" points="1409,3637 1406,3620 "/>
   <polygon class="fil7" points="1748,3677 1745,3653 "/>
   <polygon class="fil7" points="1416,3684 1413,3670 "/>
   <polygon class="fil5" points="2010,3690 2008,3666 "/>
   <polygon class="fil7" points="1754,3735 1750,3717 "/>
   <polygon class="fil7" points="2016,3795 2012,3751 "/>
   <polygon class="fil7" points="1696,3408 1702,3390 "/>
   <polygon class="fil7" points="2008,3406 2010,3391 "/>
   <polygon class="fil5" points="1770,3868 1767,3853 "/>
   <polygon class="fil7" points="1704,3364 1706,3349 "/>
   <polygon class="fil7" points="1778,3906 1772,3890 "/>
   <polygon class="fil5" points="1455,3996 1454,3982 "/>
   <polygon class="fil7" points="1380,3264 1378,3213 "/>
   <polygon class="fil5" points="1793,4044 1791,4026 "/>
   <polygon class="fil7" points="1467,4088 1466,4072 "/>
   <polygon class="fil7" points="2374,2004 2368,2010 "/>
   <polygon class="fil5" points="2014,4101 2014,4075 "/>
   <polygon class="fil5" points="2058,2787 2054,2773 "/>
   <polygon class="fil6" points="1807,4178 1799,4137 "/>
   <polygon class="fil5" points="1341,1934 1329,1928 "/>
   <polygon class="fil7" points="2045,2682 2040,2684 "/>
   <polygon class="fil7" points="1486,4237 1483,4222 "/>
   <polygon class="fil7" points="1007,1869 998,1865 "/>
   <polygon class="fil5" points="1811,4265 1808,4233 "/>
   <polygon class="fil7" points="1378,2612 1382,2583 "/>
   <polygon class="fil7" points="2045,1193 2040,1188 "/>
   <polygon class="fil5" points="2028,2500 2025,2488 "/>
   <polygon class="fil7" points="1389,2464 1394,2433 "/>
   <polygon class="fil7" points="1826,4339 1818,4343 "/>
   <polygon class="fil7" points="2017,2439 2012,2426 "/>
   <polygon class="fil5" points="1813,4344 1808,4350 "/>
   <polygon class="fil7" points="1401,2336 1405,2314 "/>
   <polygon class="fil5" points="1440,1209 1430,1204 "/>
   <polygon class="fil7" points="2210,1786 2202,1783 "/>
   <polygon class="fil5" points="2071,1348 2068,1320 "/>
   <polygon class="fil6" points="1242,1350 1234,1345 "/>
   <polygon class="fil7" points="1995,4383 1987,4356 "/>
   <polygon class="fil7" points="1405,2191 1401,2170 "/>
   <polygon class="fil5" points="1419,4391 1415,4394 "/>
   <polygon class="fil5" points="1391,3471 1389,3445 "/>
   <polygon class="fil7" points="2107,1376 2100,1381 "/>
   <polygon class="fil7" points="1394,1977 1399,1952 "/>
   <polygon class="fil7" points="2315,1548 2310,1541 "/>
   <polygon class="fil7" points="2361,2009 2352,2014 "/>
   <polygon class="fil7" points="1721,4471 1712,4467 "/>
   <polygon class="fil7" points="1784,4483 1762,4477 "/>
   <polygon class="fil7" points="1993,4478 1988,4484 "/>
   <polygon class="fil5" points="1844,4488 1817,4485 "/>
   <polygon class="fil7" points="2000,1088 1987,1079 "/>
   <polygon class="fil7" points="1984,4485 1975,4488 "/>
   <polygon class="fil5" points="1346,4495 1330,4490 "/>
   <polygon class="fil5" points="1896,1698 1883,1695 "/>
   <polygon class="fil6" points="1392,4403 1389,4407 "/>
  </g>
 </g>
</svg>
