<?xml version="1.0" encoding="UTF-8"?>
<!DOCTYPE svg PUBLIC "-//W3C//DTD SVG 1.1//EN" "http://www.w3.org/Graphics/SVG/1.1/DTD/svg11.dtd">
<!-- Creator: CorelDRAW X7 -->
<svg xmlns="http://www.w3.org/2000/svg" xml:space="preserve" width="60.9901in" height="43.6254in" version="1.1" style="shape-rendering:geometricPrecision; text-rendering:geometricPrecision; image-rendering:optimizeQuality; fill-rule:evenodd; clip-rule:evenodd"
viewBox="0 0 7308 5228"
 xmlns:xlink="http://www.w3.org/1999/xlink">
 <defs>
  <style type="text/css">
   <![CDATA[
    .fil12 {fill:#1779EB}
    .fil3 {fill:#267EC5}
    .fil10 {fill:#4A7796}
    .fil9 {fill:#649173}
    .fil2 {fill:#77CBF6}
    .fil11 {fill:#89B3D3}
    .fil15 {fill:#8D7B3F}
    .fil14 {fill:#96AA94}
    .fil13 {fill:#9CAB68}
    .fil0 {fill:#A4EDFC}
    .fil8 {fill:#D5CB4F}
    .fil5 {fill:#F3D02F}
    .fil7 {fill:#F9D876}
    .fil1 {fill:#FDCB02}
    .fil6 {fill:#FFE9A8}
    .fil4 {fill:white}
   ]]>
  </style>
 </defs>
 <g id="Layer_x0020_1">
  <metadata id="CorelCorpID_0Corel-Layer"/>
  <g id="_534378376">
   <path class="fil0" d="M1941 2455c44,-42 40,-55 68,-90 166,-209 478,-336 760,-339 315,-2 808,150 787,471 -93,-35 -182,-110 -354,-160 -379,-109 -817,-93 -1168,94 -17,10 -83,48 -86,33 -1,-4 -4,-7 -7,-9zm-1739 1771l22 61c71,35 63,52 118,82 154,83 298,134 486,134 426,0 3188,17 3292,-9 129,-33 331,-114 436,-180 180,-114 216,-148 331,-299 77,-100 90,-91 155,-263 70,-185 91,-316 88,-527 -2,-102 -8,-110 -36,-185 -37,26 45,-35 -43,-96l-55 -42c-16,-36 -125,-94 -172,-116 -46,-22 -159,-60 -229,-72 -296,-53 -496,17 -730,151 -37,22 -58,29 -98,60 -28,22 -54,51 -82,74 -61,52 -92,87 -149,151 -63,70 -98,122 -196,37 -61,-119 319,-422 464,-497 78,-40 145,-83 230,-102 -33,-115 -179,-281 -262,-365 -335,-342 -857,-519 -1367,-431 -358,61 -624,216 -822,404 -261,249 -330,502 -424,821 -324,72 -563,176 -728,368 -221,257 -271,502 -229,841z"/>
   <path class="fil1" d="M5595 3432c18,42 7,18 14,52 17,83 29,90 27,190l-2 4c57,5 17,2 26,-1 3,0 11,-4 14,-6l16 -8c39,-23 24,-26 73,-43l18 -9 11 -18c-3,-24 -10,-21 13,-15l19 -10 15 -13c-3,-23 -9,-19 12,-16 -4,-22 -7,-16 16,-15 17,-62 17,-45 57,-77l66 -83c2,-3 4,-6 7,-9l25 -30c4,-2 11,-6 13,-8 2,-1 7,-5 9,-6 2,-1 6,-4 9,-7 12,-19 30,-51 43,-82 16,-71 0,-26 29,-49l-3 1 -5 -26c16,-50 23,-39 -2,-73l49 -6c0,-71 -3,-22 19,-40l-6 2c-4,-39 -16,-33 15,-33l1 -9c-1,-34 -11,-29 15,-29l-8 -10c15,-45 11,-40 21,-80l31 -82 -8 -25c-1,-34 -7,-41 25,-86l-4 -57c-4,-52 -2,-99 -4,-151 -3,-66 -4,-92 -5,-157l-2 -57 -19 -46 7 -9c-21,-22 -15,-1 -19,-50l4 -20c-22,-13 -14,25 -20,-37l6 -5c-24,-13 -18,27 -21,-38l7 -7c-10,-11 -12,-7 -22,-28 -18,-38 -1,5 -11,-36l0 -24c-41,-40 -44,-35 -58,-103l-1 -11c-3,-3 -8,-12 -10,-9 -1,3 -9,-8 -16,-19 -9,-12 -9,-17 -22,-36 -21,0 -17,6 -15,-15l-7 -21 -27 20c-25,-37 -6,-22 -38,-49l42 -17c-3,-2 -8,-9 -10,-7l-45 -39c-2,-2 -5,-5 -7,-7l-21 -58 7 -8c-55,-21 -21,3 -54,-37l-35 -63 -13 -8c-3,-3 -8,-11 -10,-8 -1,3 -8,-7 -18,-16 -2,-2 -6,-5 -8,-7l-46 -40c-3,-2 -6,-4 -8,-7 -3,-2 -6,-4 -8,-7l-23 -27 -63 -49c-36,-20 -37,-23 -69,-41 -41,-24 -10,-19 -59,-19l-47 5 -1 -36 -28 -12c-34,12 -24,16 -24,-20l10 0c-33,2 -26,11 -26,-19l-102 -29 -95 -44 -7 7c-67,-3 -27,3 -40,-19l-54 -5c-75,-7 -31,-4 -48,-22 -60,4 -214,-18 -309,-16 -44,1 -114,1 -156,7 -50,6 -75,24 -142,24l-83 39 -56 1c0,32 6,21 -31,18l-115 38 -51 41c-1,-3 -6,3 -8,4 -20,29 22,8 -25,29 45,20 14,10 11,12l-40 -2c-36,1 -14,-1 -36,5 -8,2 -23,14 -25,10 -3,-4 -9,4 -13,6l4 -3c-18,27 11,13 -46,33l-10 11c-19,28 15,15 -46,30l-150 130 -12 22c-2,3 -5,8 -7,10l-40 47c-1,2 -4,5 -6,8 -2,2 -5,5 -6,8l-147 232 7 -5c104,-2 54,-28 126,-37 -10,15 -8,18 -23,28l-19 10c-3,2 -8,4 -11,6l-24 13c26,48 -12,1 19,26 38,-9 36,-22 31,8 63,13 16,1 29,28l17 6 42 -1 3 47 -3 5c28,19 10,7 35,13 95,-27 57,52 132,19 6,49 10,26 -10,63 -11,-45 -29,-77 -95,-89 9,39 -12,22 43,55 81,49 22,27 106,97 41,33 30,10 61,21 -23,28 -7,-28 -20,49 43,27 26,14 48,50 33,-13 32,-25 24,7 26,-5 21,-10 13,16 29,-8 20,-10 12,21l44 55c21,2 17,-4 11,16 54,13 24,4 59,38 -16,26 -3,12 -29,26l3 1c26,25 13,14 21,41l-3 13c28,-16 18,-15 15,19l-3 -3c32,6 23,-3 20,33l-2 -9c4,2 9,2 11,7 15,34 1,3 23,10 11,3 30,6 42,8 48,7 97,-4 153,-3 22,1 51,1 72,3 73,6 57,9 71,24l27 -10c26,-1 6,-8 30,2 31,13 15,-3 34,21l62 5c85,1 53,0 72,33l23 -2 54 31 12 -2c51,15 31,11 47,33l13 -11 131 44 -3 35c27,-7 19,-11 19,17l49 42c26,18 32,25 55,36 36,-5 34,-15 22,17l7 19 2 0c37,-2 29,-10 26,27l1 1c56,2 18,0 38,21l16 27c1,2 3,7 5,10l20 4c71,6 41,-33 28,-69l42 42c-48,23 -35,4 -48,57l4 16 19 11 62 96c58,106 89,114 93,186l-6 33 11 -12c52,-13 33,8 24,40l36 49 8 -82c27,62 20,64 -16,98l8 35zm-1381 -1007c12,-30 1,-22 42,-39 -20,46 -3,18 -42,39z"/>
   <path class="fil2" d="M202 4226c27,124 94,298 157,381l122 150c58,60 85,69 154,118 271,192 559,164 921,164 875,0 1815,12 2684,0 195,-3 285,-29 453,-89 50,-18 133,-60 180,-91 198,-133 255,-147 413,-400 260,-413 215,-855 -18,-1278l-113 -157c-60,-60 -88,-86 -159,-122l55 42c88,61 6,122 43,96 28,75 34,83 36,185 3,211 -18,342 -88,527 -65,172 -78,163 -155,263 -115,151 -151,185 -331,299 -105,66 -307,147 -436,180 -104,26 -2866,9 -3292,9 -188,0 -332,-51 -486,-134 -55,-30 -47,-47 -118,-82l-22 -61z"/>
   <path class="fil3" d="M57 4218c11,17 21,5 -1,45l1 -45zm5307 -1142l32 7c-16,14 9,36 -32,-7zm-97 -176l-52 -9c-29,-64 -9,-73 -76,-107 -66,-33 -84,-31 -114,-83 -25,-36 -42,-22 -83,-69l-13 11 -37 -4 -10 -29 -12 2c-68,-14 3,8 -36,-12 -3,-2 -8,-4 -10,-9 -2,-6 -5,-7 -8,-10l-23 2c-19,-4 -19,-2 -39,-10 -57,-24 -5,1 -33,-23l-62 -5c-52,-7 -30,2 -64,-23l-27 10 -296 0 -63 -7c-37,-57 38,30 -13,-42l2 9 -25 3 5 -36c-4,4 -10,8 -13,11 -1,3 0,14 -1,12 -2,-2 6,9 9,13l-18 -8c-2,-2 -5,-5 -6,-7l-33 -61c-10,-22 -4,4 -10,-34l6 -22 -3 -18c-30,-15 -12,21 -28,-39 -4,-12 2,-13 -26,-31 -13,-13 -11,-8 -24,-25 -4,-5 -14,-24 -17,-30l-3 -11c-27,-10 -9,5 -33,-21 -28,-31 -6,-11 -15,-29l-16 -2 3 32c-79,-44 -29,-20 -22,-30 -7,-35 9,5 -9,-26 -2,-3 -10,-12 -12,-15 -15,-23 -2,12 -22,-38l-3 -13c-33,1 -28,10 -20,-21 -24,7 -19,11 -13,-14 -26,7 -22,13 -18,-12 -24,6 -20,12 -18,-10 -23,5 -20,11 -17,-12 -21,3 -15,7 -14,-14 -23,4 -20,11 -18,-11l-16 -1c-57,-12 -18,-13 -63,7l29 -53 -14 0c-52,-12 -17,6 -53,-21l-118 -91 -5 4c-52,-8 -18,1 -28,-22 -23,5 -18,10 -18,-12l-8 -1 -16 -16 -7 1c-27,1 -22,9 -22,-15l-11 3c-29,3 -24,11 -24,-14l-3 -1 -23 -13 -16 -3c-27,1 -22,9 -22,-15l-10 3c-30,2 -26,11 -26,-14l-19 -1c-30,2 -26,11 -26,-13l-16 -1c-32,4 -26,13 -26,-14l-5 1 -30 -17 -93 -12 -31 -19 -34 6c-56,-7 -26,-4 -38,-20l-31 4 -55 -18 -76 7 -297 -2 -59 -5 -52 21 -60 -5 -32 16 -25 -1c-11,19 22,16 -34,14l-27 -3 -29 18 -27 -3c-9,24 15,18 -26,20l-27 -4 -24 14 -17 1c0,21 5,14 -19,15l-47 15c0,26 6,17 -25,15l-11 -3c0,24 5,16 -23,15l-19 2 -20 13 -9 1 -18 13 -36 16 -23 14 1 2c-4,2 -8,6 -11,7 -2,2 -8,5 -11,7 -30,16 23,-3 -26,8l-3 3c-3,2 -6,6 -8,8l-55 35 -28 12 -15 17 -17 15c0,25 6,18 -21,18l-10 -3 -56 42c-26,32 -66,56 -102,91 -35,35 -65,64 -93,102l-46 76c-2,2 -8,11 -9,8 -2,-3 -7,5 -10,8l-4 -3c-17,62 -1,21 -28,41l-3 -2c-1,3 -13,34 -14,35 -15,28 -5,10 -23,29l-4 -3 -16 17 1 11c0,23 6,18 -17,18l-1 5c-12,79 4,20 -22,47l-2 5c2,24 8,18 -16,18l1 6c3,24 9,19 -14,19l1 15c2,26 9,20 -15,20l2 7c2,27 9,21 -17,21l0 6 -14 22 -14 50c2,29 11,25 -13,25l-2 14c2,28 10,23 -15,23l-10 54 -19 27 1 27c3,31 13,26 -12,26l0 5c-15,39 7,17 -29,28l-14 -1c0,25 5,17 -23,14l-70 17c0,25 5,17 -24,14l-21 0c0,24 5,17 -21,15l-25 -1 -22 13 -3 2c0,25 6,18 -21,15l-12 -3 -25 14 -64 27c0,22 5,16 -17,16l-5 1c0,24 5,18 -18,16l-11 -1c0,24 5,16 -21,15l-8 -2 -43 27 0 3c-3,3 -6,6 -8,7l-34 20 1 1c-14,18 0,9 -31,31 -16,10 -26,12 -46,23 -8,15 -117,128 -141,157 0,26 6,19 -19,19l-3 1c-18,54 -13,50 -50,86 -2,2 -8,10 -9,7 -1,-2 -6,5 -9,8l-12 20 -15 22 0 6 -15 23 -13 34c-1,27 8,23 -14,23l0 7 -14 22 5 14 -22 25 1 23c2,27 9,22 -14,22l1 23c4,30 12,24 -14,24l1 8 -16 30 0 37 -14 37 -2 60 -12 67 0 145 14 70 -2 58 19 35 -2 28 16 30 -3 26c21,13 18,-23 19,30l-3 27c23,0 15,-5 13,22l-2 13c24,0 17,-5 15,20l3 16 12 20 -1 15c22,0 14,-5 13,23l2 18c23,0 16,-5 17,20l1 -4c3,3 6,7 8,11 2,3 5,8 6,12 21,41 -5,-34 9,28l0 7c21,0 14,-5 15,19l0 4c24,0 17,-5 18,19l11 25c24,0 18,-6 18,18l0 7c10,12 9,8 20,26 1,1 17,30 19,35l7 -12 46 49c16,20 26,34 45,55 56,65 58,19 104,91l-4 7c16,6 20,5 33,13l28 23c19,33 34,33 66,48 81,9 22,-5 48,24l58 29c29,-2 23,-10 23,17l14 2c29,-1 24,-10 24,14l15 2c26,-2 21,-9 21,14l12 -2c28,-2 23,-10 23,14l17 2 25 13 28 -4c56,-1 18,-3 31,17l38 -3c64,-2 21,-3 37,17l36 0c15,0 24,-2 41,1 33,5 -4,-3 25,5l21 10c98,-16 326,-4 439,-4 961,0 2024,25 2971,-22l35 -24 29 5 27 -12 21 0 25 -20 18 8c0,-23 -5,-16 21,-16l5 0c0,-24 -5,-15 23,-14l18 -3 28 -13 1 2c0,-25 -6,-19 19,-18l10 2c0,-23 -4,-15 24,-14l63 -27c0,-23 -5,-16 22,-15l5 -1 18 -15 11 0 19 -15 26 -11c0,-23 -5,-15 22,-14l4 -2c0,-28 -8,-23 18,-20l29 -6c14,-20 8,-16 36,-31 68,-73 185,-130 232,-227 -1,-27 -8,-21 19,-21l40 -46c15,-28 13,-23 30,-36l-1 -12c-1,-25 -7,-19 16,-19l0 -5c12,-74 -3,-23 25,-46l0 -2 16 -18 1 -9c7,-40 -2,-8 11,-34 1,-2 7,-3 8,-8 1,-6 7,-5 10,-8l0 -5c-2,-29 -11,-25 13,-25l1 -5 12 -20 2 -22c-3,-27 -9,-21 16,-21l-3 -7c-3,-31 -12,-26 15,-26l2 -10c0,-32 -10,-28 14,-28l0 -32c-2,-26 -9,-21 14,-21l-1 -26 17 -30 12 -127c2,-47 -5,-25 16,-44l0 -235 -22 -76 7 -52 -17 -48c-9,-63 -34,-111 -41,-181 -28,20 -16,15 -13,-21l4 0c-28,-13 -22,20 -24,-37l0 -43 -11 12 -23 -28c-2,-3 -2,-7 -4,-10l-21 -51c-1,-42 -45,-132 -81,-151 -27,0 -18,6 -17,-26l-7 -25c-22,-14 -12,5 -33,-35 -7,-14 0,-5 -14,-24 -1,-2 -12,-11 -15,-14l-27 14 -15 -14 5 -18 -17 -10 -3 38c1,3 3,8 3,11l7 24c-24,-39 -23,-20 -34,-60l39 -25zm-126 -42c77,-56 37,-6 41,-4 -17,11 5,30 -41,4zm-23 -65c-47,4 -43,-5 -67,-46l67 46zm-222 -124c45,-7 22,-8 47,12 -51,7 -25,3 -47,-12zm100 233c71,36 99,62 159,122l113 157c233,423 278,865 18,1278 -158,253 -215,267 -413,400 -47,31 -130,73 -180,91 -168,60 -258,86 -453,89 -869,12 -1809,0 -2684,0 -362,0 -650,28 -921,-164 -69,-49 -96,-58 -154,-118l-122 -150c-63,-83 -130,-257 -157,-381 -42,-339 8,-584 229,-841 165,-192 404,-296 728,-368 94,-319 163,-572 424,-821 198,-188 464,-343 822,-404 510,-88 1032,89 1367,431 83,84 229,250 262,365 -85,19 -152,62 -230,102 -145,75 -525,378 -464,497 98,85 133,33 196,-37 57,-64 88,-99 149,-151 28,-23 54,-52 82,-74 40,-31 61,-38 98,-60 234,-134 434,-204 730,-151 70,12 183,50 229,72 47,22 156,80 172,116zm-797 -347c-9,-31 15,-2 18,4 21,32 -16,5 -18,-4zm-71 0c2,-37 13,-8 15,0 3,12 -16,19 -15,0zm-92 -205c-7,40 9,22 -32,29l32 -29zm-101 -109c-2,-27 6,-11 8,-1 6,23 -8,4 -8,1z"/>
   <path class="fil4" d="M1941 2455c3,2 6,5 7,9 3,15 69,-23 86,-33 351,-187 789,-203 1168,-94 172,50 261,125 354,160 21,-321 -472,-473 -787,-471 -282,3 -594,130 -760,339 -28,35 -24,48 -68,90z"/>
   <path class="fil1" d="M6468 700l1 -6c-11,24 18,20 -29,21 -10,21 25,14 -37,35l-10 34 -30 -6c-2,25 5,23 -17,15 11,29 16,25 -13,15 8,28 12,23 -15,13 9,29 12,23 -16,14 9,28 13,22 -15,13 9,28 14,23 -13,15 9,29 15,25 -14,15 10,29 14,23 -16,14 9,26 13,21 -14,13 8,28 14,23 -14,15 9,28 13,23 -14,14 8,28 13,23 -14,14 9,30 14,25 -16,15 9,22 10,15 -14,12l3 33 -36 4 6 0c-17,51 -20,58 -56,86l4 15 6 71 -5 6c3,4 6,5 7,11l33 44c35,38 17,5 42,53l30 -2 90 -2 15 1 82 -58 22 -25 203 -203c23,1 20,7 14,-13 14,-31 20,-33 35,-52 11,-14 9,-12 19,-25 15,-16 13,-13 27,-26l-5 4 2 -111c-18,-13 -9,-5 -25,-22 -11,-10 -8,-8 -20,-22 -11,-13 -20,-21 -33,-39 -71,-2 -25,-2 -41,-24l-1 8 -108 13z"/>
   <path class="fil1" d="M6628 3168l40 -2c-4,3 -8,4 -9,8 -8,24 -28,-3 -31,-6zm-12 -235c-11,33 3,13 -19,38 -28,33 -20,15 -39,28l13 9 -16 116c19,19 -8,-19 19,23 10,13 6,11 16,26 18,29 16,18 34,52l44 10c68,-8 24,-1 33,12l40 24 19 -5c30,1 14,-6 41,7 22,11 14,10 26,23l48 1c32,5 5,-7 40,7 67,26 13,3 38,25l1 -4c40,8 13,-3 46,10 19,8 22,13 31,19l150 -4c3,-3 7,-12 9,-9l58 -62c1,-1 14,-26 16,-30 2,-33 -9,-28 18,-28l0 -48c-24,-13 -14,25 -23,-35l6 2c-35,0 -28,7 -17,-26 -21,-9 -14,33 -20,-31l-3 -11 -29 -4c-52,-3 -36,-7 -50,-28 -20,0 -15,5 -12,-14 -40,11 -34,12 -58,-13l-34 1 -34 -16c-45,-2 -25,2 -41,-20l-15 8c-65,-3 -22,2 -37,-19l3 3c-68,-6 -28,2 -41,-21l-15 4 -51 -17c-11,1 -44,16 -43,-14l-108 -1c-10,21 -6,17 -44,12z"/>
   <path class="fil1" d="M6343 4310c-5,-36 33,4 13,4 -10,1 -11,16 -13,-4zm-216 -232c-41,-36 -17,30 -15,-15 1,-26 -2,-10 12,-27 4,8 42,-24 3,42zm-49 -133c32,-35 -44,-10 37,-39 -17,46 11,25 -37,39zm9 -114c10,29 11,20 -18,11 7,25 9,17 -18,10 8,27 14,24 -12,16 -4,51 1,19 -19,24l-5 26 0 101c8,8 8,6 20,22 15,20 3,5 10,20l6 23c20,-2 16,-7 15,12 26,-7 22,-12 16,14l8 20c22,-3 18,-8 16,12 23,-3 19,-9 17,12 23,-4 18,-9 13,15 22,-3 16,-6 12,17 24,-5 18,-10 18,14 58,62 109,109 166,166 64,64 97,84 215,47l37 -42c3,-3 10,-13 13,-16 18,-17 5,-7 27,-21l0 -130 -44 4 9 -36c-22,4 -16,7 -12,-16 -21,4 -15,7 -12,-17 -22,3 -18,9 -15,-12 -25,5 -20,10 -15,-15 -22,4 -17,8 -13,-14 -24,5 -18,9 -14,-16 -21,3 -16,7 -13,-14 -24,4 -20,10 -16,-13 -23,4 -19,9 -15,-13 -26,5 -22,11 -16,-14 -22,6 -14,8 -10,-18 -24,3 -19,8 -13,-16l-10 -16c-49,-42 -143,-160 -211,-166l-82 -2c-11,15 31,11 -35,21z"/>
   <path class="fil1" d="M5327 116c9,64 5,21 -18,36l1 11c-6,61 1,26 -20,37l0 31c-3,14 -3,22 -9,38 -14,33 7,15 -19,23 11,51 12,24 -12,33l-12 79c-3,64 2,28 -17,40l9 15c-5,78 -3,28 -23,46l2 10c3,73 7,31 -18,45l-2 96c14,12 10,8 24,25l72 81c28,1 91,22 111,-1 35,-30 -38,-11 34,-34l-15 -34 56 7c3,-10 8,-25 9,-29 1,-2 2,-8 3,-11 18,-52 3,-33 41,-48 3,-53 -4,-17 21,-30l-10 -23c3,-28 -4,-21 8,-54 23,-68 7,-18 25,-41l-3 -18c7,-54 5,-54 37,-85l18 -99 -3 -117 -12 -48c-28,-3 -26,6 -17,-18 -26,8 -23,15 -17,-11l-32 -8c-25,0 -22,7 -16,-16 -130,-1 -125,20 -196,72z"/>
   <path class="fil1" d="M4112 43c-10,22 -6,21 -21,37 -17,18 -4,4 -27,15l3 157 8 78c27,20 13,-1 26,37 0,0 5,37 9,56l0 16c18,19 6,-14 27,37 11,29 6,30 9,52l-9 23c45,57 26,51 47,92 21,40 23,14 65,86l90 20 134 -96 -3 -1c-2,-35 -13,-30 15,-30l-1 -88c-19,-14 -14,26 -19,-40l5 -19c-19,-14 -13,27 -17,-40l4 -7c-26,-28 -15,-6 -29,-48 -9,-28 -6,-28 -9,-50l-5 -82c-23,-15 -16,28 -20,-40l-7 -32c-22,-17 -20,31 -26,-46 -6,-73 -32,-97 -100,-107l-149 20z"/>
   <path class="fil1" d="M7173 2037c-15,9 -3,7 -24,10 -26,4 -14,-1 -24,-6 15,-13 -6,-52 48,-4zm-197 -223c-8,6 -13,12 -33,20 -31,12 -9,3 -43,7l-77 15c-12,8 -12,11 -35,21 -13,5 -22,6 -36,10 -25,6 -47,10 -72,16l-3 -4c0,26 6,20 -21,14 -2,3 -6,6 -7,8 -35,47 -25,32 -30,76l-40 11 -19 5 0 70c25,11 14,-23 24,36l-4 -2c31,0 20,-6 18,30l27 26c63,12 17,-2 35,27 127,33 127,-8 228,-13 12,-11 4,-13 29,-23 26,-10 28,-6 52,-9l17 3c14,-27 29,-68 87,-55l37 16c4,2 8,5 13,7l6 0 20 -13c205,-102 49,-52 159,-121l0 -91c-2,-2 -6,-6 -8,-7l-81 -102c-135,-17 -122,4 -243,22z"/>
   <path class="fil1" d="M3142 956c0,-27 13,-10 16,2 3,14 -16,27 -16,-2zm-39 -271c2,-35 50,-11 64,2l-64 -2zm-52 -49l-24 6c2,24 7,18 -18,12 8,26 14,22 -12,16 6,26 10,20 -17,11 8,24 11,15 -14,24l5 21 -1 90 0 54c30,6 52,39 77,65 28,30 57,60 79,81l51 50c2,2 7,12 8,10 2,-3 6,6 8,9 16,20 72,76 102,102 50,45 67,50 154,53l32 -29c84,-65 26,-21 70,-74l19 -17 -2 -15 0 -68 4 -22 -141 -149c-1,-5 -4,-6 -6,-9l-61 -10 -11 -57c-34,11 -31,19 -18,-14 -31,11 -26,17 -15,-14 -30,11 -25,16 -14,-14 -31,11 -26,15 -14,-15 -31,12 -26,17 -15,-14 -30,11 -25,16 -14,-14 -31,11 -26,16 -14,-15 -30,12 -26,17 -15,-14 -30,11 -25,16 -14,-14 -30,11 -25,16 -15,-14 -28,10 -24,16 -16,-12 -60,15 -17,5 -34,-20l-7 -1 -73 6 -24 15z"/>
   <path class="fil5" d="M3189 636c-8,28 -12,22 16,12 -10,30 -15,25 15,14 -11,30 -16,25 14,14 -11,31 -15,26 15,14 -12,31 -17,26 14,15 -11,30 -16,25 14,14 -11,31 -16,26 15,14 -12,30 -17,26 14,15 -11,30 -16,25 14,14 -11,31 -16,25 15,14 -13,33 -16,25 18,14l11 57 61 10c-15,-35 8,-9 -28,-44 -44,-42 -2,-13 -44,-23 4,-31 10,-26 -18,-14 12,-31 16,-25 -15,-14 11,-30 15,-24 -14,-14 10,-31 17,-28 -14,-15 12,-31 16,-26 -15,-14 12,-31 16,-26 -14,-14 11,-31 17,-27 -14,-15 13,-30 16,-24 -15,-14 10,-29 15,-24 -14,-14 10,-30 15,-24 -15,-14 10,-27 12,-19 -16,-12 -2,-23 26,-15 -34,-20 17,25 -26,35 34,20z"/>
   <path class="fil6" d="M6403 750c-37,12 -12,-14 -40,28 -32,-10 -28,-16 -17,15 -26,-7 -21,-11 -13,15 -28,-9 -24,-15 -15,13 -29,-8 -26,-15 -16,14 -28,-10 -24,-15 -15,13 -28,-9 -23,-13 -13,15 -28,-8 -23,-12 -14,15 -28,-9 -24,-15 -16,14 -27,-10 -23,-15 -14,13 -28,-8 -23,-13 -14,15 -28,-9 -23,-14 -14,14 -28,-9 -23,-13 -14,14 -29,-9 -23,-13 -16,15 -26,-9 -22,-14 -14,12l-21 4 -12 33 36 -4 -3 -33c24,3 23,10 14,-12 30,10 25,15 16,-15 27,9 22,14 14,-14 27,9 23,14 14,-14 28,8 22,13 14,-15 27,8 23,13 14,-13 30,9 26,15 16,-14 29,10 23,14 14,-15 27,8 22,13 13,-15 28,9 24,15 15,-13 28,9 25,15 16,-14 27,10 23,15 15,-13 29,10 24,14 13,-15 22,8 15,10 17,-15l30 6 10 -34c62,-21 27,-14 37,-35 47,-1 18,3 29,-21 -59,6 -23,-1 -29,21 -68,28 14,-25 -19,9 -18,19 -8,7 -18,26z"/>
   <path class="fil5" d="M5924 3447c-40,32 -40,15 -57,77 -23,-1 -20,-7 -16,15 -21,-3 -15,-7 -12,16l-15 13 -19 10c-23,-6 -16,-9 -13,15l-11 18 -18 9c-49,17 -34,20 -73,43l-16 8c-3,2 -11,6 -14,6 -9,3 31,6 -26,1l11 35 64 -17 1 -15 44 -55c2,-5 6,-4 9,-6 24,8 20,14 18,-9 24,3 18,7 11,-18 23,3 18,8 13,-15 26,8 22,15 19,-10 25,7 21,12 15,-13 25,4 19,8 12,-16 24,5 19,10 16,-15 18,-13 3,1 22,-21l32 -47c0,-4 2,-6 3,-9 19,-17 26,-15 38,-22l3 6c-5,-31 -13,-26 16,-20 -11,-28 -20,-26 9,-20 13,-34 -2,-12 26,-17 -13,-28 -22,-24 8,-20l-2 -29 -25 30c-3,3 -5,6 -7,9l-66 83z"/>
   <path class="fil7" d="M4112 43c-46,11 -39,5 -48,52 0,0 -23,5 -23,75 1,66 26,82 26,82l-3 -157c23,-11 10,3 27,-15 15,-16 11,-15 21,-37l149 -20c-12,-31 -35,-23 -75,-19 0,0 -43,8 -45,8 -31,16 -15,8 -29,31z"/>
   <path class="fil7" d="M6087 3831c-28,-9 -25,-17 -18,11 -30,-10 -28,-19 -18,10 -27,-8 -21,-11 -12,16 -21,7 -19,-28 -19,24 -28,-9 -15,-8 -5,26 -24,21 -32,87 0,101 1,46 3,24 30,42l6 23c-9,25 -12,19 15,12 -1,21 -6,15 16,14l8 20 16 12 17 12 13 15 12 17c-5,22 -8,14 18,14 0,-24 6,-19 -18,-14 4,-23 10,-20 -12,-17 5,-24 10,-19 -13,-15 2,-21 6,-15 -17,-12 2,-20 6,-15 -16,-12l-8 -20c6,-26 10,-21 -16,-14 1,-19 5,-14 -15,-12l-6 -23c-7,-15 5,0 -10,-20 -12,-16 -12,-14 -20,-22l0 -101 5 -26c20,-5 15,27 19,-24 26,8 20,11 12,-16 27,7 25,15 18,-10 29,9 28,18 18,-11 66,-10 24,-6 35,-21l82 2c-22,-16 38,-20 -51,-19 -57,0 -23,7 -31,17 -22,-3 -47,-16 -35,21z"/>
   <path class="fil7" d="M3496 1784l0 12 21 1 147 -232c1,-3 4,-6 6,-8 2,-3 5,-6 6,-8l40 -47c2,-2 5,-7 7,-10l12 -22c-3,2 -9,1 -11,6 -2,6 -8,5 -11,7l-132 170c-2,2 -5,5 -7,7 -1,3 -4,6 -6,9l-72 115z"/>
   <path class="fil8" d="M5338 2978l18 0c-2,23 -6,17 19,11l-4 24 7 25c27,0 18,-6 17,26 36,19 80,109 81,151l37 38c3,2 7,7 9,9 2,2 5,6 8,9 -4,-72 -35,-80 -93,-186l-62 -96 -19 -11 -4 -16c-8,-14 -6,-12 -22,-30l-21 8c3,3 14,12 15,14 14,19 7,10 14,24z"/>
   <path class="fil9" d="M4568 2532c-14,-15 2,-18 -71,-24 -21,-2 -50,-2 -72,-3 -56,-1 -105,10 -153,3l0 24 296 0z"/>
   <path class="fil7" d="M5327 116c-17,8 -11,-23 -18,36 23,-15 27,28 18,-36 71,-52 66,-73 196,-72 -6,23 -9,16 16,16l32 8c-6,26 -9,19 17,11 -9,24 -11,15 17,18 0,-31 9,-28 -17,-18 8,-28 10,-20 -17,-11 -3,-3 -6,-11 -8,-8 -1,3 -6,-6 -8,-7 -33,-14 -1,-4 -32,-9 -18,-20 37,-10 -42,-23 -81,5 -143,31 -154,95z"/>
   <path class="fil10" d="M5267 2900l-6 3 -6 9 17 10 -5 18 19 -4 -4 18 27 -14 1 -12 -24 8c8,-30 14,-26 -14,-14 15,-30 22,-26 -11,-19 -4,-26 5,-11 -10,-33l-1 -1c-34,0 -26,8 -26,-27l-2 0 -29 -36c-23,-11 -29,-18 -55,-36l-49 -42c-38,7 -37,17 -19,-17 -42,-2 -8,12 -45,-10 30,52 48,50 114,83 67,34 47,43 76,107l52 9z"/>
   <path class="fil5" d="M3524 1792l0 26 5 -4c34,13 34,16 63,24 8,27 0,20 31,8 6,25 -31,11 29,28 -15,33 -13,21 17,6 1,4 3,5 4,11 1,5 4,8 6,10l21 25 14 0 -3 -47 -42 1 -17 -6c-13,-27 34,-15 -29,-28 5,-30 7,-17 -31,-8 -31,-25 7,22 -19,-26l24 -13c3,-2 8,-4 11,-6l19 -10c15,-10 13,-13 23,-28 -72,9 -22,35 -126,37z"/>
   <path class="fil5" d="M3746 1944l1 18 17 11 18 11c20,-2 14,-6 14,14l17 12c23,-8 18,-13 18,10 26,-7 22,-13 18,12l13 14 20 21 3 13c5,3 22,13 27,18 3,2 12,10 15,13 25,28 11,11 20,46l16 2c13,-77 -3,-21 20,-49 -31,-11 -20,12 -61,-21 -84,-70 -25,-48 -106,-97 -55,-33 -34,-16 -43,-55 66,12 84,44 95,89 20,-37 16,-14 10,-63 -75,33 -37,-46 -132,-19z"/>
   <path class="fil8" d="M6555 3124c0,33 -5,35 17,67 29,41 19,24 52,34 22,21 8,13 44,10 8,19 -19,18 33,12 -9,-13 35,-20 -33,-12l-44 -10c-18,-34 -16,-23 -34,-52 -10,-15 -6,-13 -16,-26 -27,-42 0,-4 -19,-23l16 -116c-12,9 -27,-3 -36,47 0,1 3,39 3,40 8,32 3,15 17,29z"/>
   <path class="fil7" d="M6265 2620c27,-46 19,-91 17,-151 -1,-26 -3,-55 -5,-81 -3,-28 4,-5 -4,-36 -13,-47 -11,-28 -17,-40 1,65 2,91 5,157 2,52 0,99 4,151z"/>
   <path class="fil7" d="M5924 3447c-1,3 -3,5 -3,9l-32 47c-19,22 -4,8 -22,21 3,25 8,20 -16,15 7,24 13,20 -12,16 6,25 10,20 -15,13 3,25 7,18 -19,10 5,23 10,18 -13,15 7,25 13,21 -11,18 2,23 6,17 -18,9 -3,2 -7,1 -9,6l-44 55 43 -28c44,-30 192,-162 202,-216 1,-6 4,-8 7,-12 -12,7 -19,5 -38,22z"/>
   <path class="fil11" d="M2810 1602c-48,-32 -207,-28 -268,-14 -44,10 -13,3 -29,12l297 2z"/>
   <path class="fil5" d="M6037 1741l7 21c-2,21 -6,15 15,15l-15 -15c8,-26 17,-23 -7,-21 -9,-45 6,3 -9,-32 -2,-5 -11,-23 -16,-32 -11,-15 -14,-16 -18,-21l-12 -16c-17,-22 -1,-25 -51,-56l21 58c2,2 5,5 7,7l45 39c2,-2 7,5 10,7l-42 17c32,27 13,12 38,49l27 -20z"/>
   <path class="fil8" d="M5609 3574l17 48 -7 52 17 0c2,-100 -10,-107 -27,-190 -7,-34 4,-10 -14,-52l-27 -39c7,70 32,118 41,181z"/>
   <path class="fil5" d="M4035 2216c-8,26 -14,22 13,16 -11,28 -17,23 12,21l-5 22c28,18 22,19 26,31l23 2c-14,28 -20,24 11,16l-6 21 3 18c22,0 16,-5 17,18l16 7c26,-14 13,0 29,-26 -35,-34 -5,-25 -59,-38 6,-20 10,-14 -11,-16l-44 -55c8,-31 17,-29 -12,-21 8,-26 13,-21 -13,-16 8,-32 9,-20 -24,-7l3 11 21 -4z"/>
   <path class="fil6" d="M6618 703c13,18 22,26 33,39 12,14 9,12 20,22 16,17 7,9 25,22l-2 111c23,-22 24,39 24,-55 0,-20 -17,-47 -22,-56 -4,-60 -25,-77 -78,-83l-41 -24c16,22 -30,22 41,24z"/>
   <path class="fil8" d="M6425 3994c-6,24 -11,19 13,16 -4,26 -12,24 10,18 -6,25 -10,19 16,14 -4,22 -8,17 15,13 -4,23 -8,17 16,13 -3,21 -8,17 13,14 -4,25 -10,21 14,16 -4,22 -9,18 13,14 -5,25 -10,20 15,15 -3,21 -7,15 15,12 -3,24 -9,21 12,17 -4,23 -10,20 12,16l-9 36 44 -4c-15,-20 -4,-6 -18,-20 -1,-1 -7,-2 -8,-6 -1,-5 -6,-4 -9,-6 7,-23 12,-19 -12,-16 5,-24 11,-20 -12,-17 4,-22 8,-16 -15,-12 3,-23 8,-18 -15,-15 6,-24 11,-20 -13,-14 4,-23 9,-19 -14,-16 4,-22 9,-18 -13,-14 2,-22 7,-17 -16,-13 4,-23 8,-19 -15,-13 5,-25 9,-19 -16,-14 6,-25 13,-21 -10,-18 4,-22 9,-18 -13,-16 5,-20 9,-15 -10,-16l10 16z"/>
   <path class="fil6" d="M7129 2126c79,-11 95,-18 134,-59l45 -36 0 -39c-110,69 46,19 -159,121l-20 13z"/>
   <path class="fil5" d="M5396 761l28 -6 20 -17c2,-1 7,-4 9,-7 3,-2 6,-4 9,-6 25,-23 -37,41 17,-17l17 -23c17,-44 -5,20 14,-28 11,-26 7,-13 14,-45 -38,15 -23,-4 -41,48 -1,3 -2,9 -3,11 -1,4 -6,19 -9,29l-56 -7 15 34c-72,23 1,4 -34,34z"/>
   <path class="fil8" d="M5025 2701c37,22 3,8 45,10 -18,34 -19,24 19,17 0,-28 8,-24 -19,-17l3 -35 -131 -44c41,47 58,33 83,69z"/>
   <path class="fil5" d="M5535 3335l24 -3 0 40 -4 0c24,0 17,-5 13,21l27 39 -8 -35c36,-34 43,-36 16,-98l-8 82 -36 -49c9,-32 28,-53 -24,-40l0 43z"/>
   <path class="fil6" d="M6616 2933l-40 17 -18 49c19,-13 11,5 39,-28 22,-25 8,-5 19,-38 38,5 34,9 44,-12l108 1c-1,30 32,15 43,14l51 17c-14,-12 24,-24 -51,-17l-43 -14c-46,-18 -64,-17 -108,-1 -12,-14 -6,-12 -25,-3 -2,1 -8,5 -10,6 -3,1 -7,6 -9,9z"/>
   <path class="fil7" d="M3449 1240c58,-12 63,-20 122,-76l-1 -44 -19 17c-44,53 14,9 -70,74l-32 29z"/>
   <path class="fil5" d="M6986 2158l34 -3c33,-30 6,-18 59,-29l44 0c-5,-2 -9,-5 -13,-7l-37 -16c-58,-13 -73,28 -87,55z"/>
   <path class="fil6" d="M3983 1269c4,-2 10,-10 13,-6 2,4 17,-8 25,-10 22,-6 0,-4 36,-5 28,-40 0,-21 54,-39 2,-1 7,-7 8,-4l51 -41c-52,16 -154,60 -187,105z"/>
   <path class="fil9" d="M3700 1926l-21 -25c-2,-2 -5,-5 -6,-10 -1,-6 -3,-7 -4,-11 -30,15 -32,27 -17,-6 -60,-17 -23,-3 -29,-28 -31,12 -23,19 -31,-8 -29,-8 -29,-11 -63,-24l118 91c36,27 1,9 53,21z"/>
   <path class="fil7" d="M4249 729c-42,-72 -44,-46 -65,-86 -21,-41 -2,-35 -47,-92 7,46 17,87 50,128 2,2 5,5 7,8l43 36c3,2 8,4 12,6z"/>
   <path class="fil6" d="M6401 1212c20,-11 10,-2 32,-18l81 -76c44,-42 63,-53 90,-109l-203 203z"/>
   <path class="fil7" d="M3572 1015c-23,-58 -87,-137 -147,-158 2,3 5,4 6,9l141 149z"/>
   <path class="fil6" d="M7076 3013c24,25 18,24 58,13 -3,19 -8,14 12,14l33 1c7,10 7,16 17,27l29 4c-19,-31 4,-34 -46,-31 7,-34 -34,-17 -45,-15 7,-24 -48,-13 -58,-13l-34 -19 0 20 34 -1z"/>
   <path class="fil11" d="M457 4962c-46,-72 -48,-26 -104,-91 -19,-21 -29,-35 -45,-55l-46 -49 43 67c68,77 42,60 152,128z"/>
   <path class="fil7" d="M4339 749c36,-3 50,-5 80,-26 16,-11 21,-15 31,-28 31,-40 2,1 23,-42l-134 96z"/>
   <path class="fil6" d="M7308 1901l0 -33c-2,-2 -6,-9 -6,-7 -1,2 -6,-6 -7,-7 -1,-2 -5,-6 -6,-8 -1,-2 -4,-6 -5,-9l-14 -29c-10,-22 5,-5 -51,-16l81 102c2,1 6,5 8,7z"/>
   <path class="fil6" d="M2965 674l15 7c-7,-24 -9,-17 17,-11 -6,-26 -13,-23 12,-16 -8,-26 -10,-18 18,-12l24 -6 -1 -15 25 0 73 -6c-15,-9 28,-20 -51,-18 -60,2 -42,17 -47,24 -58,11 -31,13 -85,53z"/>
   <path class="fil6" d="M6468 700l108 -13c-13,-10 30,-26 -51,-21 -61,3 -54,31 -57,34z"/>
   <path class="fil12" d="M4173 2495c-3,-4 -11,-15 -9,-13 1,2 0,-9 1,-12 3,-3 9,-7 13,-11l3 3c-23,0 -18,5 -15,-19 -28,14 -23,19 -16,-12 -25,2 -16,5 -7,-24l-14 -26 -23 4c6,38 0,12 10,34l33 61c1,2 4,5 6,7l18 8z"/>
   <path class="fil6" d="M7181 3350c99,-24 50,-35 104,-101l-21 0c-2,4 -15,29 -16,30l-58 62c-2,-3 -6,6 -9,9z"/>
   <path class="fil5" d="M6582 1977l-3 31 40 -11c5,-44 -5,-29 30,-76 1,-2 5,-5 7,-8 -4,1 -11,-2 -12,4 -2,5 -10,2 -12,4l-50 56z"/>
   <path class="fil7" d="M6680 1903c25,-6 47,-10 72,-16 14,-4 23,-5 36,-10 23,-10 23,-13 35,-21 -43,7 -49,4 -86,13 -13,2 -23,4 -33,10 -24,13 -9,6 -24,24z"/>
   <path class="fil13" d="M3747 1962l1 10 16 1c-2,22 -5,15 18,11 -1,21 -7,17 14,14 -3,23 -6,17 17,12 -2,22 -6,16 18,10 -4,25 -8,19 18,12 -6,25 -11,21 13,14 -8,31 -13,22 20,21l-20 -21 -13 -14c4,-25 8,-19 -18,-12 0,-23 5,-18 -18,-10l-17 -12c0,-20 6,-16 -14,-14l-18 -11 -17 -11 -1 -18c-25,-6 -7,6 -35,-13 18,36 -6,20 36,31z"/>
   <path class="fil6" d="M5285 762l-72 -81c-14,-17 -10,-13 -24,-25 1,4 2,7 3,13 6,49 34,64 61,73 17,35 -10,8 32,20z"/>
   <path class="fil7" d="M6162 1298c-25,-48 -7,-15 -42,-53l-33 -44c-1,-6 -4,-7 -7,-11 5,60 -1,42 24,70 17,19 29,24 58,38z"/>
   <path class="fil6" d="M5620 262c50,-66 22,-93 -3,-117l3 117z"/>
   <path class="fil6" d="M5476 1216c33,8 11,0 33,13 63,37 -38,-51 15,18 49,0 18,-5 59,19 32,18 33,21 69,41 -2,-4 -5,-14 -6,-11l-195 -114 -3 22c61,-16 25,-11 28,12z"/>
   <path class="fil7" d="M6037 1741c24,-2 15,-5 7,21l15 15c13,19 13,24 22,36 7,11 15,22 16,19 2,-3 7,6 10,9 -16,-39 -21,-45 -42,-86 -23,-45 -13,-37 -53,-78 5,9 14,27 16,32 15,35 0,-13 9,32z"/>
   <path class="fil7" d="M6200 2950c24,-20 6,7 22,-24 3,-5 12,-32 15,-44 11,-37 12,-51 15,-94l-31 82c-10,40 -6,35 -21,80z"/>
   <path class="fil7" d="M6618 996c54,-21 64,-48 81,-103 -14,13 -12,10 -27,26 -10,13 -8,11 -19,25 -15,19 -21,21 -35,52z"/>
   <path class="fil6" d="M6547 4413l69 -23 8 -56c-22,14 -9,4 -27,21 -3,3 -10,13 -13,16l-37 42z"/>
   <path class="fil5" d="M6117 3148l22 0 4 -13c10,-73 -2,-24 21,-47l0 -19 -49 6c25,34 18,23 2,73z"/>
   <path class="fil5" d="M5448 1204l28 12 1 36 47 -5c-53,-69 48,19 -15,-18 -22,-13 0,-5 -33,-13 -3,-23 33,-28 -28,-12l3 -22 -27 2c0,36 -10,32 24,20z"/>
   <path class="fil6" d="M6022 3325l2 29c-30,-4 -21,-8 -8,20 -28,5 -13,-17 -26,17 -29,-6 -20,-8 -9,20 -29,-6 -21,-11 -16,20 27,0 21,7 16,-20l9 -20 26 -17 8 -20c39,-34 16,-7 29,-50 -3,3 -7,6 -9,7 -2,1 -7,5 -9,6 -2,2 -9,6 -13,8z"/>
   <path class="fil7" d="M6282 1294l-90 2c2,3 -6,24 46,22 63,-3 37,-17 44,-24z"/>
   <path class="fil7" d="M3027 642c-28,-6 -26,-14 -18,12 -25,-7 -18,-10 -12,16 -26,-6 -24,-13 -17,11l-15 -7 1 31c25,-9 22,0 14,-24 27,9 23,15 17,-11 26,6 20,10 12,-16 25,6 20,12 18,-12l24 -6 24 -15 -25 0 1 15 -24 6z"/>
   <path class="fil8" d="M4272 2532l0 -24c-12,-2 -31,-5 -42,-8 -22,-7 -8,24 -23,-10 -2,-5 -7,-5 -11,-7 51,72 -24,-15 13,42l63 7z"/>
   <path class="fil7" d="M5938 1576c-2,-4 -6,-13 -7,-10 -12,25 -11,-15 -14,-18l-38 -49c-17,-15 -7,-6 -30,-23l35 63c33,40 -1,16 54,37z"/>
   <path class="fil8" d="M6166 1955c-9,-32 -5,-21 -19,-51 -4,-7 -10,-20 -16,-28 -11,-15 -12,-14 -23,-24 14,68 17,63 58,103z"/>
   <path class="fil6" d="M4110 423c-4,-19 -9,-56 -9,-56 -13,-38 1,-17 -26,-37 1,22 -7,17 6,52 25,63 7,15 29,41z"/>
   <path class="fil9" d="M3928 2159l19 -2c-9,-35 5,-18 -20,-46 -3,-3 -12,-11 -15,-13 -5,-5 -22,-15 -27,-18 20,50 7,15 22,38 2,3 10,12 12,15 18,31 2,-9 9,26z"/>
   <path class="fil8" d="M2970 816l1 -90c-6,7 -21,-20 -19,44 1,70 10,35 18,46z"/>
   <path class="fil6" d="M5262 292c-14,10 -14,-39 -12,33 24,-9 23,18 12,-33 26,-8 5,10 19,-23 6,-16 6,-24 9,-38 -34,18 -30,28 -28,61z"/>
   <path class="fil7" d="M6075 1098c36,-28 39,-35 56,-86 -30,15 -18,3 -36,31 -1,1 -18,49 -20,55z"/>
   <path class="fil10" d="M5524 3304l6 -33c-3,-3 -6,-7 -8,-9 -2,-2 -6,-7 -9,-9l-37 -38 21 51c2,3 2,7 4,10l23 28z"/>
   <path class="fil7" d="M5535 559c14,-18 7,11 23,-40 9,-28 6,-29 10,-55 -18,23 -2,-27 -25,41 -12,33 -5,26 -8,54z"/>
   <path class="fil8" d="M5261 2903c33,-7 26,-11 11,19 28,-12 22,-16 14,14l24 -8c-2,-3 -4,-8 -5,-10l-16 -27c-20,-21 18,-19 -38,-21 15,22 6,7 10,33z"/>
   <path class="fil7" d="M4146 528c-3,-22 2,-23 -9,-52 -21,-51 -9,-18 -27,-37 4,23 1,27 11,51 17,44 9,21 25,38z"/>
   <path class="fil13" d="M4793 2583c-19,-33 13,-32 -72,-33 28,24 -24,-1 33,23 20,8 20,6 39,10z"/>
   <path class="fil7" d="M6244 2763c30,-15 23,-51 25,-86 -32,45 -26,52 -25,86z"/>
   <path class="fil7" d="M4457 428c-10,-43 -10,-67 -38,-98 3,22 0,22 9,50 14,42 3,20 29,48z"/>
   <path class="fil7" d="M6888 2187c28,-3 14,5 44,-7 38,-14 24,-12 37,-25 -24,3 -26,-1 -52,9 -25,10 -17,12 -29,23z"/>
   <path class="fil6" d="M6297 1295c30,-8 41,-12 74,-22l8 -36 -82 58z"/>
   <path class="fil7" d="M7248 3114c-11,33 -18,26 17,26 1,-37 13,-36 -17,-26 2,-46 8,-20 -20,-31 6,64 -1,22 20,31z"/>
   <path class="fil12" d="M5255 2912l6 -9 6 -3 -39 25c11,40 10,21 34,60l-7 -24c0,-3 -2,-8 -3,-11l3 -38zm27 42l4 -18 -19 4 15 14z"/>
   <path class="fil6" d="M5645 3713l2 26c20,-7 14,-2 32,-14 23,-15 12,-10 30,-29l-64 17z"/>
   <path class="fil5" d="M4057 1248l40 2c3,-2 34,8 -11,-12 47,-21 5,0 25,-29 -54,18 -26,-1 -54,39z"/>
   <path class="fil7" d="M5424 755c64,-14 53,-4 72,-70l-17 23c-54,58 8,-6 -17,17 -3,2 -6,4 -9,6 -2,3 -7,6 -9,7l-20 17z"/>
   <path class="fil7" d="M5565 446c10,-14 4,11 25,-39 8,-21 8,-29 12,-46 -32,31 -30,31 -37,85z"/>
   <path class="fil5" d="M5330 2932l-20 -4 -1 12 21 -8c16,18 14,16 22,30 13,-53 0,-34 48,-57l-42 -42c13,36 43,75 -28,69z"/>
   <path class="fil5" d="M7125 2041c10,5 -2,10 24,6 21,-3 9,-1 24,-10 -54,-48 -33,-9 -48,4z"/>
   <path class="fil7" d="M6953 3329c-25,-22 29,1 -38,-25 -35,-14 -8,-2 -40,-7 10,8 8,12 28,20 21,9 31,8 50,12z"/>
   <path class="fil7" d="M5306 1136c-31,-40 -39,-38 -95,-44l95 44z"/>
   <path class="fil11" d="M169 3429c3,-3 8,-10 9,-8 1,3 7,-5 9,-7 37,-36 32,-32 50,-86 -2,3 -5,7 -7,9l-61 92z"/>
   <path class="fil6" d="M3193 1085c-2,-3 -6,-12 -8,-9 -1,2 -6,-8 -8,-10l-51 -50 26 43c13,34 -5,13 41,26z"/>
   <path class="fil6" d="M6085 1184l-6 -71c-22,29 -25,-39 -11,40 10,62 -5,8 17,31z"/>
   <path class="fil7" d="M7079 2126c-53,11 -26,-1 -59,29 65,-5 42,7 59,-29z"/>
   <path class="fil7" d="M6827 3296c-12,-13 -4,-12 -26,-23 -27,-13 -11,-6 -41,-7 13,11 2,10 28,21 32,13 10,4 39,9z"/>
   <polygon class="fil14" points="5641,3750 5647,3739 5645,3713 5634,3678 5636,3674 5619,3674 "/>
   <path class="fil12" d="M5118 2793l-67 -46c24,41 20,50 67,46z"/>
   <path class="fil12" d="M5141 2858c46,26 24,7 41,-4 -4,-2 36,-52 -41,4z"/>
   <path class="fil7" d="M6900 1841c34,-4 12,5 43,-7 20,-8 25,-14 33,-20 -32,3 -18,-3 -45,8 -37,14 -14,6 -31,19z"/>
   <path class="fil0" d="M400 3151c20,-11 30,-13 46,-23 31,-22 17,-13 31,-31 -18,10 -21,7 -42,21 -34,23 -14,7 -35,33z"/>
   <path class="fil10" d="M3748 1972l-1 -10c-42,-11 -18,5 -36,-31l3 -5 -29 53c45,-20 6,-19 63,-7z"/>
   <path class="fil8" d="M7196 3068c-10,-11 -10,-17 -17,-27l-33 -1c14,21 -2,25 50,28z"/>
   <path class="fil7" d="M3568 1105c21,-19 18,15 15,-31 -3,-35 -9,-27 -15,-37l0 68z"/>
   <path class="fil9" d="M5559 3372l0 -40 -24 3c2,57 -4,24 24,37z"/>
   <path class="fil5" d="M3103 685l64 2c-14,-13 -62,-37 -64,-2z"/>
   <path class="fil7" d="M5191 560c25,-14 21,28 18,-45 -23,19 -23,-33 -18,45z"/>
   <path class="fil9" d="M4929 2643c-16,-22 4,-18 -47,-33l10 29 37 4z"/>
   <path class="fil5" d="M6112 4063c-2,45 -26,-21 15,15 39,-66 1,-34 -3,-42 -14,17 -11,1 -12,27z"/>
   <path class="fil9" d="M4055 2275l5 -22c-29,2 -23,7 -12,-21 -27,6 -21,10 -13,-16l-21 4c3,6 13,25 17,30 13,17 11,12 24,25z"/>
   <path class="fil6" d="M7031 3354c-9,-6 -12,-11 -31,-19 -33,-13 -6,-2 -46,-10 13,9 8,13 34,21 47,16 -8,0 43,8z"/>
   <path class="fil7" d="M6199 2043c-4,-22 4,-14 -10,-39 -15,-26 -3,-10 -23,-25 10,41 -7,-2 11,36 10,21 12,17 22,28z"/>
   <path class="fil13" d="M4011 2209c-22,-36 -5,-23 -48,-50 9,18 -13,-2 15,29 24,26 6,11 33,21z"/>
   <path class="fil13" d="M4198 2492c3,-36 12,-27 -20,-33l-5 36 25 -3z"/>
   <path class="fil5" d="M6078 3945c48,-14 20,7 37,-39 -81,29 -5,4 -37,39z"/>
   <path class="fil11" d="M1304 2255c3,-3 8,-11 10,-8 1,3 7,-6 9,-8l46 -76 -36 39c-14,21 -14,25 -29,53z"/>
   <path class="fil14" d="M5250 2869c3,-37 11,-29 -26,-27 0,35 -8,27 26,27z"/>
   <path class="fil14" d="M4659 2545c-19,-24 -3,-8 -34,-21 -24,-10 -4,-3 -30,-2 34,25 12,16 64,23z"/>
   <path class="fil9" d="M4143 2407c-9,29 -18,26 7,24 -7,31 -12,26 16,12l3 -13 -19 1 -7 -24 5 -18 -3 -1 -16 -7 14 26z"/>
   <path class="fil8" d="M4387 176c-12,-55 -5,-31 -26,-46 6,77 4,29 26,46z"/>
   <path class="fil6" d="M6918 2970c-16,-24 30,-21 -41,-21 13,23 -27,15 41,21z"/>
   <path class="fil7" d="M6660 2200c-18,-29 28,-15 -35,-27 10,34 -21,23 35,27z"/>
   <path class="fil6" d="M5524 612c25,-3 25,48 21,-30 -25,13 -18,-23 -21,30z"/>
   <path class="fil12" d="M3947 2157l-19 2c-7,10 -57,-14 22,30l-3 -32z"/>
   <path class="fil8" d="M4150 2431l19 -1c-8,-27 5,-16 -21,-41l-5 18 7 24z"/>
   <path class="fil7" d="M5207 505c20,-18 18,32 23,-46 -28,21 -14,-2 -23,46z"/>
   <path class="fil5" d="M4214 2425c39,-21 22,7 42,-39 -41,17 -30,9 -42,39z"/>
   <path class="fil6" d="M3941 1299c57,-20 28,-6 46,-33 -61,15 -24,0 -46,33z"/>
   <path class="fil6" d="M5110 1075c-23,-29 -2,-17 -48,-22 17,18 -27,15 48,22z"/>
   <path class="fil7" d="M4316 1108c-37,-3 -31,-13 -31,18 37,3 31,14 31,-18z"/>
   <path class="fil13" d="M4109 2345l6 -21c-31,8 -25,12 -11,-16l-23 -2c16,60 -2,24 28,39z"/>
   <path class="fil7" d="M6192 2998c-31,0 -19,-6 -15,33 30,0 17,6 15,-33z"/>
   <path class="fil6" d="M6584 2119c-10,-59 1,-25 -24,-36 1,57 -4,22 24,36z"/>
   <path class="fil6" d="M4414 248c-1,-67 4,-26 -20,-40 4,68 -3,25 20,40z"/>
   <path class="fil7" d="M4372 1107l83 -39c-51,9 -54,4 -83,39z"/>
   <path class="fil6" d="M6598 2147c2,-36 13,-30 -18,-30 -4,37 -14,30 18,30z"/>
   <path class="fil7" d="M6096 3222c24,-21 10,18 29,-49 -29,23 -13,-22 -29,49z"/>
   <path class="fil7" d="M6164 3069c25,-15 17,14 19,-40 -22,18 -19,-31 -19,40z"/>
   <path class="fil7" d="M5204 1099c-16,-21 29,-15 -40,-19 13,22 -27,16 40,19z"/>
   <path class="fil6" d="M6560 2013l19 -5 3 -31c-25,14 -20,-27 -22,36z"/>
   <path class="fil7" d="M7008 2998l34 16 0 -20 -34 4 -41 -20c16,22 -4,18 41,20z"/>
   <path class="fil7" d="M7282 3173c-5,-59 4,-23 -23,-35 9,60 -1,22 23,35z"/>
   <path class="fil7" d="M6213 2088c-7,-64 1,-24 -21,-38 3,65 -3,25 21,38z"/>
   <path class="fil7" d="M3885 1340c61,-15 27,-2 46,-30 -58,19 -27,9 -46,30z"/>
   <path class="fil7" d="M5434 1184c0,-30 7,-21 -26,-19 0,30 -7,21 26,19z"/>
   <path class="fil7" d="M6227 2130c-3,-64 3,-23 -20,-37 6,62 -2,24 20,37z"/>
   <path class="fil6" d="M4470 475c0,-68 3,-25 -17,-40 4,67 -2,26 17,40z"/>
   <path class="fil12" d="M4896 2669c22,15 -4,19 47,12 -25,-20 -2,-19 -47,-12z"/>
   <path class="fil14" d="M5371 3013l4 -24c-25,6 -21,12 -19,-11l-18 0c21,40 11,21 33,35z"/>
   <path class="fil7" d="M4484 534c-3,-66 2,-26 -19,-40 5,66 0,26 19,40z"/>
   <path class="fil7" d="M4485 622c-28,0 -17,-5 -15,30 28,0 17,5 15,-30z"/>
   <path class="fil7" d="M5221 444c19,-12 14,24 17,-40 -19,17 -16,-30 -17,40z"/>
   <path class="fil7" d="M5290 200c21,-11 14,24 20,-37 -21,16 -14,-27 -20,37z"/>
   <path class="fil0" d="M255 4779c-2,-5 -18,-34 -19,-35 -11,-18 -10,-14 -20,-26 1,5 9,31 12,36 20,34 -7,-1 27,25z"/>
   <path class="fil9" d="M3524 1818l0 -26 -7 5 -21 -1c10,23 -24,14 28,22z"/>
   <path class="fil7" d="M7285 3249l-3 -28c-27,0 -16,-5 -18,28l21 0z"/>
   <path class="fil7" d="M6139 3148l-22 0 5 26c26,0 17,5 17,-26z"/>
   <path class="fil6" d="M6208 2960c-26,0 -16,-5 -15,29 28,0 18,5 15,-29z"/>
   <path class="fil9" d="M5395 3064c1,-32 10,-26 -17,-26 -1,32 -10,26 17,26z"/>
   <polygon class="fil2" points="0,4171 14,4171 0,4101 "/>
   <path class="fil7" d="M6242 2200c-2,-29 7,-6 -5,-29 -1,-3 -5,-9 -6,-12 -1,-2 -5,-6 -8,-9 4,49 -2,28 19,50z"/>
   <path class="fil11" d="M1232 2355c18,-19 8,-1 23,-29 1,-1 13,-32 14,-35 -13,13 -9,4 -21,26 -1,1 -16,38 -16,38z"/>
   <path class="fil8" d="M5222 2842l-7 -19c12,-32 14,-22 -22,-17l29 36z"/>
   <path class="fil7" d="M6677 1899c-36,-1 -40,-13 -21,14 27,6 21,12 21,-14z"/>
   <path class="fil2" d="M709 5123c0,-27 6,-19 -23,-17 0,26 -6,18 23,17z"/>
   <path class="fil0" d="M5583 4265c-24,0 -14,-4 -14,28 27,0 18,5 14,-28z"/>
   <path class="fil11" d="M5567 4303c-27,0 -18,-5 -15,26 24,0 15,5 15,-26z"/>
   <path class="fil2" d="M514 5005l-28 -23c-13,-8 -17,-7 -33,-13 14,14 3,7 24,21 3,1 34,14 37,15z"/>
   <path class="fil11" d="M3229 1684c0,-24 4,-15 -26,-14 0,27 -6,18 26,14z"/>
   <path class="fil9" d="M5568 3393c4,-26 11,-21 -13,-21 -3,36 -15,41 13,21z"/>
   <path class="fil7" d="M6741 3271l-40 -24c-9,30 9,20 40,24z"/>
   <path class="fil11" d="M2008 1713c-30,0 -25,-9 -25,15 31,2 25,11 25,-15z"/>
   <path class="fil11" d="M5440 4559c2,-3 6,-6 7,-9l13 -23c1,-8 3,-10 5,-14 -28,23 -13,-28 -25,46z"/>
   <path class="fil11" d="M5355 4677c-27,0 -20,-6 -19,21 26,0 19,6 19,-21z"/>
   <path class="fil0" d="M818 5167c0,-24 5,-16 -23,-14 0,26 -6,18 23,14z"/>
   <path class="fil6" d="M5836 1468l-121 -112 23 27c2,3 5,5 8,7 2,3 5,5 8,7l46 40c2,2 6,5 8,7 10,9 17,19 18,16 2,-3 7,5 10,8z"/>
   <path class="fil8" d="M4181 2462c3,-34 13,-35 -15,-19 -3,24 -8,19 15,19z"/>
   <path class="fil2" d="M3316 1713c0,-24 4,-15 -26,-14 0,25 -4,16 26,14z"/>
   <path class="fil11" d="M57 3693c-23,0 -14,-4 -14,24 26,0 18,6 14,-24z"/>
   <polygon class="fil2" points="0,3956 12,3889 0,3889 "/>
   <path class="fil0" d="M1117 5225l-21 -10c-29,-8 8,0 -25,-5 -17,-3 -26,-1 -41,-1l87 16z"/>
   <path class="fil11" d="M3271 1698c0,-23 4,-14 -26,-13 0,24 -4,15 26,13z"/>
   <path class="fil0" d="M4703 5140c-26,0 -21,-7 -21,16 28,4 21,10 21,-16z"/>
   <path class="fil2" d="M4797 5094c-25,-1 -19,-7 -19,18 26,3 19,8 19,-18z"/>
   <path class="fil11" d="M628 5077c-26,-29 33,-15 -48,-24l33 19c3,-4 10,3 15,5z"/>
   <path class="fil2" d="M3414 1756c0,-23 4,-14 -24,-14 0,25 -5,17 24,14z"/>
   <path class="fil11" d="M1070 2678c-24,0 -15,-5 -15,23 25,0 17,5 15,-23z"/>
   <path class="fil11" d="M747 5139c0,-24 5,-15 -24,-14 0,24 -5,15 24,14z"/>
   <path class="fil11" d="M3348 1725c0,-25 5,-17 -22,-15 0,24 -5,16 22,15z"/>
   <path class="fil2" d="M259 3308c-26,0 -19,-6 -19,19 25,0 19,7 19,-19z"/>
   <path class="fil12" d="M4199 2555c2,9 39,36 18,4 -3,-6 -27,-35 -18,-4z"/>
   <path class="fil1" d="M3142 956c0,29 19,16 16,2 -3,-12 -16,-29 -16,-2z"/>
   <path class="fil11" d="M5039 4962c-26,-3 -18,-8 -18,20 24,-2 18,5 18,-20z"/>
   <path class="fil0" d="M5068 4956c63,-23 17,2 36,-31 -28,15 -22,11 -36,31z"/>
   <path class="fil11" d="M972 2867c-28,0 -23,-9 -23,14 28,3 23,11 23,-14z"/>
   <path class="fil11" d="M1130 2540c-24,0 -16,-5 -17,21 26,0 19,6 17,-21z"/>
   <path class="fil15" d="M4129 2381c-1,-23 5,-18 -17,-18l-6 22 23 -4z"/>
   <path class="fil11" d="M1972 1725c-28,0 -23,-8 -23,15 28,1 23,9 23,-15z"/>
   <path class="fil0" d="M476 3096l34 -20c2,-1 5,-4 8,-7 -65,11 -23,-3 -42,27z"/>
   <path class="fil11" d="M4831 5082c-28,-1 -24,-9 -24,14 28,1 24,10 24,-14z"/>
   <path class="fil5" d="M6628 3168c3,3 23,30 31,6 1,-4 5,-5 9,-8l-40 2z"/>
   <path class="fil11" d="M4731 5126c-28,-1 -23,-10 -23,14 28,1 23,9 23,-14z"/>
   <path class="fil0" d="M986 2868c36,-11 14,11 29,-28 -22,14 -6,-13 -29,28z"/>
   <path class="fil11" d="M1651 1913c-26,3 -21,-5 -21,18 27,0 21,7 21,-18z"/>
   <path class="fil11" d="M3447 1768c0,-24 5,-16 -22,-15 0,24 -5,16 22,15z"/>
   <path class="fil11" d="M590 3026c-27,-1 -21,-8 -21,15 26,1 21,9 21,-15z"/>
   <path class="fil0" d="M5395 4631c34,-21 8,28 30,-36 -17,13 -15,8 -30,36z"/>
   <path class="fil0" d="M114 3534c-25,0 -17,-5 -14,23 22,0 13,4 14,-23z"/>
   <path class="fil11" d="M763 2941c-26,1 -21,-7 -21,15 27,3 21,10 21,-15z"/>
   <path class="fil12" d="M4004 2379c41,-7 25,11 32,-29l-32 29z"/>
   <path class="fil11" d="M111 4534c1,-28 9,-23 -13,-23 -2,27 -10,23 13,23z"/>
   <path class="fil11" d="M4916 5040c-27,-1 -22,-8 -22,15 27,0 22,8 22,-15z"/>
   <path class="fil11" d="M1173 2450c26,-27 10,32 22,-47l-13 20c-1,4 -3,10 -5,13 -1,4 -3,9 -4,14z"/>
   <path class="fil11" d="M5555 4336c-25,0 -19,-6 -16,21 22,0 15,4 16,-21z"/>
   <path class="fil11" d="M783 5155c0,-23 5,-16 -21,-14 0,23 -5,16 21,14z"/>
   <path class="fil11" d="M70 3648c-23,0 -16,-5 -14,22 23,0 16,5 14,-22z"/>
   <path class="fil0" d="M130 4572c-1,-25 6,-20 -17,-20 -2,26 -8,20 17,20z"/>
   <path class="fil7" d="M6143 3135c2,-3 6,-10 7,-8l14 -39c-23,23 -11,-26 -21,47z"/>
   <path class="fil0" d="M1564 1970l56 -42c-30,12 -12,-1 -33,16 -20,16 -7,6 -23,26z"/>
   <path class="fil11" d="M834 2912c-26,0 -21,-7 -21,15 26,2 21,9 21,-15z"/>
   <path class="fil11" d="M5017 4984c-27,-1 -22,-9 -22,14 26,0 22,8 22,-14z"/>
   <path class="fil11" d="M1143 2513c-22,0 -15,-5 -15,20 24,0 17,6 15,-20z"/>
   <path class="fil12" d="M4128 2555c-1,19 18,12 15,0 -2,-8 -13,-37 -15,0z"/>
   <path class="fil11" d="M5597 4212c-23,0 -16,-5 -14,21 22,0 15,4 14,-21z"/>
   <path class="fil0" d="M2074 1683c-25,-5 -19,-11 -19,15 24,-1 19,6 19,-15z"/>
   <path class="fil11" d="M84 4460c2,-25 9,-20 -15,-20 0,25 -7,20 15,20z"/>
   <path class="fil2" d="M187 4668c-1,-24 6,-19 -18,-19 0,25 -6,19 18,19z"/>
   <path class="fil5" d="M6343 4310c2,20 3,5 13,4 20,0 -18,-40 -13,-4z"/>
   <path class="fil11" d="M1171 2455c-22,0 -15,-6 -16,18 24,0 18,6 16,-18z"/>
   <path class="fil11" d="M216 4711c0,-24 6,-18 -18,-18 1,23 -5,18 18,18z"/>
   <path class="fil11" d="M5440 4564c-23,0 -17,-6 -16,19 21,0 15,5 16,-19z"/>
   <path class="fil11" d="M1213 2380c-23,0 -18,-6 -17,18 23,0 17,5 17,-18z"/>
   <path class="fil12" d="M56 4263c22,-40 12,-28 1,-45l-1 45z"/>
   <path class="fil0" d="M518 3066l43 -27c-63,12 -23,-1 -43,27z"/>
   <path class="fil11" d="M169 4645c-1,-24 6,-19 -15,-19 0,24 -7,19 15,19z"/>
   <path class="fil12" d="M5364 3076c41,43 16,21 32,7l-32 -7z"/>
   <path class="fil11" d="M994 5209c-16,-20 27,-19 -37,-17l37 17z"/>
   <path class="fil11" d="M641 2994c-22,0 -17,-6 -17,16 22,0 17,6 17,-16z"/>
   <path class="fil13" d="M4870 2612l-54 -31c3,3 6,4 8,10 2,5 7,7 10,9 39,20 -32,-2 36,12z"/>
   <path class="fil11" d="M5482 4484l29 -50c-3,3 -9,2 -10,8 -1,5 -7,6 -8,8 -13,26 -4,-6 -11,34z"/>
   <path class="fil7" d="M6952 2986l-37 -19c15,21 -28,16 37,19z"/>
   <path class="fil11" d="M1272 2293c27,-20 11,21 28,-41l-28 41z"/>
   <path class="fil11" d="M1711 1869l55 -35c2,-2 5,-6 8,-8 -24,12 -12,3 -31,16l-32 27z"/>
   <path class="fil11" d="M3496 1796l0 -12 -18 0c0,22 -5,17 18,12z"/>
   <path class="fil11" d="M3010 1629l-38 -20c12,16 -18,13 38,20z"/>
   <path class="fil11" d="M5625 4029l16 -44c-21,19 -14,-3 -16,44z"/>
   <path class="fil11" d="M4562 5175l-35 24c57,-12 23,-4 35,-24z"/>
   <path class="fil11" d="M919 5195c-13,-20 25,-18 -31,-17l31 17z"/>
   <path class="fil11" d="M2285 1626l-34 14c56,2 23,5 34,-14z"/>
   <path class="fil11" d="M61 4378c-1,-53 2,-17 -19,-30l19 30z"/>
   <path class="fil0" d="M142 3477c-26,0 -18,-6 -15,23l15 -23z"/>
   <path class="fil0" d="M4618 5168l-27 12c31,4 27,13 27,-12z"/>
   <path class="fil0" d="M4777 5110l-28 13c32,3 28,12 28,-13z"/>
   <path class="fil0" d="M860 5182l-25 -13c0,26 -5,17 25,13z"/>
   <path class="fil7" d="M6254 2255c-5,-46 -3,-29 -19,-46l19 46z"/>
   <path class="fil0" d="M2115 1668c-29,-4 -24,-12 -24,14l24 -14z"/>
   <path class="fil11" d="M1027 2809l-12 26c25,0 15,5 12,-26z"/>
   <path class="fil11" d="M2168 1652l-26 20c41,-2 17,4 26,-20z"/>
   <path class="fil11" d="M879 2898l-24 14c29,3 24,11 24,-14z"/>
   <path class="fil11" d="M1085 2639l-13 25c24,0 15,4 13,-25z"/>
   <path class="fil11" d="M730 2953c-29,-2 -25,-10 -25,14l25 -14z"/>
   <path class="fil11" d="M5524 4404c-24,0 -15,-4 -13,25l13 -25z"/>
   <path class="fil0" d="M1847 1785c-28,-3 -23,-11 -23,14l23 -14z"/>
   <path class="fil0" d="M157 3449c-25,0 -17,-5 -15,22l15 -22z"/>
   <path class="fil0" d="M3387 1741c0,-24 5,-16 -23,-13l23 13z"/>
   <path class="fil0" d="M788 2926c-26,-3 -22,-11 -22,13l22 -13z"/>
   <path class="fil0" d="M100 3564c-23,0 -16,-5 -14,22l14 -22z"/>
   <path class="fil2" d="M71 4427c2,-27 10,-22 -13,-22l13 22z"/>
   <path class="fil0" d="M4969 5009l-19 15c25,2 19,8 19,-15z"/>
   <path class="fil2" d="M1156 2479l-14 19c23,0 17,5 14,-19z"/>
   <path class="fil2" d="M1113 2567c-22,0 -14,-5 -14,22l14 -22z"/>
   <path class="fil11" d="M619 3011l-18 16c23,2 18,8 18,-16z"/>
   <path class="fil0" d="M1930 1742c-25,-3 -20,-9 -20,13l20 -13z"/>
   <path class="fil12" d="M3935 2241c0,3 14,22 8,-1 -2,-10 -10,-26 -8,1z"/>
   <path class="fil0" d="M5537 4379l-12 20c21,0 14,5 12,-20z"/>
   <path class="fil0" d="M1228 2352c-22,0 -17,-6 -16,17l16 -17z"/>
   <path class="fil0" d="M1901 1756c-23,-2 -18,-8 -18,13l18 -13z"/>
   <path class="fil2" d="M5481 4493l-16 18c22,0 15,5 16,-18z"/>
   <path class="fil2" d="M1777 1823c49,-11 -4,8 26,-8 3,-2 9,-5 11,-7 3,-1 7,-5 11,-7l-48 22z"/>
   <path class="fil11" d="M154 4619c-14,-62 12,13 -9,-28 -1,-4 -4,-9 -6,-12 -2,-4 -5,-8 -8,-11l23 51z"/>
   <polygon class="fil0" points="14,3829 28,3792 "/>
   <polygon class="fil2" points="4939,5024 4921,5039 "/>
   <polygon class="fil0" points="2941,1613 2886,1595 "/>
   <polygon class="fil11" points="2454,1595 2402,1616 "/>
   <polygon class="fil2" points="99,4496 87,4476 "/>
   <polygon class="fil11" points="31,4264 12,4229 "/>
   <polygon class="fil0" points="28,3755 44,3725 "/>
   <polygon class="fil11" points="69,3625 91,3600 "/>
   <polygon class="fil2" points="45,4322 29,4292 "/>
   <polygon class="fil14" points="5626,3622 5609,3574 "/>
   <polygon class="fil6" points="4174,766 4203,776 "/>
   <polygon class="fil2" points="1026,2782 1045,2755 "/>
   <polygon class="fil11" points="1683,1881 1668,1898 "/>
   <polygon class="fil2" points="4664,5148 4639,5168 "/>
   <polygon class="fil11" points="3075,1642 3044,1623 "/>
   <polygon class="fil0" points="3198,1671 3168,1654 "/>
   <polygon class="fil11" points="2224,1637 2195,1655 "/>
   <polygon class="fil11" points="3470,1783 3454,1767 "/>
   <polygon class="fil0" points="2342,1611 2310,1627 "/>
   <polygon class="fil11" points="5596,4186 5613,4156 "/>
  </g>
 </g>
</svg>
