<?xml version="1.0" encoding="UTF-8"?>
<!DOCTYPE svg PUBLIC "-//W3C//DTD SVG 1.1//EN" "http://www.w3.org/Graphics/SVG/1.1/DTD/svg11.dtd">
<!-- Creator: CorelDRAW X7 -->
<svg xmlns="http://www.w3.org/2000/svg" xml:space="preserve" width="63.6809in" height="65.3264in" version="1.1" style="shape-rendering:geometricPrecision; text-rendering:geometricPrecision; image-rendering:optimizeQuality; fill-rule:evenodd; clip-rule:evenodd"
viewBox="0 0 20784 21321"
 xmlns:xlink="http://www.w3.org/1999/xlink">
 <defs>
  <style type="text/css">
   <![CDATA[
    .fil0 {fill:#678FC9}
    .fil5 {fill:#8D9395}
    .fil3 {fill:#99BCE2}
    .fil13 {fill:#AF6E6B}
    .fil12 {fill:#B94F4A}
    .fil9 {fill:#CBAF6B}
    .fil11 {fill:#D1DEEE}
    .fil4 {fill:#DB8683}
    .fil1 {fill:#E1AB25}
    .fil2 {fill:#E94236}
    .fil10 {fill:#EEC850}
    .fil7 {fill:#F4D68D}
    .fil6 {fill:#FAB2AE}
    .fil8 {fill:#FEEDB1}
   ]]>
  </style>
 </defs>
 <g id="Layer_x0020_1">
  <metadata id="CorelCorpID_0Corel-Layer"/>
  <g id="_342106608">
   <path class="fil0" d="M7693 4260l-556 98 -50 21 -78 0 -36 39 -154 27 -54 43 -26 -9 -80 31 -53 7 -119 50 -48 24 -333 166c0,55 10,34 -60,25l-41 14 -224 135 -50 20 -46 49 -46 11 -37 56 -38 18 2 11c0,64 15,50 -50,38l-43 17c-70,35 -40,9 -76,75l-42 22 -46 15 -33 26c-351,294 -476,486 -766,784l-23 38 -13 48c11,63 26,49 -35,49 -81,39 -119,141 -152,226l-16 43 -46 48 -44 43 -22 47 -8 21 -24 29 -9 33 -25 26 -27 48 -31 58 -117 305 -39 49 -115 378 -35 39 -11 69 -16 36 -32 190 -20 62 0 70c-39,106 -16,69 -157,66 -86,-2 -160,-3 -247,5 -146,15 -277,15 -413,56l-70 -16 -70 27 -294 68 -46 20 -47 7 -45 21 -34 15 -48 23 -36 1 -49 40 -14 -4c0,54 11,36 -53,30l-26 -3 -45 25 -148 64 -33 22 -18 11 -32 29 -125 61c-29,31 3,26 -80,47l-10 13c0,44 10,31 -37,35l-42 30c0,61 15,47 -46,40 -112,53 -210,152 -305,236 -105,92 -162,159 -254,268l-66 92c-3,4 -10,13 -15,20l-191 264 -27 28 -33 34c-6,60 13,50 -37,50l6 32 -29 30 -40 80 -54 101 -5 26 -23 41 -69 175 -19 42c-54,173 -151,393 -137,588 -83,366 -40,596 -39,962 -3,181 41,362 90,531l24 55 0 51 29 42 3 54 25 37 1 40 37 41 0 25 20 44 -10 51 49 55 83 198c56,0 34,-11 38,60l183 276c35,29 21,-11 53,68 77,126 281,363 378,449 90,81 332,282 451,346l25 29 70 24 34 35 244 117c51,-3 41,-17 41,30l19 4 46 25c115,64 280,136 417,148l75 48c807,128 551,117 1414,119l8974 -11c874,0 601,-12 1338,-142 26,-25 12,-27 61,-49 4,-2 87,-21 98,-23l91 -31c0,-58 -10,-36 62,-28 310,-70 909,-530 1070,-697 197,-205 585,-677 696,-1036 -4,-65 -24,-55 30,-55l30 -97c-11,-61 -26,-48 32,-48 38,-122 80,-195 82,-325l44 -100c22,-147 59,-270 44,-427 -16,-128 11,-280 2,-418 -5,-81 2,-150 1,-201 -3,-73 -26,-142 -31,-221l20 -39c-57,-66 -45,-37 -54,-137l-22 -165c-47,-71 1,79 -42,-72 -18,-65 -5,-32 -11,-89l-4 -30c-57,0 -38,11 -30,-54 -22,-148 -208,-560 -307,-640 -42,-42 -35,26 -52,-103 -59,-75 -73,-107 -123,-180 -58,-40 -30,-36 -100,-71 -77,-38 -68,-3 -111,-48 -48,-51 1,-93 -105,-200l-718 -534c-131,-71 -292,-123 -395,-218l-18 5 -58 -18c-256,-61 6,11 -147,4 -95,-5 -77,-30 -115,-56l-17 -54 -81 -7c-64,-5 -49,13 -49,-48 -130,14 -311,-45 -469,-55 -496,-32 -547,80 -559,-173 -70,-22 -40,-94 -77,-193 -36,-95 -33,-84 -50,-202l17 -39c-87,-69 -141,-279 -167,-390 -38,-78 -132,-269 -151,-353 -84,-66 -4,38 -72,-68 -29,-45 -19,-41 -41,-112l12 5c-46,-30 -62,-16 -77,-113l9 -9c-109,-57 -78,-53 -149,-169l-349 -463c-5,-6 -12,-15 -16,-19l-119 -129c-120,-133 -302,-261 -370,-385l-67 -36c-77,-43 -167,-118 -249,-175 -103,-71 -151,-116 -254,-174 -146,-81 -398,-239 -564,-284 -68,7 -57,27 -57,-31l-168 -49 -66 -47 -110 -22 -69 -39 -652 -161 -76 -21 -100 9 -128 -37 -196 1c-208,-4 -453,17 -631,12l-76 -19 -188 31z"/>
   <path class="fil1" d="M13422 3901l-94 -9c-52,44 48,0 -69,46 -96,38 -42,14 -74,3 -7,6 -16,14 -21,16 -5,3 -18,9 -23,11 -152,61 29,10 -54,2l-170 46c-20,35 -15,58 -99,25 -12,43 40,36 -70,25l-9 48 -148 33c-19,35 55,36 -61,31l-119 64 -57 23 -20 5 -60 50 -264 174c0,61 14,49 -47,33 12,56 22,45 -33,27 14,56 24,45 -32,29 -4,53 51,26 -40,52l-1 36c-48,50 -39,31 -77,69 -32,31 -27,35 -68,77l-38 0c-42,86 -106,127 -161,174 17,59 35,55 -20,42 17,58 35,53 -22,39 -16,88 2,29 -49,42 16,58 31,53 -25,36 18,59 31,46 -29,46l4 16 -23 43 -5 47c68,124 250,252 370,385l119 129c4,4 11,13 16,19l96 -23c-63,38 134,268 177,321 29,35 39,44 69,82 5,7 20,29 25,37 74,95 97,91 131,215l-9 9c60,26 62,-30 77,113l-12 -5c79,41 18,-38 86,70 19,32 19,72 27,110 19,84 113,275 151,353l73 106c4,8 6,16 9,24l29 70c18,49 37,104 56,190l-17 39 90 76c8,91 -2,108 11,184 16,89 27,15 26,135 12,253 63,141 559,173 158,10 339,69 469,55 112,3 107,9 182,60 60,7 69,8 121,27 74,26 -11,17 105,32 73,29 51,22 132,63l70 24c93,31 140,50 195,107 137,20 133,30 211,124l50 15c61,-16 47,-30 47,31 113,96 214,152 330,262 83,79 246,248 337,310l95 -26 15 7c36,-64 2,-23 42,-65 15,-16 35,-27 51,-41l249 -268c132,-150 207,-188 309,-425l94 -143 63 -150c33,-90 22,-71 76,-119l-13 -34c15,-54 -10,-8 23,-77 23,-49 23,-32 48,-60l54 -270c4,-51 -9,-151 41,-133l9 -176c33,-328 -15,-565 -11,-812l-19 -224c-53,-23 -51,-6 -52,-99l20 -18c-59,-61 -3,73 -56,-80 -21,-62 -9,-58 -9,-116 -41,-4 -26,58 -37,-72l-6 -13 -78 -37c-3,-8 -11,-9 -19,-14l26 -69 14 -39c-61,0 -44,11 -26,-53 -41,-13 -34,39 -31,-60l-33 -59 -46 -57 12 -16c-52,-43 -40,54 -51,-37l-12 -64 -33 -59c-64,20 -39,20 -17,-47 -24,-9 -89,1 -68,-82 -60,13 -40,18 -21,-46 -41,-18 -16,4 -58,-30 -60,-51 -2,3 -39,-59 -153,-34 -140,-103 -207,-212 -71,-115 -141,-124 -223,-203 -50,13 -39,23 -35,-27 -52,13 -42,25 -37,-28 -79,-28 -77,-40 -132,-78 -84,-58 -73,-40 -108,-110 -72,-23 -84,-34 -141,-68 -29,-18 -33,-15 -57,-33 -53,-41 -10,-4 -42,-53 -50,-2 -100,18 -79,-40 -99,7 -54,20 -58,-33 -71,19 -59,39 -59,-24l-44 12c-139,-5 -50,7 -81,-41 -123,-43 -217,-88 -365,-95 -143,-12 -299,-42 -455,-61 -216,-26 -323,-7 -524,-10l-87 -12c-36,44 69,41 -102,35z"/>
   <path class="fil2" d="M18637 6383l-61 12c0,58 12,41 -51,37l10 1c0,73 19,64 -48,41l-39 20c15,57 26,47 -31,30l-20 38c22,64 40,58 -25,42l-34 54c-23,110 -13,62 -51,99l10 268 2 57 87 165 23 8 238 158c311,73 1217,21 1613,29 33,-44 -62,-38 89,-37l52 15c22,-25 17,-25 50,-50 31,-25 44,-29 74,-49 68,-45 62,-45 139,-85l-12 -22c-2,-68 -22,-57 34,-57l16 -44c20,-112 -2,-47 49,-68l-18 -20 1 -270 0 -29c-54,0 -31,10 -30,-64l-10 -17c-62,0 -50,15 -32,-46 -53,11 -34,15 -18,-43 -47,2 -34,11 -24,-40 -52,14 -43,25 -33,-28 -53,14 -39,23 -39,-33l-54 -18c-63,4 -50,21 -50,-38l-6 7c-77,12 -64,34 -64,-33l0 5 -78 -40 -1590 3c-33,51 56,43 -69,42z"/>
   <path class="fil2" d="M16799 931l-1 -10c-23,61 42,41 -53,53 2,48 11,35 -39,23 7,46 14,32 -38,24 7,51 21,44 -27,34 8,46 17,34 -30,32l-16 45c14,60 28,47 -31,47l4 3c3,64 20,51 -39,51l3 7c0,61 18,50 -37,50l0 -1 -30 49 -34 58 -40 53c20,58 35,48 -21,48l2 6 -32 47 -37 56c22,60 38,49 -22,49l2 1c-1,62 17,51 -36,51l3 11 -1 47 -30 107 -61 2c-4,57 13,47 -35,47l1 2c-4,60 14,49 -37,49l5 21c-31,187 11,36 -51,104l-5 -19c-1,61 17,49 -38,49l1 2 -35 88c-2,-4 -11,13 -16,19l0 10c-3,56 13,45 -36,45l-1 2c-4,60 15,50 -37,50l-12 57 -44 74 2 59 1 193 -13 48c93,77 20,45 71,147l-2 -5c5,6 14,6 16,18 18,80 202,159 251,184 139,69 43,8 92,66l257 -7c24,-48 -51,-30 81,-43l4 8c0,-59 -12,-37 60,-38l-6 1c7,-5 17,-21 20,-15l107 -87c51,-59 16,-58 113,-139l-5 -4 53 -108 -1 2c3,-64 -17,-53 37,-53l-9 -18c-6,-67 -24,-54 37,-54l22 -36c0,-61 -17,-49 37,-49l-11 -18 130 -250c38,-54 4,-10 55,-56l13 -16c-4,-66 -22,-53 38,-53l51 -101c-3,-61 -19,-48 36,-48l25 -35c3,-68 -18,-57 36,-57l15 -49c-3,-66 -21,-54 38,-54l-3 -2c2,-63 -17,-51 38,-51l-3 -1 30 -56c10,-40 -6,-8 18,-72 17,-43 30,-52 40,-68l12 -248c-35,-32 -28,8 -58,-100l-32 -84c-64,0 -56,17 -36,-41l-23 -36c-50,12 -39,22 -33,-29 -55,11 -52,29 -40,-19 -61,16 -54,31 -39,-28 -47,6 -40,19 -34,-25l-58 -39 -44 18 -284 -13 -58 -11 -63 29z"/>
   <path class="fil2" d="M10489 939l20 10c-38,42 34,26 -100,54l-24 -7c4,45 13,34 -34,24 6,50 15,37 -36,27l3 13c-5,8 -10,19 -15,25 -4,6 -11,18 -15,23 -4,5 -14,23 -17,18 -2,-4 -11,10 -17,15 11,98 18,47 -28,64l-29 93 8 238 1 17 34 47c5,7 10,15 14,23l76 178 -3 7c57,0 41,-13 34,49l34 70 51 105 -3 2 105 145 54 71c18,27 30,50 48,85l5 65c57,0 36,-11 38,57l-3 -2c5,6 14,7 16,18 16,79 71,19 164,296l13 13c61,0 40,-12 34,61l29 18c7,6 17,5 20,18 2,13 14,15 18,20l25 43c47,78 -17,13 49,75l157 102c5,4 14,13 21,19l-17 -2c158,31 331,45 460,-21 210,-107 141,-156 266,-268l-10 -23 40 -73 7 -187c-16,-22 -21,-6 -52,-90 -6,-16 -16,-68 -22,-97l-44 -10 -4 -69 0 -46 -5 11c-57,0 -42,13 -37,-47l9 -18c-56,0 -40,13 -41,-47l-12 -55c-57,0 -37,13 -41,-53l2 4c-52,0 -32,10 -34,-55l0 -3 -124 -213 2 1c-55,0 -37,12 -38,-51l1 -1 -52 -109 1 2c-53,0 -36,12 -38,-48l0 -2c-59,0 -41,10 -21,-52l-42 -51 -23 -53 -24 -38c-61,0 -45,15 -39,-50l2 -2c-61,0 -42,13 -37,-54l-5 -67c-63,-16 -44,26 -45,-53 -37,-31 -31,-15 -69,-85 -47,7 -35,15 -30,-33 -51,-30 -3,6 -52,-39 -3,-3 -11,-8 -13,-18 -3,-10 -8,-13 -13,-19 -57,18 -46,32 -46,-26l-4 7c-68,0 -59,21 -59,-30l-63 9 -246 -4 -82 -6 -53 35z"/>
   <path class="fil2" d="M19174 3224l-62 33 -13 -3c0,57 13,41 -47,37l3 -1c0,70 17,56 -52,36l-54 19 -217 119c0,55 11,38 -50,28 -16,60 25,44 -51,44l-55 36 -52 37 -51 20 -20 -10c0,55 12,38 -50,39l-1 -1c0,56 9,38 -52,19l-51 41 -53 28 16 2c0,64 13,47 -56,33 6,64 18,47 -48,33l-64 24c0,58 13,41 -51,36l-100 50c0,64 14,46 -56,40l8 -1 -74 74c-41,30 -44,24 -89,47l-15 21c-36,86 -1,45 -75,98l9 12 -29 65 6 36c-13,259 9,272 73,438l44 67 280 153c239,0 339,-4 497,-123 0,-62 -13,-43 56,-37 59,-18 92,-40 129,-64l106 -49 -12 -6c0,-59 -15,-45 45,-39l105 -49c0,-62 -14,-44 54,-38l20 11c0,-58 -12,-38 55,-40l-5 1 77 -58c49,-28 15,-6 83,-35l0 6c0,-54 -11,-34 55,-36l73 -61c0,-65 -14,-46 58,-38l12 4c45,-54 -47,-27 98,-56l21 -9c56,-43 -94,-70 47,-38l67 -14 8 -30c5,-8 11,-19 15,-25l31 -44c75,-94 129,-101 144,-178 3,-13 11,-15 16,-22l-4 -5 38 -76 4 -168c-38,-24 -27,50 -35,-86l-1 -27c-52,0 -34,10 -34,-50l1 -9c-54,0 -38,10 -23,-48l-46 -46c-47,7 -35,16 -31,-33l-33 -3c-89,24 -73,43 -57,-47l21 -31 -43 -23c-68,22 -58,42 -58,-19l-21 -6 -76 -41 -200 2c-7,10 8,76 -108,34z"/>
   <path class="fil2" d="M17960 8849l-61 33 -2 -2c0,70 18,60 -46,40 2,45 11,32 -38,22 12,53 19,39 -37,25 9,50 19,40 -30,31 12,49 18,33 -38,33l0 6 -23 50c19,74 39,60 -31,60l13 0c-8,139 5,46 -47,79l3 19 3 223 17 107c34,28 21,13 50,55 4,5 8,31 11,26 3,-6 6,18 9,28l19 15c7,4 17,9 23,12 5,3 16,8 22,11l41 25c6,4 14,10 20,14l59 59 18 24c69,0 57,-21 57,37l-2 -2c65,1 54,-18 54,39l-4 -2 110 53 2 -1c61,2 51,-16 51,36l17 -2c58,2 48,-16 48,34l-15 3c12,4 28,-4 34,11l73 42 1 0c62,2 50,-16 50,39l19 -14c67,-9 63,-31 52,24 99,20 9,-6 48,50l44 22 138 74c5,3 12,11 18,16l6 -1c58,0 47,-16 47,35l8 1c57,4 46,-13 46,36l-3 1c12,3 28,-6 35,9l74 42 2 1c140,33 60,11 101,52l80 46c63,-4 52,-22 52,33l14 -10c101,11 57,-5 97,45 324,-14 407,-58 547,-245 3,-59 -15,-48 37,-48l-3 -9c2,-62 -17,-52 33,-52l-6 -51 33 -82 9 -132 -43 -91 9 -27c-53,0 -32,10 -34,-55l5 -4 -101 -94 -74 -26 -37 -104 -15 -6c-135,-30 -61,-13 -100,-54l-43 -22c-57,-1 -46,15 -46,-35l-21 9 -50 -45c-72,15 -60,36 -60,-27l-46 -40 -53 -17c-74,23 -66,35 -28,-33l-25 1c-62,8 -47,22 -47,-39l-8 2 -47 -23c-68,17 -54,34 -54,-31l15 -6c-67,-2 -56,18 -56,-38l-48 -12c-68,2 -55,21 -55,-37l2 1 -53 -30c-64,17 -52,34 -52,-26l0 3 -57 -50c-59,12 -50,29 -50,-24l-6 4c-61,-2 -50,16 -50,-36l-18 6c-62,4 -50,21 -50,-36l0 -1c-64,3 -52,21 -52,-36l-42 -20c-65,1 -54,20 -54,-35l-23 17c-131,-9 -42,4 -74,-45l-19 11 -191 -7 -13 -10c-45,49 -9,37 -95,43z"/>
   <path class="fil2" d="M13555 136c15,56 21,42 -35,24 6,50 18,41 -29,35 14,52 25,42 -28,33 15,58 28,46 -28,46l-42 117 -25 51c53,496 -74,1200 21,1721l-10 12c58,0 36,-11 35,61l3 -16c65,55 14,-16 56,56 2,4 25,66 29,77l23 18 99 64c111,25 170,56 345,59l158 -40c14,-13 -4,-11 51,-49 73,-48 20,-14 88,-41l24 -21c-4,-62 -19,-48 39,-48l54 -99c-9,-79 -32,-67 33,-67l-14 -6c20,-555 -16,-1158 4,-1696l-29 -69 16 -22c-55,0 -35,11 -38,-55l0 3c-59,0 -48,15 -33,-44 -50,11 -35,17 -23,-37 -48,3 -36,13 -28,-36 -57,16 -45,29 -45,-27l8 -1 -55 -35c-61,19 -51,36 -51,-22l-8 4c-67,1 -57,21 -57,-31l-18 11 -268 -20 -32 -9c-28,26 -14,20 -57,47 -8,5 -33,17 -41,21 -45,21 -38,16 -92,31z"/>
   <path class="fil3" d="M3034 20228c222,-488 -357,-986 -786,-695 -164,112 -261,313 -364,493 -97,170 -225,353 -297,527 -204,488 298,939 780,688 176,-91 248,-288 366,-489l301 -524z"/>
   <path class="fil3" d="M7417 17441c267,-499 -295,-977 -741,-741 -213,112 -570,758 -680,999 -227,494 292,972 739,736 189,-100 271,-286 373,-478 52,-98 106,-165 163,-267l146 -249z"/>
   <path class="fil3" d="M5825 20136c127,-491 -443,-879 -853,-564 -144,110 -611,917 -643,1036 -138,517 430,927 864,590 116,-91 581,-862 632,-1062z"/>
   <path class="fil3" d="M9983 20350l-52 107c-269,437 95,962 582,841 250,-63 327,-202 427,-398 90,-174 206,-350 302,-521 353,-628 -127,-969 -516,-912 -271,40 -330,195 -442,381l-301 502z"/>
   <path class="fil3" d="M3994 16657c-28,41 50,33 -64,40l-145 70c-1,44 11,35 -31,31 13,47 21,35 -29,32 -14,79 12,45 -41,47 11,59 27,49 -25,49 -53,285 -520,687 -482,1074 45,460 606,651 932,342 70,-67 530,-860 571,-988 104,-324 -68,-776 -686,-697z"/>
   <path class="fil3" d="M9547 16637l-82 41 -64 28c-25,35 -27,43 -76,76 2,48 13,40 -33,29 12,52 21,41 -31,31 -26,70 27,-14 -28,64 -36,51 -14,15 -51,37 17,54 29,43 -26,43 -122,377 -721,874 -308,1334 143,160 459,250 693,83 156,-112 303,-347 388,-546l132 -194c73,-224 294,-391 114,-731 -127,-241 -284,-284 -628,-295z"/>
   <path class="fil3" d="M12954 16942c-37,-32 -39,-18 -73,-90 -50,4 -41,15 -30,-33l-25 -36 -144 -101 -65 -35c-522,-22 -588,150 -859,647 -175,321 -490,700 -117,1041 140,127 350,219 599,111 182,-79 255,-228 359,-404 305,-518 470,-701 355,-1100z"/>
   <path class="fil3" d="M7119 20546c-84,522 44,448 183,653 146,118 341,164 552,63 166,-81 238,-212 340,-391 89,-158 179,-317 265,-466 96,-164 197,-297 131,-545 -108,-402 -647,-546 -936,-230l-535 916z"/>
   <path class="fil4" d="M14406 427c-20,538 16,1141 -4,1696 41,-38 21,31 48,-85l5 -337c-1,-226 35,-1224 -49,-1274 15,-103 19,-46 -29,-69l29 69z"/>
   <path class="fil5" d="M15886 9414l-90 -118 -44 -72c-91,-62 -254,-231 -337,-310 -116,-110 -217,-166 -330,-262 -69,12 -62,32 -47,-31l-50 -15c-29,-14 -30,-16 -58,-32 -13,-8 -31,-17 -55,-30 -63,-33 -31,-5 -98,-62l-195 -107 -70 -24 -55 -8c103,95 264,147 395,218l718 534c106,107 57,149 105,200 43,45 34,10 111,48 70,35 42,31 100,71z"/>
   <path class="fil6" d="M13389 2163c-95,-521 32,-1225 -21,-1721l25 -51c-57,0 -40,-11 -25,51 -43,27 -15,-54 -38,67l-4 1253c0,112 -42,331 63,401z"/>
   <path class="fil7" d="M14590 3949c-39,-40 59,-39 -203,-72 -211,-27 -588,-115 -776,1 201,3 308,-16 524,10 156,19 312,49 455,61z"/>
   <path class="fil8" d="M16899 7420c-50,-18 -37,82 -41,133 22,-27 25,-25 45,-78 17,-48 31,-24 -4,-55 10,-13 25,-19 40,-71 10,-35 51,-917 -42,-917 -4,247 44,484 11,812l-9 176z"/>
   <path class="fil8" d="M15680 4434c31,40 -72,25 84,42l-8 36 37 28c47,-14 36,-23 35,27l40 17c-7,48 -16,36 33,29 -8,49 -19,39 30,31l39 21c-4,46 -13,34 36,26 -10,50 -20,40 29,32 -7,51 -17,40 33,27 -9,52 -23,43 26,38 -21,52 -26,39 30,26l143 137 -9 31c37,62 -21,8 39,59 42,34 17,12 58,30 -19,64 -39,59 21,46 -21,83 44,73 68,82 -22,67 -47,67 17,47l33 59 12 64c11,91 -1,-6 51,37l-63 -101c-1,-122 5,-46 -33,-59 22,-67 47,-68 -17,-47l-68 -82c22,-69 45,-67 -21,-46 -39,-115 -11,-56 -88,-120 -45,-92 -56,-103 -143,-137l-30 -26c18,-59 33,-52 -26,-38 11,-48 18,-35 -33,-27 7,-49 18,-40 -29,-32 10,-50 17,-37 -36,-26l-39 -21c5,-48 16,-39 -30,-31 9,-53 19,-42 -33,-29l-104 -108c-25,-58 -8,-54 -84,-42 -9,-16 11,-26 -47,-71 -29,-23 27,-16 -80,-29 35,51 1,26 65,74 32,23 38,16 62,26z"/>
   <path class="fil7" d="M15862 9205c138,-72 96,-56 193,-159l191 -206c13,-13 38,-35 47,-44 121,-121 252,-367 314,-533l-94 143c-102,237 -177,275 -309,425l-249 268c-16,14 -36,25 -51,41 -40,42 -6,1 -42,65z"/>
   <path class="fil9" d="M11849 5835l349 463c71,116 40,112 149,169 -34,-124 -57,-120 -131,-215 -5,-8 -20,-30 -25,-37 -30,-38 -40,-47 -69,-82 -43,-53 -240,-283 -177,-321l-96 23z"/>
   <path class="fil3" d="M48 11830c-1,-366 -44,-596 39,-962 -67,56 -51,127 -60,214 -9,92 -14,171 -16,264 -4,116 -38,421 37,484z"/>
   <path class="fil3" d="M16539 11763c66,-71 60,-731 -28,-840 5,79 28,148 31,221 1,51 -6,120 -1,201 9,138 -18,290 -2,418z"/>
   <path class="fil7" d="M11930 4554c-59,-18 -50,-30 -32,29 -93,1 -27,-8 -40,52l-32 28c-49,-9 -39,-22 -40,23 -48,-9 -40,-22 -35,24 -45,-2 -34,-13 -32,32l-18 40c-42,-1 -30,-10 -27,35 -56,29 -9,-5 -57,36 -6,5 -34,36 -44,48 -53,61 -27,20 -60,90 -54,-7 -38,-14 -20,42 -55,-14 -38,-18 -22,39 -55,8 -37,-39 -49,42 -57,-15 -43,-22 -25,36 -52,-20 -30,-20 -29,46 60,0 47,13 29,-46 56,17 41,22 25,-36 51,-13 33,46 49,-42 57,14 39,19 22,-39 55,13 37,17 20,-42 55,-47 119,-88 161,-174l38 0 -11 -35 18 -40c48,3 38,15 32,-32l35 -24c53,9 46,25 40,-23l31 8 1 -36c91,-26 36,1 40,-52 56,16 46,27 32,-29 55,18 45,29 33,-27 61,16 47,28 47,-33 -66,-5 -60,-25 -47,33 -56,-16 -48,-29 -33,27z"/>
   <path class="fil7" d="M13087 3970c-68,-5 -21,-23 -117,4 -46,13 -39,29 -53,42l-99 25c-119,-30 -45,-11 -70,25 -34,6 -34,-4 -88,22 -100,48 -38,24 -69,59 -92,-3 -42,-12 -61,31 -44,3 -36,-3 -75,16 -78,37 -12,15 -44,48 -68,-21 -57,-40 -57,23l57 -23 119 -64c116,5 42,4 61,-31l148 -33 9 -48c110,11 58,18 70,-25 84,33 79,10 99,-25l170 -46c83,8 -98,59 54,-2 5,-2 18,-8 23,-11 5,-2 14,-10 21,-16 32,11 -22,35 74,-3 117,-46 17,-2 69,-46 -82,5 -126,-14 -143,49 -34,-1 -103,-29 -98,29z"/>
   <path class="fil6" d="M11219 3136c196,137 552,40 663,-155l63 -134c-125,112 -56,161 -266,268 -129,66 -302,52 -460,21z"/>
   <path class="fil3" d="M8588 4236c-82,-42 -579,-81 -631,12 178,5 423,-16 631,-12z"/>
   <path class="fil10" d="M15756 4512c-5,53 -15,41 37,28 -4,50 -15,40 35,27 82,79 152,88 223,203 67,109 54,178 207,212l9 -31 -143 -137c-56,13 -51,26 -30,-26 -49,5 -35,14 -26,-38 -50,13 -40,24 -33,-27 -49,8 -39,18 -29,-32 -49,8 -40,20 -36,-26l-39 -21c-49,8 -38,18 -30,-31 -49,7 -40,19 -33,-29l-40 -17c1,-50 12,-41 -35,-27l-37 -28 8 -36c-156,-17 -53,-2 -84,-42 -24,-10 -30,-3 -62,-26 -64,-48 -30,-23 -65,-74l-37 -10c35,70 24,52 108,110 55,38 53,50 132,78z"/>
   <path class="fil8" d="M15139 4097c4,53 -41,40 58,33 -21,58 29,38 79,40 32,49 -11,12 42,53 24,18 28,15 57,33 57,34 69,45 141,68 -50,-112 -94,-139 -240,-154 -22,-28 71,-40 -79,-40 -22,-37 64,-53 -58,-33 20,-68 21,-40 -59,-24 0,63 -12,43 59,24z"/>
   <path class="fil11" d="M7302 21199c-139,-205 -267,-131 -183,-653 -5,7 -12,16 -15,21l-35 66c-16,45 -17,67 -18,113 -5,191 92,361 251,453z"/>
   <path class="fil4" d="M18448 6494c-51,-11 -40,-21 -31,30 -60,-19 -42,-22 -20,38 -55,-4 -41,-14 -25,42 -53,3 -40,-42 -34,54 -68,26 -59,22 -51,99 -72,160 -6,249 -5,245 2,-4 9,16 15,23l-10 -268c38,-37 28,11 51,-99l34 -54c65,16 47,22 25,-42l20 -38c57,17 46,27 31,-30l39 -20c67,23 48,32 48,-41 -64,5 -55,-15 -48,41 -59,-20 -56,-38 -39,20z"/>
   <path class="fil5" d="M14381 8330l58 18c-9,-58 5,-42 -58,-18l-1 -42c-116,-15 -31,-6 -105,-32 -52,-19 -61,-20 -121,-27l-52 -5 17 54c38,26 20,51 115,56 153,7 -109,-65 147,-4z"/>
   <path class="fil9" d="M12944 7941c1,-120 -10,-46 -26,-135 -13,-76 -3,-93 -11,-184l-90 -76c17,118 14,107 50,202 37,99 7,171 77,193z"/>
   <path class="fil3" d="M2833 8155c136,-41 267,-41 413,-56 87,-8 161,-7 247,-5 141,3 118,40 157,-66 -86,68 7,22 -98,47 -134,0 -682,-7 -719,80z"/>
   <path class="fil4" d="M13593 2438l31 -3 1 32 155 50c70,17 118,16 189,19l0 -42c-175,-3 -234,-34 -345,-59l-99 -64c25,46 -15,25 68,67z"/>
   <path class="fil6" d="M17701 4753c-64,-166 -86,-179 -73,-438 -63,75 -56,130 -31,246 37,175 65,159 104,192z"/>
   <path class="fil9" d="M12834 7507c-19,-86 -38,-141 -56,-190l-29 -70c-3,-8 -5,-16 -9,-24l-73 -106c26,111 80,321 167,390z"/>
   <path class="fil6" d="M16236 3184c-49,-58 47,3 -92,-66 -49,-25 -233,-104 -251,-184 -2,-12 -11,-12 -16,-18 49,162 181,233 359,268z"/>
   <path class="fil9" d="M14439 8348l18 -5 55 8 70 24 195 107c67,57 35,29 98,62 24,13 42,22 55,30 28,16 29,18 58,32l50 15c-15,63 -22,43 47,31 0,-61 14,-47 -47,-31l-50 -15c-78,-94 -74,-104 -211,-124 -55,-57 -102,-76 -195,-107l-70 -24c-81,-41 -59,-34 -132,-63l1 42c63,-24 49,-40 58,18z"/>
   <path class="fil6" d="M13555 136c-50,-12 -42,-25 -35,24 -59,-22 -42,-27 -29,35 -52,-6 -43,-17 -28,33 -51,-12 -32,-16 -28,46 56,0 43,12 28,-46 53,9 42,19 28,-33 47,6 35,15 29,-35 56,18 50,32 35,-24 54,-15 47,-10 92,-31 8,-4 33,-16 41,-21 43,-27 29,-21 57,-47 -46,10 -76,14 -121,38 -120,66 -31,20 -69,61z"/>
   <path class="fil4" d="M17204 926c-50,-80 -229,-80 -284,-13l284 13z"/>
   <path class="fil6" d="M14045 66c-84,-100 -205,-70 -268,-20l268 20z"/>
   <path class="fil4" d="M11236 3138c-7,-6 -16,-15 -21,-19l-157 -102c-66,-62 -2,3 -49,-75l-25 -43c-4,-5 -16,-7 -18,-20 -3,-13 -13,-12 -20,-18 71,173 81,211 290,277z"/>
   <path class="fil6" d="M10249 1090l5 51 -28 64 -29 93c-46,79 -47,168 8,238l-8 -238 29 -93c46,-17 39,34 28,-64 6,-5 15,-19 17,-15 3,5 13,-13 17,-18 4,-5 11,-17 15,-23 5,-6 10,-17 15,-25l-44 12 -25 18z"/>
   <path class="fil8" d="M10385 996c-47,-6 -41,-20 -34,24 -58,-10 -53,-26 -36,27 -44,-10 -31,-19 -41,25l-25 18 25 -18 44 -12 -3 -13c51,10 42,23 36,-27 47,10 38,21 34,-24l24 7 43 -32c6,-3 22,1 27,-12 5,-13 20,-7 30,-10l-20 -10 0 -32 -80 20 -24 69z"/>
   <path class="fil6" d="M16632 3105l104 -7 136 -234c-97,81 -62,80 -113,139l-107 87c-3,-6 -13,10 -20,15z"/>
   <path class="fil6" d="M20733 7025c19,-25 28,-19 42,-74 28,-106 -24,-167 -25,-174 -2,-14 -10,-15 -16,-22l-1 270z"/>
   <path class="fil6" d="M16706 997c-53,-13 -46,-27 -38,24 -47,-10 -34,-17 -27,34 -54,-9 -44,-21 -30,32l-16 45c-52,-9 -33,-15 -31,47 59,0 45,13 31,-47l16 -45c47,2 38,14 30,-32 48,10 34,17 27,-34 52,8 45,22 38,-24 50,12 41,25 39,-23 95,-12 30,8 53,-53 -86,17 -36,-5 -53,53l-39 23z"/>
   <path class="fil6" d="M17626 9468l-3 -223c-16,27 -43,-56 -44,116 -1,150 36,93 47,107z"/>
   <path class="fil4" d="M10870 914c-30,-30 -7,-44 -114,-48 -90,-3 -93,5 -132,44l246 4z"/>
   <path class="fil11" d="M3785 16767c-54,-11 -45,-22 -31,31 -50,-4 -41,-15 -29,32l-41 47c-56,-10 -36,-16 -25,49 52,0 36,10 25,-49 53,-2 27,32 41,-47 50,3 42,15 29,-32 42,4 30,13 31,-31l145 -70c114,-7 36,1 64,-40l-64 40c-68,10 -20,-15 -97,24 -35,18 -28,26 -48,46z"/>
   <path class="fil11" d="M9401 16706l-76 76c-55,-13 -45,-24 -33,29 -54,-9 -45,-21 -31,31 -22,18 -22,12 -49,45 -19,23 -24,43 -30,56 -53,-18 -33,-19 -26,43 55,0 43,11 26,-43 37,-22 15,14 51,-37 55,-78 2,6 28,-64 52,10 43,21 31,-31 46,11 35,19 33,-29 49,-33 51,-41 76,-76l64 -28 82 -41 -82 41c-116,-12 -40,-6 -64,28z"/>
   <path class="fil9" d="M12516 6764c-8,-38 -8,-78 -27,-110 -68,-108 -7,-29 -86,-70 22,71 12,67 41,112 68,106 -12,2 72,68z"/>
   <path class="fil6" d="M20587 6488c-10,53 -19,42 33,28 -10,51 -23,42 24,40 -16,58 -35,54 18,43 -18,61 -30,46 32,46 2,-64 22,-57 -32,-46 15,-53 31,-45 -18,-43 17,-60 34,-55 -24,-40 11,-52 20,-40 -33,-28 11,-51 18,-35 -39,-33 0,56 -14,47 39,33z"/>
   <path class="fil8" d="M16781 5895c0,58 -12,54 9,116 53,153 -3,19 56,80 -7,-45 -4,-52 -22,-110l-43 -86c23,-125 9,-37 -37,-72 11,130 -4,68 37,72z"/>
   <path class="fil4" d="M19674 4175l51 -29c6,-4 14,-10 21,-15 5,-5 11,-11 17,-16l28 -32c81,-89 63,-81 89,-177 -5,7 -13,9 -16,22 -15,77 -69,84 -144,178l-31 44c-4,6 -10,17 -15,25z"/>
   <path class="fil4" d="M17813 8942c-53,-11 -47,-25 -37,25 -52,-15 -40,-23 -30,31 -48,-10 -34,-19 -38,33 56,0 50,16 38,-33 49,9 39,19 30,-31 56,14 49,28 37,-25 49,10 40,23 38,-22 64,20 46,30 46,-40 -59,6 -49,-12 -46,40 -56,-18 -50,-33 -38,22z"/>
   <path class="fil6" d="M20401 7420c71,-24 98,-44 149,-76 36,-23 45,-23 73,-49l41 -59c-77,40 -71,40 -139,85 -30,20 -43,24 -74,49 -33,25 -28,25 -50,50z"/>
   <path class="fil4" d="M17032 2526l34 -34c4,-5 11,-13 15,-19l61 -93c61,-97 37,-55 75,-160 -51,46 -17,2 -55,56l-130 250z"/>
   <path class="fil6" d="M19755 9703l101 94c-32,-112 -59,-149 -168,-198l67 104z"/>
   <path class="fil6" d="M18259 8823c-21,-24 45,-39 -87,-47 -136,-8 -98,36 -104,40l191 7z"/>
   <path class="fil4" d="M17379 1000c-12,48 -15,30 40,19 -6,51 -17,41 33,29l23 36c-20,58 -28,41 36,41 -3,-54 13,-44 -36,-41 17,-56 32,-50 -23,-36 6,-50 17,-40 -33,-29 8,-50 14,-34 -40,-19 11,-50 17,-34 -39,-28 -15,59 -22,44 39,28z"/>
   <path class="fil6" d="M14271 167c-8,49 -20,39 28,36 -12,54 -27,48 23,37 -15,59 -26,44 33,44 3,-61 21,-54 -33,-44 14,-49 26,-40 -23,-37 13,-60 29,-54 -28,-36 11,-50 16,-31 -45,-27 0,56 -12,43 45,27z"/>
   <path class="fil6" d="M19637 3254l43 23 -21 31c72,0 57,-20 57,47l33 3c-4,49 -16,40 31,33l46 46c-15,58 -31,48 23,48l-23 -48 -46 -46c16,-55 25,-43 -31,-33 -31,-69 8,-34 -69,-81 14,-64 20,-45 -43,-23l-58 -19c0,61 -10,41 58,19z"/>
   <path class="fil6" d="M13969 2494l0 42c95,-19 140,-10 158,-82l-158 40z"/>
   <path class="fil9" d="M14102 8224l52 5c-75,-51 -70,-57 -182,-60 0,61 -15,43 49,48l81 7z"/>
   <path class="fil6" d="M18025 4973l-280 -153c65,89 166,130 280,153z"/>
   <path class="fil6" d="M11042 954c5,6 10,9 13,19 2,10 10,15 13,18 49,45 1,9 52,39 -5,48 -17,40 30,33 38,70 32,54 69,85 1,79 -18,37 45,53l-45 -53 -69 -85c13,-51 23,-41 -30,-33 -25,-39 -10,-38 -78,-76 9,-53 15,-34 -46,-26 0,58 -11,44 46,26z"/>
   <path class="fil10" d="M16738 5810l-28 -80c0,-55 13,-40 -43,-40l-26 69c8,5 16,6 19,14l78 37z"/>
   <path class="fil6" d="M15821 2726l-1 -193c-12,21 -37,-25 -33,113 3,147 7,36 34,80z"/>
   <path class="fil4" d="M17897 9820l-59 -59c-6,-4 -14,-10 -20,-14l-41 -25c-6,-3 -17,-8 -22,-11 -6,-3 -16,-8 -23,-12 4,7 10,17 13,22l26 40c2,4 10,23 11,18 2,-4 8,12 12,17 169,57 -52,-67 103,24z"/>
   <path class="fil4" d="M10330 1801l-76 -178c-4,-8 -9,-16 -14,-23l-34 -47c30,137 47,152 124,248z"/>
   <path class="fil9" d="M11786 4686l-35 24c6,47 16,35 -32,32l-18 40 11 35c41,-42 36,-46 68,-77 38,-38 29,-19 77,-69l-31 -8c6,48 13,32 -40,23z"/>
   <path class="fil11" d="M12682 16682l144 101 25 36c-11,48 -20,37 30,33 34,72 36,58 73,90l-73 -90c13,-52 23,-41 -30,-33 11,-49 23,-39 -25,-36 -52,-69 -41,-71 -144,-101l-65 -35 65 35z"/>
   <path class="fil9" d="M12415 6589c-15,-143 -17,-87 -77,-113 15,97 31,83 77,113z"/>
   <path class="fil4" d="M18631 3536c-85,-1 -38,-14 -55,36 -84,0 -42,-20 -52,37 -61,-18 -51,-35 -51,20l51 -20 52 -37 55 -36c76,0 35,16 51,-44 61,10 50,27 50,-28l-50 28 -51 44z"/>
   <polygon class="fil12" points="19755,9703 19688,9599 19644,9573 19681,9677 "/>
   <path class="fil4" d="M18158 3813c66,14 54,31 48,-33 69,14 56,31 56,-33 -70,0 -63,-22 -56,33 -62,-15 -48,-29 -48,33z"/>
   <path class="fil4" d="M17732 4083c45,-23 48,-17 89,-47l74 -74c-62,29 -53,16 -100,49 -85,60 -26,22 -63,72z"/>
   <path class="fil4" d="M18647 7413l-238 -158c32,44 7,20 44,54 8,7 42,29 54,37 61,39 65,39 140,67z"/>
   <path class="fil6" d="M10870 2769c-93,-277 -148,-217 -164,-296 -2,-11 -11,-12 -16,-18l180 314z"/>
   <path class="fil9" d="M15796 9296c19,-35 31,-60 51,-98l-95 26 44 72z"/>
   <path class="fil3" d="M16531 10884c-11,-83 6,-109 -54,-137 9,100 -3,71 54,137z"/>
   <path class="fil4" d="M10650 2335c-18,-35 -30,-58 -48,-85l-54 -71c16,55 -10,26 33,94 48,76 28,32 69,62z"/>
   <path class="fil6" d="M17531 1697l-30 56c66,0 49,13 30,-56l43 -58 15 -82c-10,16 -23,25 -40,68 -24,64 -8,32 -18,72z"/>
   <path class="fil6" d="M19075 4540c72,-18 29,8 100,-34 34,-20 34,-33 60,-59 -68,29 -34,7 -83,35l-77 58z"/>
   <path class="fil4" d="M17654 9147c70,0 50,14 31,-60l23 -50c-58,0 -42,-11 -23,50 -55,-10 -31,-15 -31,60z"/>
   <path class="fil12" d="M19716 3355c0,-67 15,-47 -57,-47 -16,90 -32,71 57,47z"/>
   <path class="fil4" d="M11982 2564l-45 -156c-2,-4 -12,-6 -14,-16 -1,-10 -10,-10 -15,-15 6,29 16,81 22,97 31,84 36,68 52,90z"/>
   <path class="fil7" d="M13524 3866c-170,-7 -67,-11 -102,35 171,6 66,9 102,-35z"/>
   <path class="fil4" d="M14127 2454c110,-32 57,0 139,-90 -68,27 -15,-7 -88,41 -55,38 -37,36 -51,49z"/>
   <path class="fil6" d="M16180 1817l-24 52c61,0 44,12 24,-52 9,-6 67,-50 69,-52l1 -47c-41,35 -19,10 -52,54 -69,92 11,-41 -18,45z"/>
   <path class="fil7" d="M16733 7960c42,-48 42,65 33,-65 45,-28 29,61 38,-72 -25,28 -25,11 -48,60 -33,69 -8,23 -23,77z"/>
   <path class="fil3" d="M14199 14679c57,-15 51,-8 105,-33 38,-18 34,-24 54,-39 -11,2 -94,21 -98,23 -49,22 -35,24 -61,49z"/>
   <path class="fil12" d="M16180 1817c20,64 37,52 -24,52l2 5 61 -2 30 -107c-2,2 -60,46 -69,52z"/>
   <path class="fil7" d="M16878 6208c-20,-169 -10,-57 -52,-99 1,93 -1,76 52,99z"/>
   <path class="fil4" d="M18949 3345l54 -19c69,20 52,34 52,-36 -65,3 -57,-17 -52,36 -64,-18 -54,-37 -54,19z"/>
   <path class="fil3" d="M16455 10582c-19,-89 -1,-32 -20,-95 -34,-110 -6,-18 -33,-66 6,57 -7,24 11,89 43,151 -5,1 42,72z"/>
   <path class="fil6" d="M17601 1309c-5,-60 15,-88 -58,-100 30,108 23,68 58,100z"/>
   <path class="fil4" d="M17899 8882l61 -33c86,-6 50,6 95,-43 -100,14 -58,4 -95,43 -91,-10 -39,-18 -61,33z"/>
   <path class="fil6" d="M15879 2921c-51,-102 22,-70 -71,-147 6,29 2,37 21,79 14,33 28,52 30,47 3,-6 14,14 20,21z"/>
   <path class="fil6" d="M10548 2179l-105 -145c25,77 -7,29 37,91 57,81 33,32 68,54z"/>
   <path class="fil4" d="M13502 2353c-4,-11 -27,-73 -29,-77 -42,-72 9,-1 -56,-56 12,26 25,64 35,82 34,58 1,10 50,51z"/>
   <path class="fil6" d="M16431 1396l-40 53 -21 48c56,0 41,10 21,-48l40 -53 34 -58 30 -49c-63,0 -49,-14 -30,49 -39,16 -30,-54 -34,58z"/>
   <path class="fil4" d="M17620 9226c52,-33 39,60 47,-79 -56,25 -38,-51 -47,79z"/>
   <path class="fil6" d="M11701 1989c-43,-164 -101,-167 -107,-193 -2,-13 -12,-13 -17,-20l124 213z"/>
   <path class="fil4" d="M18510 10191c-39,-56 51,-30 -48,-50 11,-55 15,-33 -52,-24 32,32 7,13 55,50 71,54 -74,-36 45,24z"/>
   <path class="fil4" d="M20349 7405c-151,-1 -56,-7 -89,37 147,-7 60,5 89,-37z"/>
   <path class="fil7" d="M16670 8113c32,-28 22,-9 51,-50 44,-62 11,-26 25,-69 -54,48 -43,29 -76,119z"/>
   <path class="fil6" d="M16574 3134c-132,13 -57,-5 -81,43 142,-4 46,6 81,-43z"/>
   <path class="fil6" d="M19918 3657c11,-150 9,-52 -35,-86 8,136 -3,62 35,86z"/>
   <path class="fil4" d="M14416 2129c-65,0 -42,-12 -33,67 57,0 33,10 33,-67z"/>
   <path class="fil6" d="M11891 2304c-11,59 -28,50 23,50l-23 -50c11,-64 28,-52 -31,-52l0 46 31 6z"/>
   <path class="fil6" d="M16638 3104c-72,1 -60,-21 -60,38 74,9 60,29 60,-38z"/>
   <path class="fil4" d="M20438 6406c0,-56 10,-33 -64,-33 0,67 -13,45 64,33z"/>
   <path class="fil11" d="M437 13114c-4,-71 18,-60 -38,-60 -12,74 -31,60 38,60z"/>
   <path class="fil7" d="M15036 4085c-28,-43 54,-28 -81,-41 31,48 -58,36 81,41z"/>
   <path class="fil4" d="M19269 10593c-40,-50 4,-34 -97,-45 32,32 -43,29 97,45z"/>
   <path class="fil6" d="M13414 2236c1,-72 23,-61 -35,-61 -8,74 -29,61 35,61z"/>
   <path class="fil4" d="M19421 4318c-72,-8 -58,-27 -58,38 70,-2 58,20 58,-38z"/>
   <path class="fil6" d="M10917 2843c6,-73 27,-61 -34,-61 -4,73 -26,61 34,61z"/>
   <path class="fil4" d="M18352 8857c-21,-50 41,-32 -74,-45 32,49 -57,36 74,45z"/>
   <path class="fil4" d="M17943 3923c-69,-2 -56,-21 -56,40 70,6 56,24 56,-40z"/>
   <path class="fil7" d="M11277 5266l67 36 5 -47 23 -43c-55,0 -43,-11 -23,43l-72 11z"/>
   <path class="fil4" d="M19112 3257l62 -33c116,42 101,-24 108,-34l-108 34 -62 33z"/>
   <path class="fil6" d="M10693 2457c-2,-68 19,-57 -38,-57 -9,71 -28,57 38,57z"/>
   <path class="fil6" d="M11774 2096c12,-69 28,-53 -41,-53 4,66 -16,53 41,53z"/>
   <path class="fil6" d="M14179 104l55 35c0,-70 15,-54 -55,-35l-51 -22c0,58 -10,41 51,22z"/>
   <path class="fil6" d="M19016 9207c0,-65 14,-47 -56,-38 0,56 -11,36 56,38z"/>
   <path class="fil6" d="M19080 4539c-67,2 -55,-18 -55,40 69,7 55,25 55,-40z"/>
   <path class="fil4" d="M19433 4322c118,-34 63,-19 98,-56 -145,29 -53,2 -98,56z"/>
   <path class="fil6" d="M17972 9881c0,-58 12,-37 -57,-37 0,61 -13,41 57,37z"/>
   <path class="fil6" d="M18706 6341c-104,10 -50,-8 -69,42 125,1 36,9 69,-42z"/>
   <path class="fil6" d="M20702 7113c51,-28 34,52 49,-68 -51,21 -29,-44 -49,68z"/>
   <path class="fil6" d="M18912 9157c0,-60 13,-41 -55,-37 0,58 -13,39 55,37z"/>
   <path class="fil4" d="M18578 4813c-69,-6 -56,-25 -56,37 68,-1 56,19 56,-37z"/>
   <path class="fil6" d="M17469 1807c-59,0 -41,-12 -38,54 61,0 42,13 38,-54z"/>
   <path class="fil6" d="M18806 9091l53 30c0,-63 13,-47 -53,-30l-52 -26c0,60 -12,43 52,26z"/>
   <path class="fil6" d="M20734 6726c6,-74 29,-64 -30,-64 -1,74 -24,64 30,64z"/>
   <path class="fil6" d="M17416 1910c-54,0 -33,-11 -36,57 63,0 44,13 36,-57z"/>
   <path class="fil6" d="M14393 336c7,-68 25,-55 -38,-55 3,66 -17,55 38,55z"/>
   <path class="fil6" d="M18024 9918c0,-57 11,-38 -54,-39 0,63 -14,45 54,39z"/>
   <path class="fil4" d="M19005 4568c-68,-6 -54,-24 -54,38 65,-1 54,19 54,-38z"/>
   <path class="fil6" d="M19290 4417c-66,2 -55,-18 -55,36 68,7 55,26 55,-36z"/>
   <path class="fil6" d="M18710 10303c-6,-5 -13,-13 -18,-16l-138 -74 77 66c51,28 13,4 79,24z"/>
   <path class="fil4" d="M17268 2151c-60,0 -42,-13 -38,53 58,0 39,12 38,-53z"/>
   <path class="fil4" d="M11306 1322c-2,-65 18,-54 -37,-54 -5,67 -24,54 37,54z"/>
   <path class="fil4" d="M11343 1374c0,-62 17,-50 -39,-50 -6,65 -22,50 39,50z"/>
   <path class="fil4" d="M19210 9336l53 17c0,-57 9,-38 -53,-17l-28 -33c-38,68 -46,56 28,33z"/>
   <path class="fil6" d="M16568 1182c-59,0 -42,-13 -39,51 59,0 42,13 39,-51z"/>
   <path class="fil4" d="M19055 9244l47 23c0,-55 11,-40 -47,-23l-54 -31c0,65 -14,48 54,31z"/>
   <path class="fil4" d="M16984 2629c-61,0 -43,-13 -37,54 54,0 35,11 37,-54z"/>
   <path class="fil6" d="M18429 8875c0,-59 13,-41 -54,-35 0,55 -11,36 54,35z"/>
   <path class="fil11" d="M9929 17857c27,-24 26,-17 53,-51 33,-43 -1,2 24,-39 20,-31 34,-64 55,-104l-132 194z"/>
   <path class="fil4" d="M20686 7157c-56,0 -36,-11 -34,57 55,0 35,11 34,-57z"/>
   <path class="fil6" d="M19885 9856c8,-68 26,-55 -34,-55 2,65 -19,55 34,55z"/>
   <path class="fil6" d="M10992 935c0,-58 12,-38 -59,-30 0,51 -9,30 59,30z"/>
   <path class="fil6" d="M17504 1754c-55,0 -36,-12 -38,51 61,0 44,14 38,-51z"/>
   <path class="fil6" d="M16303 1606l-22 49c60,0 44,11 22,-49l37 -56 32 -47c-61,0 -48,-14 -32,47l-37 56z"/>
   <path class="fil6" d="M18391 10131c0,-55 12,-37 -50,-39 0,61 -14,45 50,39z"/>
   <path class="fil6" d="M19552 4257l90 -33c6,-13 16,-12 24,-19l-67 14c-141,-32 9,-5 -47,38z"/>
   <path class="fil6" d="M18453 3619c-64,-5 -50,-21 -50,39 62,-1 50,16 50,-39z"/>
   <path class="fil4" d="M19369 9420l50 45c-19,-51 26,-36 -50,-45l-60 -27c0,63 -12,42 60,27z"/>
   <path class="fil6" d="M18299 3717c-65,-15 -53,-32 -53,28l53 -28 51 -41c61,19 52,37 52,-19l-52 19 -51 41z"/>
   <path class="fil6" d="M16956 2701c-54,0 -34,-11 -37,53 60,0 42,12 37,-53z"/>
   <path class="fil7" d="M16591 5479l33 59c-3,99 -10,47 31,60 -18,64 -35,53 26,53l-26 -53 -31 -60 -33 -59 -46 -57 46 57z"/>
   <path class="fil6" d="M11827 2198c6,-62 20,-47 -41,-47 1,60 -15,47 41,47z"/>
   <path class="fil11" d="M494 9703c-64,0 -50,-15 -37,50 50,0 31,10 37,-50z"/>
   <path class="fil6" d="M11390 1465l42 51c-20,62 -38,52 21,52l-21 -52 -42 -51c16,-63 34,-53 -23,-53l23 53z"/>
   <path class="fil13" d="M11908 2377l6 -23c-51,0 -34,9 -23,-50l-31 -6 4 69 44 10z"/>
   <path class="fil6" d="M15911 2293c-62,0 -47,-15 -37,50 52,0 33,10 37,-50z"/>
   <path class="fil6" d="M11579 1777c3,-64 20,-51 -38,-51 1,63 -17,51 38,51z"/>
   <path class="fil6" d="M11735 2047c5,-67 24,-55 -34,-55 2,65 -18,55 34,55z"/>
   <path class="fil3" d="M10210 4633c0,-51 9,-31 -57,-31 0,58 -11,38 57,31z"/>
   <path class="fil6" d="M14120 86c0,-56 10,-37 -57,-31 0,52 -10,32 57,31z"/>
   <path class="fil4" d="M20494 6437c0,-53 12,-35 -50,-38 0,59 -13,42 50,38z"/>
   <path class="fil4" d="M18576 6395c-62,1 -51,-17 -51,37 63,4 51,21 51,-37z"/>
   <path class="fil4" d="M18523 8931c0,-54 11,-35 -52,-36 0,57 -12,39 52,36z"/>
   <path class="fil6" d="M18340 10092l-73 -42c-6,-15 -22,-7 -34,-11 58,59 -67,29 107,53z"/>
   <path class="fil4" d="M18094 3837c-62,2 -51,-16 -51,36 64,5 51,22 51,-36z"/>
   <path class="fil6" d="M16283 1656c-58,0 -41,-12 -36,51 53,0 35,11 36,-51z"/>
   <path class="fil4" d="M19157 9304c0,-53 12,-37 -47,-39 0,61 -15,47 47,39z"/>
   <path class="fil6" d="M16036 2078c-57,0 -41,-13 -38,49 55,0 37,12 38,-49z"/>
   <path class="fil6" d="M11491 1618c6,-62 21,-48 -38,-48 2,60 -15,48 38,48z"/>
   <path class="fil4" d="M14329 2295c-58,0 -43,-14 -39,48 53,0 35,11 39,-48z"/>
   <path class="fil6" d="M17043 2544c-54,0 -37,-12 -37,49 57,0 40,13 37,-49z"/>
   <path class="fil6" d="M16124 1923c-59,0 -43,-14 -37,49 51,0 33,11 37,-49z"/>
   <path class="fil6" d="M18183 10004c0,-52 10,-34 -51,-36 0,58 -12,42 51,36z"/>
   <path class="fil6" d="M17713 9684c-3,-10 -6,-34 -9,-28 -3,5 -7,-21 -11,-26 -29,-42 -16,-27 -50,-55 19,58 5,25 33,72 3,5 15,24 18,19 2,-5 13,12 19,18z"/>
   <path class="fil6" d="M16532 1240c-56,0 -39,-12 -37,50 55,0 37,11 37,-50z"/>
   <path class="fil6" d="M19883 10239c-50,0 -31,-10 -33,52 58,0 41,12 33,-52z"/>
   <path class="fil6" d="M18386 7247l-87 -165c12,66 -5,44 30,109 94,176 -117,-134 57,56z"/>
   <path class="fil3" d="M1431 8721c-57,6 -46,-11 -46,40 61,7 46,21 46,-40z"/>
   <path class="fil6" d="M18697 9018l57 50c-24,-56 44,-37 -57,-50l-50 -24c0,53 -9,36 50,24z"/>
   <path class="fil4" d="M18573 8968c0,-51 11,-32 -50,-36 0,57 -12,40 50,36z"/>
   <path class="fil4" d="M18846 4655c-60,-6 -45,-20 -45,39 57,-3 45,13 45,-39z"/>
   <path class="fil6" d="M19882 3544c6,-62 22,-50 -34,-50 0,60 -18,50 34,50z"/>
   <path class="fil3" d="M16307 12760c-54,0 -34,-10 -30,55 50,0 30,9 30,-55z"/>
   <path class="fil6" d="M18641 8998c0,-56 12,-39 -50,-36 0,52 -11,34 50,36z"/>
   <path class="fil4" d="M19158 10558c0,-55 11,-37 -52,-33 0,52 -10,33 52,33z"/>
   <path class="fil4" d="M10361 1857c7,-62 23,-49 -34,-49 2,59 -16,49 34,49z"/>
   <path class="fil6" d="M19853 10300c-52,0 -34,-11 -37,48 57,0 41,13 37,-48z"/>
   <path class="fil4" d="M17355 2002c-55,0 -39,-13 -36,48 52,0 34,11 36,-48z"/>
   <path class="fil3" d="M8912 4272c-31,-54 -46,-34 -128,-37l128 37z"/>
   <path class="fil6" d="M17642 4202c74,-53 39,-12 75,-98 -36,31 -21,14 -52,53 -62,77 21,-52 -23,45z"/>
   <path class="fil4" d="M11855 2263c-4,-57 13,-47 -37,-47 -5,60 -20,47 37,47z"/>
   <path class="fil6" d="M18923 10426l-74 -42c-7,-15 -23,-6 -35,-9 42,37 -39,27 109,51z"/>
   <path class="fil3" d="M16369 12615c-58,0 -43,-13 -32,48 47,0 30,10 32,-48z"/>
   <path class="fil6" d="M16158 1874c-57,-5 -40,-16 -35,47 48,0 31,10 35,-47z"/>
   <path class="fil4" d="M19099 3254c-57,3 -47,-14 -47,37 60,4 47,20 47,-37z"/>
   <path class="fil6" d="M18763 10337c0,-51 11,-35 -47,-35 0,54 -12,38 47,35z"/>
   <path class="fil6" d="M19026 10479c-41,-41 39,-19 -101,-52 6,6 14,14 19,18 6,4 17,12 23,15l59 19z"/>
   <path class="fil3" d="M5473 5151c-62,35 -48,31 -76,75l-42 22 -46 15 -33 26 33 -26 46 -15 42 -22c36,-66 6,-40 76,-75l43 -17c65,12 50,26 50,-38 -57,7 -45,-11 -50,38l-43 17z"/>
   <path class="fil11" d="M9931 20457l52 -107c-46,41 -34,-56 -52,107z"/>
   <path class="fil6" d="M19486 9491c0,-54 12,-39 -46,-35 0,50 -11,34 46,35z"/>
   <path class="fil6" d="M18817 10374c0,-49 11,-32 -46,-36 0,55 -12,40 46,36z"/>
   <path class="fil4" d="M10409 1003c134,-28 62,-12 100,-54 -10,3 -25,-3 -30,10 -5,13 -21,9 -27,12l-43 32z"/>
   <path class="fil6" d="M15948 2236c5,-6 14,-23 16,-19l35 -88c-44,48 -25,-53 -51,107z"/>
   <path class="fil6" d="M18707 4749c186,-16 43,17 106,-49l-106 49z"/>
   <path class="fil3" d="M16061 9697l-38 -85c-2,-12 -9,-12 -14,-18 17,129 10,61 52,103z"/>
   <path class="fil4" d="M18248 10036c0,-50 10,-32 -48,-34 0,50 -11,33 48,34z"/>
   <path class="fil6" d="M15948 2246c-54,0 -39,-12 -36,45 49,0 33,11 36,-45z"/>
   <path class="fil4" d="M16041 2097c62,-68 20,83 51,-104 -6,6 -13,13 -16,18l-35 86z"/>
   <path class="fil3" d="M4225 6525l-44 43 -22 47 22 -47 44 -43 46 -48 16 -43c-48,0 -33,-8 -16,43 -49,9 -27,-41 -46,48z"/>
   <path class="fil6" d="M10446 2032l-51 -105c23,177 -9,48 51,105z"/>
   <path class="fil6" d="M11542 1725c-26,-179 8,-51 -52,-109l52 109z"/>
   <path class="fil6" d="M18130 9969l-110 -53c66,62 -81,24 110,53z"/>
   <path class="fil3" d="M16451 12290c39,-25 40,3 44,-100l-44 100z"/>
   <path class="fil6" d="M16867 2860c50,-54 23,62 53,-108l-53 108z"/>
   <path class="fil6" d="M17306 947c-6,44 -13,31 34,25 15,-55 22,-42 -34,-25l-58 -39 58 39z"/>
   <path class="fil6" d="M19558 3229c-30,-49 56,-40 -76,-41l76 41z"/>
   <path class="fil6" d="M16862 902c-74,-9 -63,-31 -63,29l63 -29z"/>
   <path class="fil6" d="M17651 4214c-61,0 -38,-10 -29,65l29 -65z"/>
   <path class="fil6" d="M20374 6378c-25,-46 50,-35 -78,-40l78 40z"/>
   <path class="fil6" d="M15818 2474l44 -74c-49,24 -34,-49 -44,74z"/>
   <path class="fil6" d="M19919 9974c-7,-98 6,-53 -43,-91l43 91z"/>
   <path class="fil6" d="M19876 3901c45,-24 35,40 38,-76l-38 76z"/>
   <path class="fil4" d="M19629 9567l-100 -54c39,41 -35,24 100,54z"/>
   <path class="fil4" d="M19877 10188c41,-25 32,51 33,-82l-33 82z"/>
   <path class="fil3" d="M14511 14548c-72,-8 -62,-30 -62,28l62 -28z"/>
   <path class="fil11" d="M4066 6772c-60,0 -40,-11 -31,58l31 -58z"/>
   <path class="fil6" d="M11935 2824c47,-19 31,38 40,-73l-40 73z"/>
   <path class="fil3" d="M4474 6159l-35 49c61,0 46,14 35,-49l13 -48 23 -38 -23 38 -13 48z"/>
   <path class="fil3" d="M6005 4796l41 -14c70,9 60,30 60,-25l-60 25 -41 14z"/>
   <path class="fil3" d="M16398 10391l-30 -54c-8,65 -27,54 30,54z"/>
   <path class="fil3" d="M2080 8357l-53 30c64,6 53,24 53,-30z"/>
   <polygon class="fil6" points="10542,904 10489,907 10489,939 "/>
   <path class="fil11" d="M316 12856l-49 -55c19,103 -3,23 49,55z"/>
   <path class="fil3" d="M1916 14488c0,-47 10,-33 -41,-30l41 30z"/>
   <path class="fil3" d="M1520 8643c83,-21 51,-16 80,-47l-80 47z"/>
   <path class="fil3" d="M1510 8656l-37 35c47,-4 37,9 37,-35z"/>
   <path class="fil3" d="M1631 14341l-34 -35c0,45 -11,33 34,35z"/>
   <path class="fil3" d="M673 13458c-32,-79 -18,-39 -53,-68l53 68z"/>
   <polygon class="fil6" points="13625,2467 13624,2435 13593,2438 "/>
   <path class="fil3" d="M745 9377c5,-7 12,-16 15,-20l66 -92 -81 112z"/>
   <polygon class="fil3" points="463,9785 434,9815 "/>
   <polygon class="fil3" points="9088,4284 9012,4263 "/>
   <polygon class="fil3" points="4151,6636 4127,6665 "/>
   <polygon class="fil3" points="4118,6698 4093,6724 "/>
   <polygon class="fil3" points="554,9641 527,9669 "/>
   <polygon class="fil3" points="6487,4567 6439,4591 "/>
   <polygon class="fil3" points="335,10022 312,10063 "/>
   <polygon class="fil3" points="162,12416 138,12361 "/>
   <polygon class="fil3" points="191,12509 162,12467 "/>
   <polygon class="fil3" points="219,12600 194,12563 "/>
   <polygon class="fil3" points="1757,8506 1725,8535 "/>
   <polygon class="fil3" points="257,12681 220,12640 "/>
   <polygon class="fil3" points="277,12750 257,12706 "/>
   <polygon class="fil3" points="9985,4553 9919,4506 "/>
   <polygon class="fil3" points="3879,7184 3918,7135 "/>
   <polygon class="fil3" points="1808,8473 1775,8495 "/>
   <polygon class="fil3" points="6606,4517 6659,4510 6739,4479 6659,4510 "/>
   <polygon class="fil3" points="9809,4484 9740,4445 "/>
   <polygon class="fil3" points="3729,7601 3764,7562 "/>
   <polygon class="fil3" points="3718,7670 3702,7706 "/>
   <polygon class="fil3" points="1981,14517 1935,14492 "/>
   <polygon class="fil3" points="3670,7896 3650,7958 "/>
   <polygon class="fil3" points="6819,4445 6765,4488 "/>
   <polygon class="fil3" points="2473,14713 2398,14665 "/>
   <polygon class="fil6" points="12334,4270 12274,4320 "/>
   <polygon class="fil3" points="2001,8384 1956,8409 "/>
   <polygon class="fil3" points="7009,4379 6973,4418 "/>
   <polygon class="fil3" points="7881,4229 7693,4260 "/>
   <polygon class="fil3" points="2143,8321 2094,8361 "/>
   <polygon class="fil3" points="7137,4358 7087,4379 "/>
   <polygon class="fil3" points="2227,8297 2179,8320 "/>
   <polygon class="fil3" points="2306,8261 2261,8282 "/>
   <polygon class="fil3" points="2399,8234 2353,8254 "/>
   <polygon class="fil3" points="243,10238 224,10280 "/>
   <polygon class="fil3" points="2763,8139 2693,8166 "/>
   <polygon class="fil3" points="340,9996 394,9895 "/>
   <polygon class="fil3" points="5685,5000 5639,5011 5602,5067 5564,5085 5602,5067 5639,5011 5685,5000 5731,4951 5781,4931 5731,4951 "/>
   <polygon class="fil3" points="1527,14282 1502,14253 "/>
  </g>
 </g>
</svg>
