<?xml version="1.0" encoding="UTF-8"?>
<!DOCTYPE svg PUBLIC "-//W3C//DTD SVG 1.1//EN" "http://www.w3.org/Graphics/SVG/1.1/DTD/svg11.dtd">
<!-- Creator: CorelDRAW X7 -->
<svg xmlns="http://www.w3.org/2000/svg" xml:space="preserve" width="85.2172in" height="62.7309in" version="1.1" style="shape-rendering:geometricPrecision; text-rendering:geometricPrecision; image-rendering:optimizeQuality; fill-rule:evenodd; clip-rule:evenodd"
viewBox="0 0 13888 10223"
 xmlns:xlink="http://www.w3.org/1999/xlink">
 <defs>
  <style type="text/css">
   <![CDATA[
    .fil2 {fill:#3A81BF}
    .fil3 {fill:#486F8F}
    .fil1 {fill:#85A3BF}
    .fil4 {fill:#A7C3DB}
    .fil0 {fill:#C6E0F7}
   ]]>
  </style>
 </defs>
 <g id="Layer_x0020_1">
  <metadata id="CorelCorpID_0Corel-Layer"/>
  <g id="_434599920">
   <path class="fil0" d="M2068 7412c212,-509 398,-714 762,-1088l77 -66c52,87 126,433 146,533 38,200 23,476 57,627 -37,-4 -23,48 -24,88 4,-6 12,-21 14,-18 1,3 8,-14 9,-21 23,-133 15,86 1,-49l1267 1 -6 82c8,-13 11,-4 28,-54 9,-27 9,-47 16,-73 10,-44 23,-71 41,-113 33,-74 63,-140 105,-207 160,-260 89,-151 257,-356l106 -124c54,-60 90,-106 146,-162 31,-31 48,-47 78,-77l89 -75c129,234 204,857 186,1166l1306 -7 -13 71 44 -79c109,-310 330,-622 554,-840 81,-78 160,-181 252,-253 145,213 171,940 206,1107l-24 130c20,-24 25,-11 32,-64 12,-91 9,-10 -8,-66 960,-96 2196,291 2976,-639l235 -288c234,-10 1082,43 1221,-31l-1220 9c129,-296 226,-539 191,-926 -27,-304 -159,-672 -313,-848 -328,-372 -507,-541 -1030,-700 -150,-45 -359,-36 -496,-81 -98,-219 -81,-628 -484,-1091 -574,-661 -1428,-953 -2300,-686 -106,33 -156,75 -262,93 -158,-387 -616,-805 -1009,-1005 -68,-34 -146,-75 -227,-109 -66,-29 -198,-46 -231,-104 34,-5 26,5 24,-30 -39,0 -29,-10 -24,30 -346,4 -575,-185 -1345,6l-469 178c-31,14 -42,16 -77,35 -43,23 -67,42 -106,69 -32,23 -9,9 -53,36l-57 32c-4,3 -9,6 -13,9l-299 253c-193,166 -432,478 -526,714l-13 32c-3,6 -11,25 -13,32 -244,565 -196,711 -222,1290 -209,31 -533,149 -681,249l-50 38c-39,27 -29,16 -70,39l-269 226c-83,125 -290,209 -457,693 -265,765 -1,1494 591,2000 288,246 872,516 1374,462z"/>
   <path class="fil1" d="M4847 989c2,35 10,25 -24,30 33,58 165,75 231,104 81,34 159,75 227,109 393,200 851,618 1009,1005 106,-18 156,-60 262,-93 872,-267 1726,25 2300,686 403,463 386,872 484,1091 137,45 346,36 496,81 523,159 702,328 1030,700 154,176 286,544 313,848 35,387 -62,630 -191,926l1220 -9 288 -47c11,-7 27,-21 57,-31 1,0 70,-12 74,-13 331,-50 799,-438 924,-628 376,-574 470,-1140 133,-1799 -240,-470 -871,-929 -1438,-936 -35,-1 -96,-1 -130,-6 -119,-16 -63,13 -74,-37l-31 -107c-203,-1160 -1318,-1917 -2524,-1709 -181,31 -331,114 -475,140 -58,-71 -105,-167 -154,-242 -234,-363 -702,-722 -1121,-874 -707,-256 -1338,-242 -2004,81 -401,195 -675,427 -882,730z"/>
   <path class="fil2" d="M3660 8812c-1,36 9,30 -23,27l-17 26c7,35 16,29 -17,28 9,47 19,36 -29,36l-26 8 -24 34 -11 34 -35 30c6,39 17,32 -19,32l-4 -2 -22 38 -9 34 -36 34 -32 92c0,42 11,34 -25,34l1 12 -27 43 -25 43 5 21c1,46 15,39 -21,39l1 28c-2,93 4,33 -27,54l1 30c-1,95 3,38 -24,57l-6 176c51,56 33,47 48,124l3 -2c39,0 28,-8 23,35l-1 11c44,0 37,-12 31,29l15 21 61 5 4 66c14,18 5,13 30,34 5,4 20,15 26,18 41,27 31,19 73,32 50,-7 42,-22 42,21l7 -1 58 23 152 2c23,-29 -44,-26 62,-26l41 9 42 -34 13 5 75 -37 19 -24c25,-42 -1,-20 31,-47 35,-30 -8,0 46,-25l21 -7c0,-48 -14,-40 26,-40l-7 -10c3,-38 -8,-31 26,-31l1 -11 19 -36 -4 -18 32 -39 -12 -37 31 -59c4,-121 29,-247 27,-377 -2,-127 -28,-254 -28,-375l-20 -65 -24 -157 -25 -54 -46 -204 -25 -51 -14 -93c-108,52 -337,324 -428,437z"/>
   <path class="fil2" d="M4924 6574l-106 124c-168,205 -97,96 -257,356 -42,67 -72,133 -105,207 -18,42 -31,69 -41,113 -7,26 -7,46 -16,73 -17,50 -20,41 -28,54l24 242 19 41 -2 12c38,0 22,-7 22,42l-3 4c39,0 27,-9 28,33l18 32c22,14 33,17 57,40 35,32 24,25 43,53l8 0c125,13 31,-15 74,41l-7 3c44,-1 37,-15 37,21l19 -5 53 39 47 -11 158 -6 19 6c21,-31 -39,-27 54,-25l30 13 39 -35 9 3c0,-41 -8,-28 38,-26l-2 -2 148 -139 3 -2c2,-39 -9,-31 28,-31l34 -134c4,-85 6,-48 30,-69l-6 -20c10,-78 -1,-45 31,-85l2 -110c18,-309 -57,-932 -186,-1166l-89 75c-30,30 -47,46 -78,77 -56,56 -92,102 -146,162z"/>
   <path class="fil2" d="M6716 7490c7,126 -13,165 12,313l19 32c2,5 6,14 8,18 26,51 -13,-41 14,37l62 1c11,124 29,74 92,129 18,15 16,20 34,34l29 19c5,3 24,14 28,16l22 22 71 -1 9 44 280 -14c38,-40 91,-64 138,-108 58,-54 47,-72 126,-119l9 -52c32,-78 46,-192 80,-239l-1 -67 24 -130c-35,-167 -61,-894 -206,-1107 -92,72 -171,175 -252,253 -224,218 -445,530 -554,840l-44 79z"/>
   <path class="fil2" d="M2068 7412l1 55 -1 239 -12 33 32 41 -5 15c37,0 22,-7 22,41l-1 4c39,0 26,-8 27,37l19 30 42 29c97,74 103,115 115,94 2,-5 9,7 13,11l57 19 56 37 29 -12 177 -4 36 6 54 -25 12 2 4 -25c57,-54 109,-75 173,-138 86,-86 23,-124 124,-156l-3 -32c5,-68 -5,-39 29,-74l-7 -34c-4,-50 -26,-80 26,-80l-1 -19c1,-40 -13,-92 24,-88 -34,-151 -19,-427 -57,-627 -20,-100 -94,-446 -146,-533l-77 66c-364,374 -550,579 -762,1088z"/>
   <path class="fil2" d="M6200 8597l-30 1c4,38 13,28 -27,28l1 10 -24 23 -18 26c5,36 14,30 -19,27 5,33 13,26 -19,24 9,43 16,30 -31,30 -47,27 -25,24 -69,58l-29 29 -16 28c6,31 13,23 -17,27 5,39 16,33 -18,33l-5 8 -16 29c13,44 20,31 -28,31l-2 1 -17 31c9,46 20,36 -26,36l-1 0 -16 32c10,49 22,39 -25,39l-4 -11 -21 37c10,48 24,41 -15,41l-5 -12c-4,48 11,41 -28,41l6 14c-1,41 11,34 -23,34l0 12 -29 42 -22 48c-28,158 -78,194 -64,397l32 68 21 76 39 74 1 2 189 159 91 24c61,-9 53,-27 53,20l154 9 67 -32 84 -14c0,-39 -8,-23 43,-28l-15 -6 159 -127 57 -135 34 -40 -14 -30 34 -65 27 -536 -38 -164 9 -17 -28 -70c-21,-25 -40,65 -15,-70 -4,-5 -8,-12 -9,-15 -2,-4 -6,-12 -8,-16 -3,-6 -10,-27 -12,-34 -9,-25 -7,-22 -14,-49l-88 -285c-32,-38 -139,-9 -139,114l-57 -7z"/>
   <path class="fil3" d="M6527 8889c-25,135 -6,45 15,70l8 -72 -23 2 -2 -58 -7 -56c-40,0 -23,7 -20,-48l12 -23c-28,-22 -20,11 -34,-66l2 -30 -25 -57 3 -30 -28 -52 13 -44c-29,-19 -30,36 -20,-57l-37 1c9,40 19,36 -19,24 9,40 17,32 -23,23 11,40 19,34 -21,24 12,39 19,32 -21,22 8,39 17,32 -21,26 12,38 18,30 -21,20 8,40 17,33 -22,25 9,38 15,31 -22,19 6,39 15,31 -24,25l10 20 57 7c0,-123 107,-152 139,-114l88 285c7,27 5,24 14,49 2,7 9,28 12,34 2,4 6,12 8,16 1,3 5,10 9,15z"/>
   <path class="fil3" d="M6811 7967c40,40 105,91 134,124 52,17 39,14 91,20l-5 27 18 -6 45 19 22 3 -9 -44 -71 1 -22 -22c-4,-2 -23,-13 -28,-16l-29 -19c-18,-14 -16,-19 -34,-34 -63,-55 -81,-5 -92,-129l-62 -1 2 8 40 69z"/>
   <path class="fil0" d="M6365 8393c-42,-10 -35,-18 -23,23 -40,-10 -31,-16 -21,24 -37,-9 -30,-16 -21,22 -41,-9 -31,-15 -21,26 -35,-6 -29,-14 -21,20 -40,-10 -31,-16 -22,25 -35,-7 -29,-15 -22,19 -45,-13 -36,-20 -24,25 -32,-6 -24,-12 -20,21 -41,-6 -32,-14 -27,28 40,0 31,10 27,-28l30 -1 -10 -20c39,6 30,14 24,-25 37,12 31,19 22,-19 39,8 30,15 22,-25 39,10 33,18 21,-20 38,6 29,13 21,-26 40,10 33,17 21,-22 40,10 32,16 21,-24 40,9 32,17 23,-23 38,12 28,16 19,-24l37 -1c-10,93 -9,38 20,57 6,-110 3,-42 -20,-57 -4,-4 -9,-10 -11,-11 -2,-1 -11,4 -13,0 -2,-7 -9,8 -13,12 -39,-11 -29,-16 -19,24z"/>
   <path class="fil3" d="M2745 8039l31 1 10 2c5,-4 12,-16 14,-12 23,42 -16,18 77,-62 48,-40 41,-46 96,-88l1 -2 28 -57c2,-9 8,-9 12,-14l1 -26 24 -45 3 9c-101,32 -38,70 -124,156 -64,63 -116,84 -173,138z"/>
   <path class="fil4" d="M2068 7706l1 -239c-49,53 -66,195 -1,239z"/>
   <path class="fil4" d="M7396 8140c138,-55 198,-138 264,-227 -79,47 -68,65 -126,119 -47,44 -100,68 -138,108z"/>
   <path class="fil0" d="M12038 2970c11,50 -45,21 74,37 34,5 95,5 130,6 -47,-31 -123,-23 -204,-43 0,-11 14,0 -4,-54 -16,-48 -19,-40 -27,-53l31 107z"/>
   <path class="fil4" d="M7669 7861c42,-35 43,-33 59,-105 7,-30 16,-95 21,-134 -34,47 -48,161 -80,239z"/>
   <path class="fil4" d="M2639 8081l-177 4c28,22 22,31 90,30 64,0 64,-1 87,-34z"/>
   <path class="fil4" d="M4966 8082l-158 6c29,17 -32,10 54,25 20,3 21,4 41,2 60,-6 46,-8 63,-33z"/>
   <path class="fil4" d="M5825 10170l-189 -159c34,64 24,55 85,99 32,23 59,40 104,60z"/>
   <path class="fil4" d="M6302 10143c112,-44 103,-24 159,-127l-159 127z"/>
   <path class="fil4" d="M5153 8016c104,-50 93,-39 148,-139l-148 139z"/>
   <path class="fil1" d="M6102 8685c-31,1 -23,-6 -19,27 -34,-4 -26,-11 -19,24 -36,-2 -24,-10 -31,30 47,0 40,13 31,-30 32,2 24,9 19,-24 33,3 24,9 19,-27l18 -26 24 -23c-33,0 -25,-8 -24,23 -32,-2 -23,-8 -18,26z"/>
   <path class="fil1" d="M3620 8865c-33,0 -25,-7 -17,28 -37,-2 -23,-9 -29,36 48,0 38,11 29,-36 33,1 24,7 17,-28l17 -26c32,3 22,9 23,-27 -34,0 -26,-8 -23,27 -33,-2 -24,-9 -17,26z"/>
   <path class="fil4" d="M2320 8041c-4,-4 -11,-16 -13,-11 -12,21 -18,-20 -115,-94l-42 -29c44,79 0,27 78,83 31,22 50,35 92,51z"/>
   <path class="fil4" d="M2786 8042l81 -39c4,-3 10,-7 13,-10l93 -113c-55,42 -48,48 -96,88 -93,80 -54,104 -77,62 -2,-4 -9,8 -14,12z"/>
   <path class="fil4" d="M4577 8000c-19,-28 -8,-21 -43,-53 -24,-23 -35,-26 -57,-40 25,42 -12,7 41,56 25,23 35,23 59,37z"/>
   <path class="fil4" d="M12492 6420c63,-8 24,4 73,-12 69,-22 35,-15 58,-32 -4,1 -73,13 -74,13 -30,10 -46,24 -57,31z"/>
   <path class="fil4" d="M3257 9924c-15,-77 3,-68 -48,-124 8,40 2,29 20,74 28,73 10,18 28,50z"/>
   <polygon class="fil3" points="3393,10089 3389,10023 3328,10018 "/>
   <path class="fil1" d="M3061 7605c31,-38 21,-11 26,-80 -52,0 -30,30 -26,80z"/>
   <path class="fil4" d="M6599 9210c2,-74 1,-112 -38,-164l38 164z"/>
   <path class="fil4" d="M7031 8138l5 -27c-52,-6 -39,-3 -91,-20 26,22 11,14 48,36 44,26 -6,0 38,11z"/>
   <path class="fil4" d="M6769 7890c-27,-78 12,14 -14,-37 -2,-4 -6,-13 -8,-18l-19 -32c5,45 -8,87 41,87z"/>
   <path class="fil4" d="M5919 8881c-31,1 -23,-6 -17,27l-18 33c34,0 23,6 18,-33 30,-4 23,4 17,-27l16 -28 29 -29c-41,0 -33,-10 -29,29l-16 28z"/>
   <path class="fil0" d="M4157 9992c-40,0 -26,-8 -26,40 54,10 38,17 26,-40z"/>
   <path class="fil1" d="M5835 9009c48,0 41,13 28,-31l16 -29c-36,0 -27,-7 -16,29 -36,-2 -24,-10 -28,31z"/>
   <path class="fil0" d="M6317 10149c-51,5 -43,-11 -43,28 54,11 43,24 43,-28z"/>
   <path class="fil1" d="M3843 10192c-106,0 -39,-3 -62,26 99,-7 43,2 62,-26z"/>
   <path class="fil0" d="M5703 9203c-50,0 -38,-11 -28,41 39,0 24,7 28,-41z"/>
   <path class="fil1" d="M4033 10111c57,-41 36,-23 77,-72 -54,25 -11,-5 -46,25 -32,27 -6,5 -31,47z"/>
   <path class="fil4" d="M6518 8775c4,-55 21,-48 -20,-48 -3,55 -20,48 20,48z"/>
   <path class="fil4" d="M6510 8704c-12,-96 -12,-46 -34,-66 14,77 6,44 34,66z"/>
   <path class="fil1" d="M5366 7710c23,-22 20,9 30,-69 -24,21 -26,-16 -30,69z"/>
   <path class="fil1" d="M4659 8041c-43,-56 51,-28 -74,-41 4,4 10,9 13,12 4,2 12,8 16,10l45 19z"/>
   <path class="fil1" d="M3564 10194c0,-43 8,-28 -42,-21 0,37 -7,22 42,21z"/>
   <path class="fil4" d="M5155 8018c-46,-2 -38,-15 -38,26 47,2 38,15 38,-26z"/>
   <path class="fil4" d="M4434 7838c0,-49 16,-42 -22,-42 -4,50 -19,42 22,42z"/>
   <path class="fil4" d="M5708 9215c39,0 25,7 15,-41l21 -37c-43,0 -31,-8 -21,37l-15 41z"/>
   <path class="fil1" d="M5748 9148c47,0 35,10 25,-39l16 -32c-37,0 -26,-7 -16,32l-25 39z"/>
   <path class="fil4" d="M2131 7877c-1,-45 12,-37 -27,-37 -2,46 -15,37 27,37z"/>
   <path class="fil4" d="M2105 7836c0,-48 15,-41 -22,-41 -4,48 -18,41 22,41z"/>
   <path class="fil1" d="M5790 9077c46,0 35,10 26,-36l17 -31c-36,0 -26,-8 -17,31l-26 36z"/>
   <path class="fil4" d="M4459 7875c-1,-42 11,-33 -28,-33 -3,43 -14,33 28,33z"/>
   <path class="fil4" d="M2974 7878c41,-32 20,39 40,-71 -4,5 -10,5 -12,14l-28 57z"/>
   <path class="fil4" d="M3513 9005l-35 30 -19 32c36,0 25,7 19,-32l35 -30 11 -34 24 -34c-44,0 -34,-10 -24,34l-11 34z"/>
   <path class="fil1" d="M6570 9029c-3,-47 12,-82 -28,-70l28 70z"/>
   <path class="fil4" d="M4689 8065c0,-36 7,-22 -37,-21 0,37 -8,24 37,21z"/>
   <path class="fil4" d="M3285 9416c-37,0 -23,-7 -21,39 36,0 22,7 21,-39z"/>
   <path class="fil1" d="M3313 9997c6,-41 13,-29 -31,-29 4,38 -7,29 31,29z"/>
   <path class="fil4" d="M3356 9263c-38,0 -26,-8 -25,34 36,0 25,8 25,-34z"/>
   <path class="fil4" d="M5332 7844c-37,0 -26,-8 -28,31 39,0 29,9 28,-31z"/>
   <path class="fil4" d="M5681 9258c-37,0 -25,-8 -23,34 34,0 22,7 23,-34z"/>
   <path class="fil4" d="M2776 8040l-31 -1 -4 25c42,0 35,12 35,-24z"/>
   <path class="fil4" d="M5635 10009l-39 -74c17,112 -2,42 39,74z"/>
   <path class="fil4" d="M4176 9951c-34,0 -23,-7 -26,31 37,0 27,8 26,-31z"/>
   <path class="fil4" d="M3939 10172c119,-18 40,0 75,-37l-75 37z"/>
   <path class="fil1" d="M5969 10214c0,-47 8,-29 -53,-20l53 20z"/>
   <path class="fil4" d="M4242 8999c8,-112 5,-39 -20,-65l20 65z"/>
   <path class="fil4" d="M6538 9811c34,-22 25,14 34,-65l-34 65z"/>
   <polygon class="fil4" points="6527,8889 6550,8887 6525,8831 "/>
   <path class="fil4" d="M3629 10216l-58 -23c18,31 -36,26 58,23z"/>
   <path class="fil4" d="M6811 7967l-40 -69c23,103 4,37 40,69z"/>
   <path class="fil1" d="M3238 9537c31,-21 25,39 27,-54l-27 54z"/>
   <path class="fil1" d="M5039 8063c-93,-2 -33,-6 -54,25l54 -25z"/>
   <path class="fil1" d="M3039 7713l29 -74c-34,35 -24,6 -29,74z"/>
   <path class="fil4" d="M3424 9137l-36 34 36 -34 9 -34 22 -38c-44,0 -32,-9 -22,38l-9 34z"/>
   <path class="fil1" d="M5575 9859l-32 -68c11,84 6,47 32,68z"/>
   <path class="fil4" d="M6456 8521c-6,-80 5,-39 -28,-52l28 52z"/>
   <path class="fil4" d="M6478 8608c-4,-93 4,-39 -25,-57l25 57z"/>
   <path class="fil4" d="M5390 7621l31 -85c-32,40 -21,7 -31,85z"/>
   <path class="fil1" d="M3215 9624c27,-19 23,38 24,-57l-24 57z"/>
   <path class="fil1" d="M3039 7736l-24 45c40,0 24,7 24,-45z"/>
   <path class="fil4" d="M6190 10191l-67 32c71,-9 41,-2 67,-32z"/>
   <path class="fil4" d="M7094 8151l-45 -19c0,39 -7,23 45,19z"/>
   <path class="fil4" d="M5629 9346l-22 48 22 -48 29 -42c-33,17 -28,-25 -29,42z"/>
   <path class="fil4" d="M4414 7784l-19 -41c-3,48 -18,41 19,41z"/>
   <path class="fil1" d="M3283 9957c5,-43 16,-35 -23,-35l23 35z"/>
   <path class="fil4" d="M4196 9904l-19 36c35,0 22,7 19,-36z"/>
   <polygon class="fil4" points="3305,9352 3280,9395 3305,9352 3332,9309 "/>
   <polygon class="fil4" points="4198,8777 4173,8723 "/>
   <polygon class="fil4" points="4127,8519 4102,8468 "/>
   <polygon class="fil4" points="4212,9810 4243,9751 "/>
   <polygon class="fil4" points="4192,9886 4224,9847 "/>
   <polygon class="fil4" points="6518,9881 6552,9841 "/>
   <polygon class="fil4" points="4761,8099 4708,8060 "/>
   <polygon class="fil4" points="2729,8062 2675,8087 "/>
   <polygon class="fil4" points="5108,8041 5069,8076 "/>
   <polygon class="fil4" points="2088,7780 2056,7739 "/>
   <polygon class="fil4" points="2433,8097 2377,8060 "/>
   <polygon class="fil4" points="3926,10167 3884,10201 "/>
   <polygon class="fil1" points="4818,6698 4924,6574 "/>
  </g>
 </g>
</svg>
