<?xml version="1.0" encoding="UTF-8"?>
<!DOCTYPE svg PUBLIC "-//W3C//DTD SVG 1.1//EN" "http://www.w3.org/Graphics/SVG/1.1/DTD/svg11.dtd">
<!-- Creator: CorelDRAW X7 -->
<svg xmlns="http://www.w3.org/2000/svg" xml:space="preserve" width="52.0438in" height="55.1384in" version="1.1" style="shape-rendering:geometricPrecision; text-rendering:geometricPrecision; image-rendering:optimizeQuality; fill-rule:evenodd; clip-rule:evenodd"
viewBox="0 0 15878 16822"
 xmlns:xlink="http://www.w3.org/1999/xlink">
 <defs>
  <style type="text/css">
   <![CDATA[
    .fil4 {fill:#0788E5}
    .fil1 {fill:#5489B5}
    .fil3 {fill:#62AEF2}
    .fil0 {fill:#9DCDED}
    .fil2 {fill:#FDBA53}
   ]]>
  </style>
 </defs>
 <g id="Layer_x0020_1">
  <metadata id="CorelCorpID_0Corel-Layer"/>
  <g id="_434599248">
   <path class="fil0" d="M6099 10304c100,-118 76,-84 146,-256l377 -722c35,-50 64,-94 96,-139l2236 45c-19,171 -327,790 -432,1041l-30 43 30 -43c317,56 757,45 1070,-25 310,-69 546,-208 762,-416 174,-168 334,-457 387,-795 26,-161 23,-368 -4,-535 -31,-190 -100,-286 -125,-435 592,-33 1257,-11 1855,-9 146,1 1662,52 1785,-42l-3701 9 -178 -268c-230,-343 -535,-380 -754,-479 121,-616 75,-1024 -275,-1413 -533,-593 -1054,-359 -1363,-384 -31,-835 -297,-1240 -722,-1651 -804,-779 -1514,-560 -1654,-700 -136,95 -393,42 -858,204 -896,311 -1174,852 -1474,1674 -810,-24 -1285,87 -1675,601 -47,63 -50,53 -105,133 -68,101 -111,201 -158,325 -118,316 -70,532 -83,899l-463 240c-394,245 -728,678 -779,1203 -84,856 387,1475 913,1719 598,277 1757,166 2514,171 874,6 1792,25 2662,5z"/>
   <path class="fil1" d="M5605 3130c140,140 850,-79 1654,700 425,411 691,816 722,1651 309,25 830,-209 1363,384 350,389 396,797 275,1413 219,99 524,136 754,479l178 268 3701 -9c691,37 1528,-641 1618,-1529 68,-675 -275,-1336 -764,-1611 -169,-95 -419,-171 -564,-254 84,-583 301,-921 -272,-1620 -540,-659 -1186,-469 -1554,-470 -29,-801 -183,-1199 -667,-1740 -660,-737 -1710,-968 -2663,-658 -820,267 -1543,942 -1725,1900 -617,-16 -837,-85 -1360,207 -277,154 -638,482 -696,889z"/>
   <path class="fil2" d="M6099 10304c-42,211 -479,986 -596,1233l-535 1139c-9,72 -13,17 10,63 214,111 1744,19 2131,28 9,177 -311,856 -398,1046l-848 2000c-128,315 -398,819 -397,1009 111,-69 214,-232 308,-345l4003 -4682c136,-173 298,-254 226,-338 -188,-101 -1590,9 -1965,-30 -6,-273 371,-782 454,-1111l30 -43c105,-251 413,-870 432,-1041l-2236 -45c-32,45 -61,89 -96,139l-377 722c-70,172 -46,138 -146,256z"/>
   <path class="fil3" d="M9883 14692c148,-641 -82,-927 -704,-682 -339,135 -692,448 -753,826 -153,946 1151,1175 1457,-144z"/>
   <path class="fil4" d="M1948 13936c291,-1365 -1381,-481 -1484,181 -137,886 1193,1190 1484,-181z"/>
   <path class="fil4" d="M4183 11807c405,-1396 -1225,-768 -1433,-34 -259,912 1077,1260 1433,34z"/>
   <path class="fil3" d="M12602 9478c-922,-214 -1857,881 -1231,1434 379,335 837,88 1040,-190 272,-371 302,-738 191,-1244z"/>
   <path class="fil3" d="M12487 13524c47,-183 61,-548 -47,-691 -181,-242 -1167,-3 -1379,730 -256,886 1102,1218 1426,-39z"/>
   <path class="fil4" d="M4702 14692c352,-1291 -1303,-683 -1425,40 -149,880 1088,1196 1425,-40z"/>
  </g>
 </g>
</svg>
